{"glyphs":{"0":{"ha":900,"x_min":89,"x_max":811,"o":"m 468 849 q 730 736 649 849 q 811 433 811 624 q 763 199 811 303 q 631 38 715 96 q 446 -19 547 -19 q 243 41 324 -19 q 126 202 163 101 q 89 425 89 303 q 141 649 89 553 q 280 797 193 746 q 468 849 367 849 m 451 778 q 282 690 335 778 q 229 435 229 601 q 286 165 229 276 q 451 53 343 54 q 621 143 569 50 q 672 417 672 236 q 617 678 672 579 q 451 778 563 778 z "},"1":{"ha":633,"x_min":78,"x_max":589,"o":"m 276 76 l 276 694 l 92 658 l 78 725 q 245 791 140 744 q 374 857 350 838 l 408 847 l 407 75 l 589 58 l 589 0 l 79 0 l 79 58 l 276 76 z "},"2":{"ha":828,"x_min":89,"x_max":765,"o":"m 89 54 q 411 316 283 176 q 539 578 539 456 q 495 710 539 654 q 360 767 451 767 q 232 735 297 767 q 124 667 167 704 l 92 719 q 223 815 135 772 q 406 857 311 857 q 555 824 494 857 q 645 738 615 792 q 675 622 675 685 q 557 339 675 486 q 254 81 439 192 l 642 110 l 707 206 l 765 186 l 721 0 l 108 0 l 89 54 z "},"3":{"ha":728,"x_min":44,"x_max":654,"o":"m 339 861 q 520 806 444 861 q 596 639 596 750 q 563 531 596 586 q 478 432 531 475 q 368 372 425 389 q 526 346 461 375 q 622 264 590 317 q 654 144 654 211 q 597 -34 654 51 q 434 -172 539 -119 q 196 -225 329 -225 q 85 -215 139 -225 l 85 -142 q 168 -149 119 -149 q 342 -112 263 -149 q 468 -15 422 -76 q 514 118 514 46 q 460 271 514 219 q 281 322 407 322 l 235 313 l 176 300 l 176 390 q 376 469 296 414 q 457 599 456 525 q 413 728 458 686 q 294 769 367 769 q 176 749 225 769 q 81 693 126 728 l 44 753 q 162 827 83 793 q 339 861 240 861 z "},"4":{"ha":850,"x_min":51,"x_max":785,"o":"m 51 64 q 110 169 83 122 q 157 253 136 217 q 335 578 265 447 q 476 864 406 710 l 519 864 l 599 804 l 215 149 l 167 78 l 521 99 l 522 417 l 642 450 l 642 107 l 785 115 l 785 0 l 642 0 l 642 -256 l 519 -256 l 521 0 l 72 0 l 51 64 z "},"5":{"ha":732,"x_min":88,"x_max":650,"o":"m 93 -167 q 131 -168 106 -168 q 312 -125 224 -168 q 456 -7 400 -82 q 511 160 511 68 q 451 339 511 281 q 288 397 390 397 q 111 364 211 397 l 88 383 l 140 839 l 500 839 l 519 851 l 596 851 l 563 726 l 239 726 l 189 438 q 357 476 274 476 q 503 442 436 476 q 610 340 569 408 q 650 175 650 272 q 585 -17 650 79 q 408 -176 521 -114 q 163 -237 296 -237 q 92 -229 119 -237 l 93 -167 z "},"6":{"ha":849,"x_min":86,"x_max":775,"o":"m 697 983 q 449 852 554 938 q 288 662 344 767 q 226 453 231 557 l 225 407 q 277 154 225 251 q 451 57 329 57 q 561 94 517 57 q 627 187 606 131 q 649 304 649 243 q 602 499 649 429 q 482 568 556 568 q 401 558 431 568 q 346 528 372 547 l 315 581 q 394 632 333 607 q 517 657 456 657 q 658 614 599 657 q 746 503 717 571 q 775 360 775 435 q 733 183 775 269 q 613 41 692 96 q 429 -14 535 -14 q 247 40 325 -14 q 128 183 169 93 q 86 382 86 274 q 172 689 86 547 q 393 922 258 831 q 669 1040 528 1014 l 697 983 z "},"7":{"ha":839,"x_min":97,"x_max":760,"o":"m 247 -167 q 426 223 342 24 q 638 732 511 422 l 649 758 l 229 743 l 165 622 l 97 629 l 131 850 l 736 850 l 760 824 l 383 -214 l 247 -167 z "},"8":{"ha":842,"x_min":88,"x_max":767,"o":"m 444 1053 q 585 1023 522 1053 q 685 940 649 993 q 722 818 722 886 q 670 657 722 739 q 535 533 618 575 q 707 406 647 465 q 767 269 767 346 q 718 108 767 174 q 592 12 669 43 q 429 -19 515 -19 q 266 10 344 -19 q 138 102 188 40 q 88 253 88 164 q 142 406 88 332 q 300 532 197 481 q 183 645 225 583 q 140 790 140 707 q 183 935 140 875 q 296 1024 226 994 q 444 1053 365 1053 m 438 988 q 345 965 389 988 q 274 903 301 943 q 247 813 247 864 q 303 692 247 747 q 463 576 360 638 q 565 653 521 593 q 611 775 608 713 q 592 885 614 836 q 528 960 569 933 q 438 988 488 988 m 364 490 q 256 405 299 460 q 213 285 213 350 q 241 167 213 221 q 324 81 269 113 q 450 50 378 50 q 544 72 499 50 q 619 135 590 94 q 649 226 649 175 q 619 313 649 274 q 547 381 590 351 q 428 453 504 410 l 364 490 z "},"9":{"ha":854,"x_min":83,"x_max":760,"o":"m 161 -217 q 404 -72 301 -171 q 562 148 507 26 q 621 383 617 269 q 622 438 622 401 q 574 687 622 593 q 406 781 525 781 q 296 744 340 781 q 230 650 251 707 q 208 532 208 593 q 256 338 208 407 q 376 268 303 268 q 456 281 418 268 q 513 308 494 293 l 543 256 q 460 201 515 224 q 342 179 404 179 q 201 222 260 179 q 113 333 142 265 q 83 476 83 401 q 125 653 83 567 q 245 795 167 740 q 429 850 324 850 q 608 797 533 850 q 721 653 682 743 q 760 454 760 563 q 676 119 760 276 q 458 -144 592 -39 q 186 -275 325 -249 l 161 -217 z "},"\r":{"ha":0,"x_min":0,"x_max":0,"o":""}," ":{"ha":311,"x_min":0,"x_max":0,"o":""},"A":{"ha":1013,"x_min":1,"x_max":1011,"o":"m 99 78 l 451 1053 l 565 1053 l 903 78 l 1011 58 l 1011 0 l 653 0 l 653 58 l 765 78 l 693 296 l 286 296 l 213 78 l 325 58 l 325 0 l 1 0 l 1 58 l 99 78 m 556 707 l 492 911 l 313 376 l 665 376 l 556 707 z "},"Á":{"ha":1013,"x_min":1,"x_max":1011,"o":"m 674 1303 l 772 1201 q 635 1130 707 1160 q 501 1090 564 1100 l 465 1126 l 674 1303 m 99 78 l 451 1053 l 565 1053 l 903 78 l 1011 58 l 1011 0 l 653 0 l 653 58 l 765 78 l 693 296 l 286 296 l 213 78 l 325 58 l 325 0 l 1 0 l 1 58 l 99 78 m 556 707 l 492 911 l 313 376 l 665 376 l 556 707 z "},"Ă":{"ha":1013,"x_min":1,"x_max":1011,"o":"m 1 0 m 726 1335 q 699 1231 726 1279 q 621 1154 671 1183 q 507 1125 571 1125 q 390 1153 440 1125 q 314 1230 340 1182 q 288 1335 288 1278 l 344 1335 q 360 1301 347 1331 q 412 1247 374 1271 q 508 1222 450 1222 q 614 1252 581 1222 q 658 1306 647 1282 q 672 1335 669 1329 l 726 1335 m 99 78 l 451 1053 l 565 1053 l 903 78 l 1011 58 l 1011 0 l 653 0 l 653 58 l 765 78 l 693 296 l 286 296 l 213 78 l 325 58 l 325 0 l 1 0 l 1 58 l 99 78 m 556 707 l 492 911 l 313 376 l 665 376 l 556 707 z "},"Â":{"ha":1013,"x_min":1,"x_max":1011,"o":"m 443 1303 l 572 1303 l 746 1129 l 688 1096 l 508 1210 l 325 1096 l 272 1128 l 443 1303 m 99 78 l 451 1053 l 565 1053 l 903 78 l 1011 58 l 1011 0 l 653 0 l 653 58 l 765 78 l 693 296 l 286 296 l 213 78 l 325 58 l 325 0 l 1 0 l 1 58 l 99 78 m 556 707 l 492 911 l 313 376 l 665 376 l 556 707 z "},"Ä":{"ha":1013,"x_min":1,"x_max":1011,"o":"m 356 1303 q 420 1279 399 1303 q 442 1218 442 1256 q 411 1147 442 1175 q 340 1119 381 1119 q 281 1142 306 1119 q 256 1203 256 1165 q 287 1274 256 1244 q 356 1303 318 1303 m 672 1303 q 737 1279 715 1303 q 758 1218 758 1256 q 727 1147 758 1175 q 657 1119 696 1119 q 597 1142 622 1119 q 571 1203 571 1165 q 603 1274 571 1244 q 672 1303 635 1303 m 903 78 l 1011 58 l 1011 0 l 653 0 l 653 58 l 765 78 l 693 296 l 286 296 l 213 78 l 325 58 l 325 0 l 1 0 l 1 58 l 99 78 l 451 1053 l 565 1053 l 903 78 m 313 376 l 665 376 l 556 707 l 492 911 l 313 376 z "},"À":{"ha":1013,"x_min":1,"x_max":1011,"o":"m 515 1090 q 381 1130 453 1100 q 244 1201 310 1160 l 344 1303 l 551 1126 l 515 1090 m 99 78 l 451 1053 l 565 1053 l 903 78 l 1011 58 l 1011 0 l 653 0 l 653 58 l 765 78 l 693 296 l 286 296 l 213 78 l 325 58 l 325 0 l 1 0 l 1 58 l 99 78 m 556 707 l 492 911 l 313 376 l 665 376 l 556 707 z "},"Ā":{"ha":1013,"x_min":1,"x_max":1011,"o":"m 1 0 m 686 1261 l 686 1161 l 326 1161 l 326 1261 l 686 1261 m 99 78 l 451 1053 l 565 1053 l 903 78 l 1011 58 l 1011 0 l 653 0 l 653 58 l 765 78 l 693 296 l 286 296 l 213 78 l 325 58 l 325 0 l 1 0 l 1 58 l 99 78 m 556 707 l 492 911 l 313 376 l 665 376 l 556 707 z "},"Ą":{"ha":1013,"x_min":1,"x_max":1011,"o":"m 99 78 l 451 1053 l 565 1053 l 903 78 l 1011 58 l 1011 0 l 885 0 q 799 -51 844 -17 q 724 -123 754 -85 q 694 -190 694 -161 q 715 -251 694 -235 q 782 -271 735 -268 q 848 -260 814 -272 q 903 -236 882 -247 q 928 -222 924 -225 l 943 -282 q 845 -339 897 -317 q 708 -357 793 -361 q 606 -316 639 -353 q 574 -229 574 -279 q 635 -103 574 -169 q 774 0 696 -37 l 653 0 l 653 58 l 765 78 l 693 296 l 286 296 l 213 78 l 325 58 l 325 0 l 1 0 l 1 58 l 99 78 m 556 707 l 492 911 l 313 376 l 665 376 l 556 707 z "},"Å":{"ha":1013,"x_min":1,"x_max":1011,"o":"m 507 1303 q 628 1256 578 1303 q 678 1142 678 1208 q 652 1056 678 1094 q 583 999 626 1018 l 903 78 l 1011 58 l 1011 0 l 653 0 l 653 58 l 765 78 l 693 296 l 286 296 l 213 78 l 325 58 l 325 0 l 1 0 l 1 58 l 99 78 l 432 997 q 363 1056 389 1018 q 336 1142 336 1093 q 386 1256 336 1210 q 507 1303 436 1303 m 507 1226 q 443 1201 469 1226 q 417 1140 417 1176 q 443 1078 417 1103 q 507 1054 469 1054 q 571 1078 544 1054 q 597 1140 597 1103 q 571 1201 597 1176 q 507 1226 544 1226 m 313 376 l 665 376 l 556 707 l 492 911 l 313 376 z "},"Ã":{"ha":1013,"x_min":1,"x_max":1011,"o":"m 238 1186 q 318 1269 264 1235 q 426 1303 372 1303 q 478 1291 457 1303 q 528 1256 500 1279 q 565 1226 549 1236 q 603 1217 582 1217 q 672 1233 639 1217 q 728 1272 704 1249 l 763 1222 q 683 1140 738 1174 q 575 1106 629 1106 q 521 1118 543 1106 q 474 1154 499 1131 q 435 1185 450 1175 q 399 1194 419 1194 q 331 1177 365 1194 q 274 1138 296 1160 l 238 1186 m 99 78 l 451 1053 l 565 1053 l 903 78 l 1011 58 l 1011 0 l 653 0 l 653 58 l 765 78 l 693 296 l 286 296 l 213 78 l 325 58 l 325 0 l 1 0 l 1 58 l 99 78 m 556 707 l 492 911 l 313 376 l 665 376 l 556 707 z "},"Æ":{"ha":1315,"x_min":1,"x_max":1274,"o":"m 97 78 l 493 1053 l 1151 1053 l 1171 860 l 1103 858 l 1072 974 l 658 982 l 775 589 l 1038 593 l 1057 699 l 1119 699 l 1119 414 l 1057 414 l 1038 511 l 797 514 l 928 75 l 1146 86 l 1214 226 l 1274 197 l 1243 0 l 668 0 l 668 58 l 779 78 l 708 310 l 297 310 l 211 78 l 325 58 l 325 0 l 1 0 l 1 58 l 97 78 m 556 804 l 532 933 l 328 389 l 683 389 l 556 804 z "},"B":{"ha":963,"x_min":72,"x_max":899,"o":"m 186 78 l 186 975 l 75 986 l 75 1053 l 246 1053 l 299 1056 q 496 1063 404 1064 q 744 999 657 1061 q 831 825 831 936 q 781 658 831 728 q 632 567 731 589 q 767 533 706 565 q 863 442 828 500 q 899 310 899 385 q 850 144 899 217 q 703 31 801 72 q 460 -10 604 -10 q 275 -1 375 -10 l 244 0 l 72 0 l 72 58 l 186 78 m 318 596 q 400 590 350 590 l 482 592 q 647 645 588 592 q 706 800 706 699 q 640 941 706 892 q 468 990 574 990 l 426 990 q 319 981 344 990 l 318 596 m 318 92 q 390 73 336 81 q 490 65 444 65 q 685 117 611 65 q 758 283 758 169 q 695 454 758 400 q 503 508 632 508 l 406 510 q 318 506 356 510 l 318 92 z "},"C":{"ha":956,"x_min":58,"x_max":889,"o":"m 606 1063 q 731 1052 675 1063 q 849 1024 786 1042 l 888 1014 l 876 818 l 806 818 l 769 931 q 679 972 725 960 q 563 983 633 983 q 381 930 464 983 q 247 774 297 876 q 197 533 197 672 q 241 292 197 401 q 370 118 285 183 q 575 53 456 53 q 792 133 729 53 l 831 238 l 889 238 l 889 43 q 846 35 871 42 q 811 25 821 28 q 688 -8 749 4 q 543 -19 628 -19 q 294 46 404 -19 q 121 227 183 111 q 58 492 58 343 q 133 791 58 661 q 334 992 208 921 q 606 1063 460 1063 z "},"Ć":{"ha":956,"x_min":58,"x_max":889,"o":"m 58 0 m 606 1063 q 731 1052 675 1063 q 849 1024 786 1042 l 888 1014 l 876 818 l 806 818 l 769 931 q 679 972 725 960 q 563 983 633 983 q 381 930 464 983 q 247 774 297 876 q 197 533 197 672 q 241 292 197 401 q 370 118 285 183 q 575 53 456 53 q 792 133 729 53 l 831 238 l 889 238 l 889 43 q 846 35 871 42 q 811 25 821 28 q 688 -8 749 4 q 543 -19 628 -19 q 294 46 404 -19 q 121 227 183 111 q 58 492 58 343 q 133 791 58 661 q 334 992 208 921 q 606 1063 460 1063 m 700 1303 l 800 1201 q 664 1130 736 1160 q 529 1090 592 1100 l 493 1126 l 700 1303 z "},"Č":{"ha":956,"x_min":58,"x_max":889,"o":"m 58 0 m 606 1063 q 731 1052 675 1063 q 849 1024 786 1042 l 888 1014 l 876 818 l 806 818 l 769 931 q 679 972 725 960 q 563 983 633 983 q 381 930 464 983 q 247 774 297 876 q 197 533 197 672 q 241 292 197 401 q 370 118 285 183 q 575 53 456 53 q 792 133 729 53 l 831 238 l 889 238 l 889 43 q 846 35 871 42 q 811 25 821 28 q 688 -8 749 4 q 543 -19 628 -19 q 294 46 404 -19 q 121 227 183 111 q 58 492 58 343 q 133 791 58 661 q 334 992 208 921 q 606 1063 460 1063 m 369 1303 l 535 1188 l 704 1303 l 757 1271 l 599 1096 l 471 1096 l 310 1269 l 369 1303 z "},"Ç":{"ha":956,"x_min":58,"x_max":889,"o":"m 606 1063 q 731 1052 675 1063 q 849 1024 786 1042 l 888 1014 l 876 818 l 806 818 l 769 931 q 679 972 725 960 q 563 983 633 983 q 381 930 464 983 q 247 774 297 876 q 197 533 197 672 q 241 292 197 401 q 370 118 285 183 q 575 53 456 53 q 792 133 729 53 l 831 238 l 889 238 l 889 43 q 813 25 864 42 q 701 -4 754 7 q 575 -18 649 -15 l 574 -51 l 575 -85 q 705 -124 661 -85 q 749 -212 749 -162 q 701 -315 749 -278 q 576 -357 654 -353 l 544 -358 q 475 -351 500 -358 q 443 -343 450 -344 l 443 -275 q 481 -282 458 -279 q 521 -285 504 -285 q 591 -270 567 -285 q 615 -210 615 -256 q 588 -160 615 -178 q 508 -142 561 -142 q 487 -143 496 -142 q 475 -144 478 -144 q 494 -17 478 -82 q 269 61 368 -6 q 114 240 169 128 q 58 492 58 351 q 133 791 58 661 q 334 992 208 921 q 606 1063 460 1063 z "},"D":{"ha":1081,"x_min":72,"x_max":1019,"o":"m 186 78 l 186 975 l 75 986 l 75 1053 l 253 1053 q 406 1058 322 1053 q 515 1063 458 1063 q 894 929 768 1063 q 1019 554 1019 796 q 951 256 1019 383 q 764 61 883 129 q 497 -7 644 -7 q 396 -4 468 -7 q 256 0 333 0 l 72 0 l 72 58 l 186 78 m 318 89 q 489 68 397 68 q 685 117 597 68 q 827 268 774 167 q 881 521 881 369 q 776 867 881 749 q 486 986 672 986 q 394 983 428 986 q 318 974 360 981 l 318 89 z "},"Ð":{"ha":1081,"x_min":67,"x_max":1019,"o":"m 186 78 l 186 492 l 67 492 l 67 590 l 186 590 l 186 975 l 75 986 l 75 1053 l 253 1053 q 406 1058 322 1053 q 515 1063 458 1063 q 894 929 768 1063 q 1019 554 1019 796 q 951 256 1019 383 q 764 61 883 129 q 497 -7 644 -7 q 396 -4 468 -7 q 256 0 333 0 l 72 0 l 72 58 l 186 78 m 318 89 q 489 68 397 68 q 685 117 597 68 q 827 268 774 167 q 881 521 881 369 q 776 867 881 749 q 486 986 672 986 q 394 983 428 986 q 318 974 360 981 l 318 590 l 493 590 l 493 492 l 318 492 l 318 89 z "},"Ď":{"ha":1081,"x_min":72,"x_max":1019,"o":"m 72 0 m 186 78 l 186 975 l 75 986 l 75 1053 l 253 1053 q 406 1058 322 1053 q 515 1063 458 1063 q 894 929 768 1063 q 1019 554 1019 796 q 951 256 1019 383 q 764 61 883 129 q 497 -7 644 -7 q 396 -4 468 -7 q 256 0 333 0 l 72 0 l 72 58 l 186 78 m 318 89 q 489 68 397 68 q 685 117 597 68 q 827 268 774 167 q 881 521 881 369 q 776 867 881 749 q 486 986 672 986 q 394 983 428 986 q 318 974 360 981 l 318 89 m 338 1303 l 503 1188 l 672 1303 l 725 1271 l 567 1096 l 439 1096 l 278 1269 l 338 1303 z "},"Đ":{"ha":1081,"x_min":67,"x_max":1019,"o":"m 67 0 m 186 78 l 186 492 l 67 492 l 67 590 l 186 590 l 186 975 l 75 986 l 75 1053 l 253 1053 q 406 1058 322 1053 q 515 1063 458 1063 q 894 929 768 1063 q 1019 554 1019 796 q 951 256 1019 383 q 764 61 883 129 q 497 -7 644 -7 q 396 -4 468 -7 q 256 0 333 0 l 72 0 l 72 58 l 186 78 m 318 89 q 489 68 397 68 q 685 117 597 68 q 827 268 774 167 q 881 521 881 369 q 776 867 881 749 q 486 986 672 986 q 394 983 428 986 q 318 974 360 981 l 318 590 l 493 590 l 493 492 l 318 492 l 318 89 z "},"E":{"ha":894,"x_min":69,"x_max":851,"o":"m 183 78 l 183 975 l 72 986 l 72 1053 l 776 1053 l 796 860 l 721 860 l 690 974 l 315 982 l 315 586 l 568 592 l 588 697 l 657 697 l 657 406 l 588 406 l 568 510 l 315 514 l 315 74 l 718 86 l 786 226 l 851 210 l 821 0 l 69 0 l 69 58 l 183 78 z "},"É":{"ha":894,"x_min":69,"x_max":851,"o":"m 658 1303 l 757 1201 q 621 1130 693 1160 q 488 1090 549 1100 l 451 1126 l 658 1303 m 183 78 l 183 975 l 72 986 l 72 1053 l 776 1053 l 796 860 l 721 860 l 690 974 l 315 982 l 315 586 l 568 592 l 588 697 l 657 697 l 657 406 l 588 406 l 568 510 l 315 514 l 315 74 l 718 86 l 786 226 l 851 210 l 821 0 l 69 0 l 69 58 l 183 78 z "},"Ě":{"ha":894,"x_min":69,"x_max":851,"o":"m 69 0 m 183 78 l 183 975 l 72 986 l 72 1053 l 776 1053 l 796 860 l 721 860 l 690 974 l 315 982 l 315 586 l 568 592 l 588 697 l 657 697 l 657 406 l 588 406 l 568 510 l 315 514 l 315 74 l 718 86 l 786 226 l 851 210 l 821 0 l 69 0 l 69 58 l 183 78 m 282 1303 l 447 1188 l 617 1303 l 669 1271 l 511 1096 l 383 1096 l 222 1269 l 282 1303 z "},"Ê":{"ha":894,"x_min":69,"x_max":851,"o":"m 429 1303 l 557 1303 l 731 1129 l 672 1096 l 493 1210 l 310 1096 l 257 1128 l 429 1303 m 183 78 l 183 975 l 72 986 l 72 1053 l 776 1053 l 796 860 l 721 860 l 690 974 l 315 982 l 315 586 l 568 592 l 588 697 l 657 697 l 657 406 l 588 406 l 568 510 l 315 514 l 315 74 l 718 86 l 786 226 l 851 210 l 821 0 l 69 0 l 69 58 l 183 78 z "},"Ë":{"ha":894,"x_min":69,"x_max":851,"o":"m 342 1303 q 406 1279 385 1303 q 428 1218 428 1256 q 397 1147 428 1175 q 325 1119 365 1119 q 266 1142 292 1119 q 240 1203 240 1165 q 272 1274 240 1244 q 342 1303 304 1303 m 657 1303 q 722 1279 700 1303 q 743 1218 743 1256 q 713 1147 743 1175 q 642 1119 682 1119 q 581 1142 607 1119 q 556 1203 556 1165 q 588 1274 556 1244 q 657 1303 619 1303 m 796 860 l 721 860 l 690 974 l 315 982 l 315 586 l 568 592 l 588 697 l 657 697 l 657 406 l 588 406 l 568 510 l 315 514 l 315 74 l 718 86 l 786 226 l 851 210 l 821 0 l 69 0 l 69 58 l 183 78 l 183 975 l 72 986 l 72 1053 l 776 1053 l 796 860 z "},"Ė":{"ha":894,"x_min":69,"x_max":851,"o":"m 69 0 m 183 78 l 183 975 l 72 986 l 72 1053 l 776 1053 l 796 860 l 721 860 l 690 974 l 315 982 l 315 586 l 568 592 l 588 697 l 657 697 l 657 406 l 588 406 l 568 510 l 315 514 l 315 74 l 718 86 l 786 226 l 851 210 l 821 0 l 69 0 l 69 58 l 183 78 m 500 1303 q 565 1279 543 1303 q 586 1218 586 1256 q 555 1147 586 1175 q 485 1119 524 1119 q 424 1142 450 1119 q 399 1203 399 1165 q 431 1274 399 1244 q 500 1303 463 1303 z "},"È":{"ha":894,"x_min":69,"x_max":851,"o":"m 500 1090 q 367 1130 438 1100 q 231 1201 296 1160 l 329 1303 l 536 1126 l 500 1090 m 183 78 l 183 975 l 72 986 l 72 1053 l 776 1053 l 796 860 l 721 860 l 690 974 l 315 982 l 315 586 l 568 592 l 588 697 l 657 697 l 657 406 l 588 406 l 568 510 l 315 514 l 315 74 l 718 86 l 786 226 l 851 210 l 821 0 l 69 0 l 69 58 l 183 78 z "},"Ē":{"ha":894,"x_min":69,"x_max":851,"o":"m 69 0 m 183 78 l 183 975 l 72 986 l 72 1053 l 776 1053 l 796 860 l 721 860 l 690 974 l 315 982 l 315 586 l 568 592 l 588 697 l 657 697 l 657 406 l 588 406 l 568 510 l 315 514 l 315 74 l 718 86 l 786 226 l 851 210 l 821 0 l 69 0 l 69 58 l 183 78 m 676 1261 l 676 1161 l 317 1161 l 317 1261 l 676 1261 z "},"Ę":{"ha":894,"x_min":69,"x_max":879,"o":"m 183 78 l 183 975 l 72 986 l 72 1053 l 776 1053 l 796 860 l 721 860 l 690 974 l 315 982 l 315 586 l 568 592 l 588 697 l 657 697 l 657 406 l 588 406 l 568 510 l 315 514 l 315 74 l 718 86 l 786 226 l 851 210 l 821 0 l 819 0 q 694 -87 756 -26 q 632 -190 632 -147 q 652 -251 632 -235 q 718 -271 672 -268 q 815 -249 768 -274 q 865 -222 861 -225 l 879 -282 q 781 -339 833 -317 q 644 -357 729 -361 q 544 -316 576 -353 q 511 -229 511 -279 q 572 -103 511 -169 q 710 0 632 -37 l 69 0 l 69 58 l 183 78 z "},"F":{"ha":839,"x_min":71,"x_max":815,"o":"m 186 78 l 186 975 l 75 986 l 75 1053 l 803 1053 l 815 860 l 749 858 l 717 969 l 318 979 l 318 575 l 617 581 l 643 679 l 710 679 l 710 394 l 635 394 l 617 496 l 318 501 l 318 78 l 514 64 l 514 0 l 71 0 l 71 58 l 186 78 z "},"G":{"ha":1042,"x_min":58,"x_max":1001,"o":"m 603 1063 q 763 1052 697 1063 q 866 1032 829 1042 q 914 1019 903 1022 l 903 822 l 831 822 l 796 936 q 719 969 782 954 q 560 983 657 985 q 378 927 461 982 q 247 771 296 872 q 197 533 197 669 q 238 296 197 406 q 361 119 279 186 q 561 53 443 53 q 785 124 721 53 l 785 403 l 621 414 l 621 481 l 1001 481 l 1001 414 l 918 401 l 918 56 q 868 45 901 54 q 824 33 835 36 q 669 -5 739 10 q 529 -19 600 -19 q 285 47 392 -19 q 118 229 178 113 q 58 492 58 346 q 132 791 58 661 q 330 992 206 921 q 603 1063 454 1063 z "},"Ğ":{"ha":1042,"x_min":58,"x_max":1001,"o":"m 58 0 m 603 1063 q 763 1052 697 1063 q 866 1032 829 1042 q 914 1019 903 1022 l 903 822 l 831 822 l 796 936 q 719 969 782 954 q 560 983 657 985 q 378 927 461 982 q 247 771 296 872 q 197 533 197 669 q 238 296 197 406 q 361 119 279 186 q 561 53 443 53 q 785 124 721 53 l 785 403 l 621 414 l 621 481 l 1001 481 l 1001 414 l 918 401 l 918 56 q 868 45 901 54 q 824 33 835 36 q 669 -5 739 10 q 529 -19 600 -19 q 285 47 392 -19 q 118 229 178 113 q 58 492 58 346 q 132 791 58 661 q 330 992 206 921 q 603 1063 454 1063 m 786 1303 q 758 1199 786 1247 q 681 1122 731 1151 q 567 1093 631 1093 q 450 1122 500 1093 q 374 1198 400 1150 q 347 1303 347 1246 l 404 1303 q 420 1269 407 1299 q 472 1215 433 1239 q 568 1190 510 1190 q 674 1220 640 1190 q 718 1274 707 1250 q 732 1303 729 1297 l 786 1303 z "},"Ģ":{"ha":1042,"x_min":58,"x_max":1001,"o":"m 58 0 m 603 1063 q 763 1052 697 1063 q 866 1032 829 1042 q 914 1019 903 1022 l 903 822 l 831 822 l 796 936 q 719 969 782 954 q 560 983 657 985 q 378 927 461 982 q 247 771 296 872 q 197 533 197 669 q 238 296 197 406 q 361 119 279 186 q 561 53 443 53 q 785 124 721 53 l 785 403 l 621 414 l 621 481 l 1001 481 l 1001 414 l 918 401 l 918 56 q 868 45 901 54 q 824 33 835 36 q 669 -5 739 10 q 529 -19 600 -19 q 285 47 392 -19 q 118 229 178 113 q 58 492 58 346 q 132 791 58 661 q 330 992 206 921 q 603 1063 454 1063 m 539 -28 q 642 -96 606 -46 q 678 -200 678 -146 q 650 -308 678 -257 q 582 -392 622 -358 q 508 -435 542 -425 l 471 -400 l 471 -382 q 523 -322 507 -365 q 539 -228 539 -279 q 527 -181 539 -203 q 499 -147 515 -160 q 469 -135 482 -135 l 469 -99 l 539 -28 z "},"H":{"ha":1157,"x_min":72,"x_max":1088,"o":"m 186 78 l 186 975 l 75 986 l 75 1053 l 429 1053 l 429 986 l 318 975 l 318 551 l 839 551 l 839 975 l 726 986 l 726 1053 l 1079 1053 l 1079 986 l 971 975 l 971 78 l 1088 58 l 1088 0 l 722 0 l 722 58 l 839 78 l 839 472 l 318 472 l 318 78 l 435 58 l 435 0 l 72 0 l 72 58 l 186 78 z "},"I":{"ha":518,"x_min":71,"x_max":449,"o":"m 193 78 l 193 975 l 74 986 l 74 1053 l 442 1053 l 442 986 l 325 975 l 325 78 l 449 58 l 449 0 l 71 0 l 71 58 l 193 78 z "},"Ĳ":{"ha":1006,"x_min":71,"x_max":953,"o":"m 193 78 l 193 975 l 74 986 l 74 1053 l 442 1053 l 442 986 l 325 975 l 325 78 l 449 58 l 449 0 l 71 0 l 71 58 l 193 78 m 460 -217 q 597 -146 539 -190 q 679 -40 654 -101 q 703 86 697 15 q 710 272 710 157 l 710 975 l 599 986 l 599 1053 l 953 1053 l 953 986 l 842 975 l 842 374 l 843 232 q 829 33 843 104 q 760 -115 813 -51 q 639 -215 708 -178 q 494 -264 569 -253 l 460 -217 z "},"Í":{"ha":518,"x_min":71,"x_max":525,"o":"m 426 1303 l 525 1201 q 389 1130 461 1160 q 256 1090 317 1100 l 219 1126 l 426 1303 m 193 78 l 193 975 l 74 986 l 74 1053 l 442 1053 l 442 986 l 325 975 l 325 78 l 449 58 l 449 0 l 71 0 l 71 58 l 193 78 z "},"Î":{"ha":518,"x_min":25,"x_max":499,"o":"m 197 1303 l 325 1303 l 499 1129 l 440 1096 l 261 1210 l 78 1096 l 25 1128 l 197 1303 m 193 78 l 193 975 l 74 986 l 74 1053 l 442 1053 l 442 986 l 325 975 l 325 78 l 449 58 l 449 0 l 71 0 l 71 58 l 193 78 z "},"Ï":{"ha":518,"x_min":8,"x_max":511,"o":"m 110 1303 q 174 1279 153 1303 q 196 1218 196 1256 q 165 1147 196 1175 q 93 1119 133 1119 q 34 1142 60 1119 q 8 1203 8 1165 q 40 1274 8 1244 q 110 1303 72 1303 m 425 1303 q 490 1279 468 1303 q 511 1218 511 1256 q 481 1147 511 1175 q 410 1119 450 1119 q 349 1142 375 1119 q 324 1203 324 1165 q 356 1274 324 1244 q 425 1303 388 1303 m 442 986 l 325 975 l 325 78 l 449 58 l 449 0 l 71 0 l 71 58 l 193 78 l 193 975 l 74 986 l 74 1053 l 442 1053 l 442 986 z "},"İ":{"ha":518,"x_min":71,"x_max":449,"o":"m 71 0 m 193 78 l 193 975 l 74 986 l 74 1053 l 442 1053 l 442 986 l 325 975 l 325 78 l 449 58 l 449 0 l 71 0 l 71 58 l 193 78 m 267 1303 q 331 1279 310 1303 q 353 1218 353 1256 q 322 1147 353 1175 q 251 1119 290 1119 q 191 1142 217 1119 q 165 1203 165 1165 q 197 1274 165 1244 q 267 1303 229 1303 z "},"Ì":{"ha":518,"x_min":-1,"x_max":449,"o":"m 268 1090 q 135 1130 206 1100 q -1 1201 64 1160 l 97 1303 l 304 1126 l 268 1090 m 193 78 l 193 975 l 74 986 l 74 1053 l 442 1053 l 442 986 l 325 975 l 325 78 l 449 58 l 449 0 l 71 0 l 71 58 l 193 78 z "},"Ī":{"ha":501,"x_min":71,"x_max":449,"o":"m 71 0 m 431 1289 l 431 1189 l 71 1189 l 71 1289 l 431 1289 m 193 78 l 193 975 l 74 986 l 74 1053 l 442 1053 l 442 986 l 325 975 l 325 78 l 449 58 l 449 0 l 71 0 l 71 58 l 193 78 z "},"Į":{"ha":518,"x_min":71,"x_max":449,"o":"m 449 58 l 449 0 l 394 0 q 308 -49 351 -15 q 236 -122 264 -83 q 208 -186 208 -160 q 227 -249 208 -228 q 292 -271 246 -271 q 335 -265 308 -271 q 379 -250 363 -258 l 393 -310 q 318 -344 365 -331 q 218 -357 271 -357 q 122 -321 161 -357 q 83 -226 83 -285 q 113 -144 83 -189 q 192 -60 143 -99 q 293 0 240 -21 l 71 0 l 71 58 l 193 78 l 193 975 l 74 986 l 74 1053 l 442 1053 l 442 986 l 325 975 l 325 78 l 449 58 z "},"Ĩ":{"ha":518,"x_min":-8,"x_max":517,"o":"m -8 1186 q 72 1269 18 1235 q 179 1303 126 1303 q 231 1291 210 1303 q 281 1256 253 1279 q 318 1226 301 1236 q 356 1217 335 1217 q 424 1233 392 1217 q 481 1272 457 1249 l 517 1222 q 436 1140 490 1174 q 328 1106 382 1106 q 274 1118 296 1106 q 226 1154 251 1131 q 188 1185 203 1175 q 151 1194 172 1194 q 85 1177 119 1194 q 26 1138 50 1160 l -8 1186 m 193 78 l 193 975 l 74 986 l 74 1053 l 442 1053 l 442 986 l 325 975 l 325 78 l 449 58 l 449 0 l 71 0 l 71 58 l 193 78 z "},"J":{"ha":489,"x_min":-58,"x_max":435,"o":"m 435 986 l 325 975 l 325 374 l 325 249 q 313 33 325 104 q 191 -169 288 -92 q -24 -264 94 -247 l -58 -217 q 161 -40 113 -161 q 187 85 181 15 q 193 272 193 156 l 193 975 l 81 986 l 81 1053 l 435 1053 l 435 986 z "},"Ĵ":{"ha":489,"x_min":-58,"x_max":497,"o":"m 497 1129 l 439 1096 l 260 1210 l 76 1096 l 24 1128 l 196 1303 l 324 1303 l 497 1129 m 435 986 l 325 975 l 325 374 l 325 249 q 313 33 325 104 q 191 -169 288 -92 q -24 -264 94 -247 l -58 -217 q 161 -40 113 -161 q 187 85 181 15 q 193 272 193 156 l 193 975 l 81 986 l 81 1053 l 435 1053 l 435 986 z "},"K":{"ha":963,"x_min":72,"x_max":979,"o":"m 186 78 l 186 975 l 75 986 l 75 1053 l 429 1053 l 429 986 l 318 975 l 318 507 l 704 975 l 600 986 l 599 1053 l 938 1053 l 938 986 l 826 975 l 508 608 q 678 353 551 560 q 806 151 760 218 q 869 83 851 83 l 979 58 l 979 0 l 769 0 q 719 53 753 0 q 613 233 686 106 q 507 417 550 346 q 432 519 464 488 l 318 389 l 318 76 l 443 58 l 443 0 l 72 0 l 72 58 l 186 78 z "},"Ķ":{"ha":963,"x_min":72,"x_max":979,"o":"m 72 0 m 186 78 l 186 975 l 75 986 l 75 1053 l 429 1053 l 429 986 l 318 975 l 318 507 l 704 975 l 600 986 l 599 1053 l 938 1053 l 938 986 l 826 975 l 508 608 q 678 353 551 560 q 806 151 760 218 q 869 83 851 83 l 979 58 l 979 0 l 769 0 q 719 53 753 0 q 613 233 686 106 q 507 417 550 346 q 432 519 464 488 l 318 389 l 318 76 l 443 58 l 443 0 l 72 0 l 72 58 l 186 78 m 554 -28 q 657 -96 621 -46 q 693 -200 693 -146 q 665 -308 693 -257 q 597 -392 638 -358 q 524 -435 557 -425 l 486 -400 l 486 -382 q 538 -322 522 -365 q 554 -228 554 -279 q 542 -181 554 -203 q 514 -147 531 -160 q 485 -135 497 -135 l 485 -99 l 554 -28 z "},"L":{"ha":843,"x_min":72,"x_max":824,"o":"m 186 78 l 186 968 l 75 979 l 75 1053 l 439 1053 l 439 979 l 319 968 l 318 76 l 681 92 l 764 254 l 824 225 l 779 0 l 72 0 l 72 58 l 186 78 z "},"Ĺ":{"ha":843,"x_min":72,"x_max":824,"o":"m 72 0 m 186 78 l 186 968 l 75 979 l 75 1053 l 439 1053 l 439 979 l 319 968 l 318 76 l 681 92 l 764 254 l 824 225 l 779 0 l 72 0 l 72 58 l 186 78 m 419 1303 l 519 1201 q 383 1130 456 1160 q 249 1090 311 1100 l 213 1126 l 419 1303 z "},"Ľ":{"ha":843,"x_min":72,"x_max":824,"o":"m 72 0 m 186 78 l 186 968 l 75 979 l 75 1053 l 439 1053 l 439 979 l 319 968 l 318 76 l 681 92 l 764 254 l 824 225 l 779 0 l 72 0 l 72 58 l 186 78 m 567 746 q 589 913 589 824 q 578 1019 589 969 q 554 1086 567 1069 l 564 1115 l 669 1142 q 701 1077 689 1122 q 714 982 714 1032 q 688 817 714 900 q 625 704 661 735 l 569 728 l 567 746 z "},"Ļ":{"ha":843,"x_min":72,"x_max":824,"o":"m 72 0 m 186 78 l 186 968 l 75 979 l 75 1053 l 439 1053 l 439 979 l 319 968 l 318 76 l 681 92 l 764 254 l 824 225 l 779 0 l 72 0 l 72 58 l 186 78 m 404 -28 q 507 -96 471 -46 q 543 -200 543 -146 q 515 -308 543 -257 q 447 -392 488 -358 q 374 -435 407 -425 l 336 -400 l 336 -382 q 388 -322 372 -365 q 404 -228 404 -279 q 392 -181 404 -203 q 364 -147 381 -160 q 335 -135 347 -135 l 335 -99 l 404 -28 z "},"Ŀ":{"ha":944,"x_min":72,"x_max":911,"o":"m 439 979 l 319 968 l 318 76 l 681 92 l 764 254 l 824 225 l 779 0 l 72 0 l 72 58 l 186 78 l 186 968 l 75 979 l 75 1053 l 439 1053 l 439 979 m 825 665 q 890 642 868 665 q 911 581 911 618 q 881 510 911 538 q 810 483 850 483 q 749 506 775 483 q 724 567 724 529 q 756 636 724 607 q 825 665 788 665 z "},"Ł":{"ha":843,"x_min":65,"x_max":824,"o":"m 439 979 l 319 968 l 318 535 l 568 635 l 689 682 l 689 574 l 318 432 l 318 76 l 681 92 l 764 254 l 824 225 l 779 0 l 72 0 l 72 58 l 186 78 l 186 382 l 65 336 l 65 385 l 65 435 l 186 483 l 186 968 l 75 979 l 75 1053 l 439 1053 l 439 979 z "},"M":{"ha":1340,"x_min":53,"x_max":1311,"o":"m 169 78 l 236 968 l 104 979 l 104 1053 l 417 1053 l 661 314 l 693 214 l 724 317 l 957 1053 l 1244 1053 l 1244 979 l 1118 968 l 1194 78 l 1311 58 l 1311 0 l 958 0 l 958 58 l 1071 78 l 1014 713 l 1008 947 l 981 836 l 694 -10 l 649 -10 l 389 732 l 332 899 l 314 954 l 308 722 l 275 78 l 404 58 l 404 0 l 53 0 l 53 58 l 169 78 z "},"N":{"ha":1128,"x_min":71,"x_max":1075,"o":"m 1075 981 l 963 968 l 963 0 l 824 0 l 376 706 l 283 894 l 283 78 l 415 58 l 415 0 l 71 0 l 71 58 l 186 78 l 186 968 l 75 979 l 75 1053 l 315 1053 l 769 311 l 865 125 l 865 968 l 754 981 l 754 1053 l 1075 1053 l 1075 981 z "},"Ń":{"ha":1128,"x_min":71,"x_max":1075,"o":"m 71 0 m 1075 981 l 963 968 l 963 0 l 824 0 l 376 706 l 283 894 l 283 78 l 415 58 l 415 0 l 71 0 l 71 58 l 186 78 l 186 968 l 75 979 l 75 1053 l 315 1053 l 769 311 l 865 125 l 865 968 l 754 981 l 754 1053 l 1075 1053 l 1075 981 m 728 1303 l 828 1201 q 692 1130 764 1160 q 557 1090 619 1100 l 521 1126 l 728 1303 z "},"Ň":{"ha":1128,"x_min":71,"x_max":1075,"o":"m 71 0 m 1075 981 l 963 968 l 963 0 l 824 0 l 376 706 l 283 894 l 283 78 l 415 58 l 415 0 l 71 0 l 71 58 l 186 78 l 186 968 l 75 979 l 75 1053 l 315 1053 l 769 311 l 865 125 l 865 968 l 754 981 l 754 1053 l 1075 1053 l 1075 981 m 421 1303 l 586 1188 l 756 1303 l 808 1271 l 650 1096 l 522 1096 l 361 1269 l 421 1303 z "},"Ņ":{"ha":1128,"x_min":71,"x_max":1075,"o":"m 71 0 m 1075 981 l 963 968 l 963 0 l 824 0 l 376 706 l 283 894 l 283 78 l 415 58 l 415 0 l 71 0 l 71 58 l 186 78 l 186 968 l 75 979 l 75 1053 l 315 1053 l 769 311 l 865 125 l 865 968 l 754 981 l 754 1053 l 1075 1053 l 1075 981 m 576 -28 q 679 -96 643 -46 q 715 -200 715 -146 q 688 -308 715 -257 q 619 -392 660 -358 q 546 -435 579 -425 l 508 -400 l 508 -382 q 560 -322 544 -365 q 576 -228 576 -279 q 565 -181 576 -203 q 536 -147 553 -160 q 507 -135 519 -135 l 507 -99 l 576 -28 z "},"Ñ":{"ha":1128,"x_min":71,"x_max":1075,"o":"m 71 0 m 1075 981 l 963 968 l 963 0 l 824 0 l 376 706 l 283 894 l 283 78 l 415 58 l 415 0 l 71 0 l 71 58 l 186 78 l 186 968 l 75 979 l 75 1053 l 315 1053 l 769 311 l 865 125 l 865 968 l 754 981 l 754 1053 l 1075 1053 l 1075 981 m 293 1186 q 374 1269 319 1235 q 481 1303 428 1303 q 535 1290 513 1303 q 583 1254 557 1278 q 621 1226 606 1235 q 657 1217 636 1217 q 782 1272 726 1217 l 818 1222 q 738 1140 792 1174 q 631 1106 683 1106 q 577 1118 599 1106 q 528 1156 556 1131 q 490 1185 504 1176 q 454 1194 475 1194 q 386 1177 421 1194 q 328 1138 351 1160 l 293 1186 z "},"O":{"ha":1054,"x_min":61,"x_max":997,"o":"m 561 1063 q 792 996 693 1063 q 944 813 890 929 q 997 549 997 696 q 933 246 997 375 q 759 49 869 117 q 515 -19 649 -19 q 276 47 379 -19 q 117 231 174 114 q 61 496 61 349 q 133 808 61 676 q 324 1004 206 940 q 561 1063 432 1063 m 533 990 q 361 933 435 990 q 247 768 288 876 q 207 511 207 660 q 247 285 207 390 q 361 117 286 181 q 536 53 436 53 q 767 180 685 53 q 850 533 850 307 q 813 759 850 654 q 705 927 776 864 q 533 990 633 990 z "},"Ó":{"ha":1054,"x_min":61,"x_max":1000,"o":"m 800 1201 q 663 1130 735 1160 q 529 1090 592 1100 l 493 1126 l 701 1303 l 800 1201 m 561 1063 q 794 994 694 1063 q 947 805 894 925 q 997 535 1000 685 q 928 239 993 364 q 756 47 864 114 q 515 -19 647 -19 q 276 47 379 -19 q 117 231 174 114 q 61 496 61 349 q 128 799 61 671 q 308 995 194 928 q 561 1063 422 1063 m 533 990 q 361 933 435 990 q 247 768 288 876 q 207 511 207 660 q 247 285 207 390 q 361 117 286 181 q 536 53 436 53 q 767 180 685 53 q 850 533 850 307 q 813 759 850 654 q 705 927 776 864 q 533 990 633 990 z "},"Ô":{"ha":1054,"x_min":61,"x_max":1000,"o":"m 774 1129 l 715 1096 l 536 1210 l 353 1096 l 300 1128 l 471 1303 l 600 1303 l 774 1129 m 561 1063 q 794 994 694 1063 q 947 805 894 925 q 997 535 1000 685 q 928 239 993 364 q 756 47 864 114 q 515 -19 647 -19 q 276 47 379 -19 q 117 231 174 114 q 61 496 61 349 q 128 799 61 671 q 308 995 194 928 q 561 1063 422 1063 m 533 990 q 361 933 435 990 q 247 768 288 876 q 207 511 207 660 q 247 285 207 390 q 361 117 286 181 q 536 53 436 53 q 767 180 685 53 q 850 533 850 307 q 813 759 850 654 q 705 927 776 864 q 533 990 633 990 z "},"Ö":{"ha":1054,"x_min":61,"x_max":997,"o":"m 61 0 m 561 1063 q 792 996 693 1063 q 944 813 890 929 q 997 549 997 696 q 933 246 997 375 q 759 49 869 117 q 515 -19 649 -19 q 276 47 379 -19 q 117 231 174 114 q 61 496 61 349 q 133 808 61 676 q 324 1004 206 940 q 561 1063 432 1063 m 533 990 q 361 933 435 990 q 247 768 288 876 q 207 511 207 660 q 247 285 207 390 q 361 117 286 181 q 536 53 436 53 q 767 180 685 53 q 850 533 850 307 q 813 759 850 654 q 705 927 776 864 q 533 990 633 990 m 385 1303 q 449 1279 428 1303 q 471 1218 471 1256 q 440 1147 471 1175 q 369 1119 408 1119 q 309 1142 335 1119 q 283 1203 283 1165 q 315 1274 283 1244 q 385 1303 347 1303 m 700 1303 q 765 1279 743 1303 q 786 1218 786 1256 q 756 1147 786 1175 q 685 1119 725 1119 q 625 1142 650 1119 q 600 1203 600 1165 q 631 1274 600 1244 q 700 1303 663 1303 z "},"Ò":{"ha":1054,"x_min":61,"x_max":997,"o":"m 61 0 m 561 1063 q 792 996 693 1063 q 944 813 890 929 q 997 549 997 696 q 933 246 997 375 q 759 49 869 117 q 515 -19 649 -19 q 276 47 379 -19 q 117 231 174 114 q 61 496 61 349 q 133 808 61 676 q 324 1004 206 940 q 561 1063 432 1063 m 533 990 q 361 933 435 990 q 247 768 288 876 q 207 511 207 660 q 247 285 207 390 q 361 117 286 181 q 536 53 436 53 q 767 180 685 53 q 850 533 850 307 q 813 759 850 654 q 705 927 776 864 q 533 990 633 990 m 543 1090 q 409 1130 481 1100 q 272 1201 338 1160 l 371 1303 l 579 1126 l 543 1090 z "},"Ő":{"ha":1054,"x_min":61,"x_max":997,"o":"m 61 0 m 561 1063 q 792 996 693 1063 q 944 813 890 929 q 997 549 997 696 q 933 246 997 375 q 759 49 869 117 q 515 -19 649 -19 q 276 47 379 -19 q 117 231 174 114 q 61 496 61 349 q 133 808 61 676 q 324 1004 206 940 q 561 1063 432 1063 m 533 990 q 361 933 435 990 q 247 768 288 876 q 207 511 207 660 q 247 285 207 390 q 361 117 286 181 q 536 53 436 53 q 767 180 685 53 q 850 533 850 307 q 813 759 850 654 q 705 927 776 864 q 533 990 633 990 m 547 1394 l 632 1314 q 506 1186 589 1257 q 364 1075 424 1115 l 328 1113 l 547 1394 m 879 1394 l 965 1314 q 838 1185 921 1257 q 696 1075 756 1114 l 660 1113 l 879 1394 z "},"Ō":{"ha":1058,"x_min":61,"x_max":997,"o":"m 61 0 m 708 1289 l 708 1189 l 349 1189 l 349 1289 l 708 1289 m 561 1063 q 792 996 693 1063 q 944 813 890 929 q 997 549 997 696 q 933 246 997 375 q 759 49 869 117 q 515 -19 649 -19 q 276 47 379 -19 q 117 231 174 114 q 61 496 61 349 q 133 808 61 676 q 324 1004 206 940 q 561 1063 432 1063 m 533 990 q 361 933 435 990 q 247 768 288 876 q 207 511 207 660 q 247 285 207 390 q 361 117 286 181 q 536 53 436 53 q 767 180 685 53 q 850 533 850 307 q 813 759 850 654 q 705 927 776 864 q 533 990 633 990 z "},"Ø":{"ha":1054,"x_min":61,"x_max":1000,"o":"m 343 13 q 136 194 211 67 q 61 493 61 322 q 128 799 61 669 q 310 995 196 928 q 565 1063 425 1063 q 701 1040 635 1063 l 740 1149 l 796 1125 l 758 1015 q 937 826 874 954 q 997 535 1000 699 q 930 242 993 367 q 761 51 867 118 q 525 -19 656 -17 q 404 -7 461 -19 l 360 -135 l 300 -112 l 343 13 m 669 953 q 533 990 606 990 q 361 933 435 990 q 247 768 288 876 q 207 511 207 660 q 251 272 207 382 q 376 103 296 161 l 669 953 m 433 72 q 536 53 478 53 q 767 180 685 53 q 850 533 850 307 q 817 749 850 649 q 721 913 783 850 l 433 72 z "},"Õ":{"ha":1054,"x_min":61,"x_max":997,"o":"m 61 0 m 561 1063 q 792 996 693 1063 q 944 813 890 929 q 997 549 997 696 q 933 246 997 375 q 759 49 869 117 q 515 -19 649 -19 q 276 47 379 -19 q 117 231 174 114 q 61 496 61 349 q 133 808 61 676 q 324 1004 206 940 q 561 1063 432 1063 m 533 990 q 361 933 435 990 q 247 768 288 876 q 207 511 207 660 q 247 285 207 390 q 361 117 286 181 q 536 53 436 53 q 767 180 685 53 q 850 533 850 307 q 813 759 850 654 q 705 927 776 864 q 533 990 633 990 m 265 1186 q 346 1269 292 1235 q 453 1303 400 1303 q 507 1290 485 1303 q 556 1254 529 1278 q 593 1226 578 1235 q 629 1217 608 1217 q 754 1272 699 1217 l 790 1222 q 710 1140 764 1174 q 603 1106 656 1106 q 549 1118 571 1106 q 500 1156 528 1131 q 462 1185 476 1176 q 426 1194 447 1194 q 358 1177 393 1194 q 300 1138 324 1160 l 265 1186 z "},"Œ":{"ha":1403,"x_min":58,"x_max":1363,"o":"m 560 1063 q 651 1053 597 1063 l 1293 1053 l 1313 860 l 1239 860 l 1207 974 l 849 982 l 849 588 l 1099 593 l 1119 699 l 1188 699 l 1188 407 l 1119 407 l 1099 511 l 849 515 l 849 74 l 1229 86 l 1297 226 l 1363 210 l 1332 0 l 649 0 q 525 -19 594 -15 q 278 46 385 -22 q 115 235 172 114 q 61 510 58 357 q 131 806 64 681 q 311 997 199 931 q 560 1063 424 1063 m 533 990 q 361 933 435 990 q 247 768 288 876 q 207 511 207 660 q 247 285 207 390 q 361 117 286 181 q 536 53 436 53 q 718 119 640 53 l 718 915 q 533 990 639 990 z "},"P":{"ha":879,"x_min":58,"x_max":849,"o":"m 186 78 l 186 968 l 75 979 l 75 1053 l 253 1053 q 333 1057 283 1053 q 494 1063 431 1063 q 756 992 664 1063 q 849 749 849 921 q 795 566 849 644 q 654 446 742 488 q 468 404 567 404 l 401 404 q 318 400 339 404 l 318 78 l 500 58 l 500 0 l 58 0 l 58 58 l 186 78 m 318 481 q 454 472 371 472 q 642 531 571 472 q 714 746 714 589 q 644 931 714 869 q 443 988 575 992 q 396 985 436 988 q 318 974 356 982 l 318 481 z "},"Þ":{"ha":879,"x_min":58,"x_max":849,"o":"m 186 78 l 186 975 l 68 986 l 68 1053 l 436 1053 l 436 986 l 318 975 l 318 835 l 357 839 q 494 850 446 850 q 752 776 656 850 q 849 558 849 701 q 795 378 849 454 q 655 261 742 301 q 468 221 568 221 q 318 224 379 221 l 318 78 l 500 58 l 500 0 l 58 0 l 58 58 l 186 78 m 318 297 q 454 289 371 289 q 641 349 568 289 q 714 556 714 408 q 648 716 714 657 q 463 775 582 775 q 318 756 401 775 l 318 297 z "},"Q":{"ha":1054,"x_min":58,"x_max":997,"o":"m 561 1063 q 792 996 693 1063 q 944 813 890 929 q 997 549 997 696 q 948 280 997 397 q 813 89 899 163 q 615 -8 726 15 q 883 -129 665 -129 q 978 -107 943 -129 l 990 -190 q 935 -226 976 -211 q 839 -242 893 -242 q 650 -192 728 -242 q 540 -19 572 -143 l 525 -19 q 278 49 385 -19 q 115 234 172 117 q 61 496 58 351 q 133 808 61 676 q 324 1004 206 940 q 561 1063 432 1063 m 533 990 q 361 933 435 990 q 247 768 288 876 q 207 511 207 660 q 247 285 207 390 q 361 117 286 181 q 536 53 436 53 q 767 180 685 53 q 850 533 850 307 q 813 759 850 654 q 705 927 776 864 q 533 990 633 990 z "},"R":{"ha":963,"x_min":58,"x_max":972,"o":"m 457 1063 q 720 999 628 1063 q 813 782 813 936 q 751 598 813 678 q 586 483 689 518 l 600 478 q 691 392 647 454 q 788 231 735 329 q 853 120 828 157 q 899 78 878 83 l 972 58 l 972 0 l 776 0 q 736 37 758 0 q 671 161 714 74 q 592 315 626 254 q 514 419 557 376 q 428 457 471 461 q 318 456 396 456 l 318 78 l 460 58 l 460 0 l 58 0 l 58 58 l 186 78 l 186 968 l 75 979 l 75 1053 l 253 1053 q 319 1057 281 1053 q 457 1063 394 1063 m 439 990 q 404 989 428 989 q 318 979 343 986 l 318 532 q 439 528 351 528 q 613 586 551 528 q 675 767 675 644 q 621 937 675 878 q 439 990 567 996 z "},"Ŕ":{"ha":963,"x_min":58,"x_max":972,"o":"m 58 0 m 457 1063 q 720 999 628 1063 q 813 782 813 936 q 751 598 813 678 q 586 483 689 518 l 600 478 q 691 392 647 454 q 788 231 735 329 q 853 120 828 157 q 899 78 878 83 l 972 58 l 972 0 l 776 0 q 736 37 758 0 q 671 161 714 74 q 592 315 626 254 q 514 419 557 376 q 428 457 471 461 q 318 456 396 456 l 318 78 l 460 58 l 460 0 l 58 0 l 58 58 l 186 78 l 186 968 l 75 979 l 75 1053 l 253 1053 q 319 1057 281 1053 q 457 1063 394 1063 m 439 990 q 404 989 428 989 q 318 979 343 986 l 318 532 q 439 528 351 528 q 613 586 551 528 q 675 767 675 644 q 621 937 675 878 q 439 990 567 996 m 638 1303 l 738 1201 q 601 1130 674 1160 q 467 1090 529 1100 l 431 1126 l 638 1303 z "},"Ř":{"ha":963,"x_min":58,"x_max":972,"o":"m 58 0 m 457 1063 q 720 999 628 1063 q 813 782 813 936 q 751 598 813 678 q 586 483 689 518 l 600 478 q 691 392 647 454 q 788 231 735 329 q 853 120 828 157 q 899 78 878 83 l 972 58 l 972 0 l 776 0 q 736 37 758 0 q 671 161 714 74 q 592 315 626 254 q 514 419 557 376 q 428 457 471 461 q 318 456 396 456 l 318 78 l 460 58 l 460 0 l 58 0 l 58 58 l 186 78 l 186 968 l 75 979 l 75 1053 l 253 1053 q 319 1057 281 1053 q 457 1063 394 1063 m 439 990 q 404 989 428 989 q 318 979 343 986 l 318 532 q 439 528 351 528 q 613 586 551 528 q 675 767 675 644 q 621 937 675 878 q 439 990 567 996 m 310 1303 l 475 1188 l 644 1303 l 697 1271 l 539 1096 l 411 1096 l 250 1269 l 310 1303 z "},"Ŗ":{"ha":963,"x_min":58,"x_max":972,"o":"m 58 0 m 457 1063 q 720 999 628 1063 q 813 782 813 936 q 751 598 813 678 q 586 483 689 518 l 600 478 q 691 392 647 454 q 788 231 735 329 q 853 120 828 157 q 899 78 878 83 l 972 58 l 972 0 l 776 0 q 736 37 758 0 q 671 161 714 74 q 592 315 626 254 q 514 419 557 376 q 428 457 471 461 q 318 456 396 456 l 318 78 l 460 58 l 460 0 l 58 0 l 58 58 l 186 78 l 186 968 l 75 979 l 75 1053 l 253 1053 q 319 1057 281 1053 q 457 1063 394 1063 m 439 990 q 404 989 428 989 q 318 979 343 986 l 318 532 q 439 528 351 528 q 613 586 551 528 q 675 767 675 644 q 621 937 675 878 q 439 990 567 996 m 515 -28 q 618 -96 582 -46 q 654 -200 654 -146 q 626 -308 654 -257 q 558 -392 599 -358 q 485 -435 518 -425 l 447 -400 l 447 -382 q 499 -322 483 -365 q 515 -228 515 -279 q 503 -181 515 -203 q 475 -147 492 -160 q 446 -135 458 -135 l 446 -99 l 515 -28 z "},"S":{"ha":833,"x_min":104,"x_max":764,"o":"m 414 -15 q 228 3 319 -15 q 104 42 138 22 l 104 260 l 164 260 l 207 125 q 432 53 275 53 q 577 98 515 53 q 639 232 639 143 q 606 330 639 286 q 523 408 572 374 q 390 489 474 442 q 245 577 303 536 q 149 674 188 618 q 111 801 111 731 q 162 949 111 890 q 288 1035 213 1007 q 438 1063 363 1063 q 597 1047 528 1063 q 700 1011 665 1031 l 700 822 l 642 822 l 589 953 q 522 985 565 974 q 428 996 479 996 q 340 979 385 996 q 265 924 296 963 q 233 824 233 885 q 292 701 233 754 q 461 590 351 647 q 619 497 560 538 q 722 400 679 457 q 764 269 764 343 q 665 56 764 126 q 414 -15 565 -15 z "},"Ś":{"ha":833,"x_min":104,"x_max":764,"o":"m 104 0 m 414 -15 q 228 3 319 -15 q 104 42 138 22 l 104 260 l 164 260 l 207 125 q 432 53 275 53 q 577 98 515 53 q 639 232 639 143 q 606 330 639 286 q 523 408 572 374 q 390 489 474 442 q 245 577 303 536 q 149 674 188 618 q 111 801 111 731 q 162 949 111 890 q 288 1035 213 1007 q 438 1063 363 1063 q 597 1047 528 1063 q 700 1011 665 1031 l 700 822 l 642 822 l 589 953 q 522 985 565 974 q 428 996 479 996 q 340 979 385 996 q 265 924 296 963 q 233 824 233 885 q 292 701 233 754 q 461 590 351 647 q 619 497 560 538 q 722 400 679 457 q 764 269 764 343 q 665 56 764 126 q 414 -15 565 -15 m 522 1303 l 622 1201 q 486 1130 558 1160 q 351 1090 414 1100 l 315 1126 l 522 1303 z "},"Š":{"ha":833,"x_min":104,"x_max":764,"o":"m 104 0 m 414 -15 q 228 3 319 -15 q 104 42 138 22 l 104 260 l 164 260 l 207 125 q 432 53 275 53 q 577 98 515 53 q 639 232 639 143 q 606 330 639 286 q 523 408 572 374 q 390 489 474 442 q 245 577 303 536 q 149 674 188 618 q 111 801 111 731 q 162 949 111 890 q 288 1035 213 1007 q 438 1063 363 1063 q 597 1047 528 1063 q 700 1011 665 1031 l 700 822 l 642 822 l 589 953 q 522 985 565 974 q 428 996 479 996 q 340 979 385 996 q 265 924 296 963 q 233 824 233 885 q 292 701 233 754 q 461 590 351 647 q 619 497 560 538 q 722 400 679 457 q 764 269 764 343 q 665 56 764 126 q 414 -15 565 -15 m 271 1303 l 436 1188 l 606 1303 l 658 1271 l 500 1096 l 372 1096 l 211 1269 l 271 1303 z "},"Ş":{"ha":833,"x_min":104,"x_max":764,"o":"m 763 271 q 669 61 763 132 q 432 -14 576 -10 q 431 -49 431 -25 q 432 -83 431 -72 q 561 -122 518 -83 q 604 -211 604 -161 q 557 -314 604 -276 q 433 -356 510 -351 l 400 -357 q 331 -350 356 -357 q 299 -342 306 -343 l 300 -274 q 338 -281 315 -278 q 376 -283 360 -283 q 447 -269 422 -283 q 471 -208 471 -254 q 444 -158 471 -176 q 365 -140 418 -140 q 344 -142 353 -140 q 332 -143 335 -143 q 351 -12 332 -90 q 202 10 272 -7 q 104 42 132 26 l 104 260 l 164 260 l 207 125 q 432 53 275 53 q 577 98 515 53 q 639 232 639 143 q 606 330 639 286 q 523 408 572 374 q 390 489 474 442 q 245 577 303 536 q 149 674 188 618 q 111 801 111 731 q 162 949 111 890 q 288 1035 213 1007 q 438 1063 363 1063 q 597 1047 528 1063 q 700 1011 665 1031 l 700 822 l 642 822 l 589 953 q 522 985 565 974 q 428 996 479 996 q 340 979 385 996 q 265 924 296 963 q 233 824 233 885 q 292 701 233 754 q 461 590 351 647 q 619 497 560 538 q 722 400 679 457 q 764 269 764 343 l 763 271 z "},"Ș":{"ha":833,"x_min":104,"x_max":764,"o":"m 104 0 m 414 -15 q 228 3 319 -15 q 104 42 138 22 l 104 260 l 164 260 l 207 125 q 432 53 275 53 q 577 98 515 53 q 639 232 639 143 q 606 330 639 286 q 523 408 572 374 q 390 489 474 442 q 245 577 303 536 q 149 674 188 618 q 111 801 111 731 q 162 949 111 890 q 288 1035 213 1007 q 438 1063 363 1063 q 597 1047 528 1063 q 700 1011 665 1031 l 700 822 l 642 822 l 589 953 q 522 985 565 974 q 428 996 479 996 q 340 979 385 996 q 265 924 296 963 q 233 824 233 885 q 292 701 233 754 q 461 590 351 647 q 619 497 560 538 q 722 400 679 457 q 764 269 764 343 q 665 56 764 126 q 414 -15 565 -15 m 394 -43 q 497 -111 461 -61 q 533 -215 533 -161 q 506 -323 533 -272 q 438 -407 478 -374 q 364 -450 397 -440 l 326 -415 l 326 -397 q 378 -337 363 -381 q 394 -243 394 -294 q 383 -197 394 -218 q 354 -162 371 -175 q 325 -150 338 -150 l 325 -114 l 394 -43 z "},"T":{"ha":861,"x_min":21,"x_max":844,"o":"m 376 78 l 376 978 l 129 964 l 82 849 l 21 847 l 38 1053 l 844 1053 l 843 844 l 788 839 l 753 965 l 508 978 l 508 78 l 685 58 l 685 0 l 210 0 l 210 58 l 376 78 z "},"Ť":{"ha":833,"x_min":21,"x_max":844,"o":"m 21 0 m 274 1303 l 439 1188 l 608 1303 l 661 1271 l 503 1096 l 375 1096 l 214 1269 l 274 1303 m 376 78 l 376 978 l 129 964 l 82 849 l 21 847 l 38 1053 l 844 1053 l 843 844 l 788 839 l 753 965 l 508 978 l 508 78 l 685 58 l 685 0 l 210 0 l 210 58 l 376 78 z "},"Ț":{"ha":861,"x_min":21,"x_max":844,"o":"m 21 0 m 376 78 l 376 978 l 129 964 l 82 849 l 21 847 l 38 1053 l 844 1053 l 843 844 l 788 839 l 753 965 l 508 978 l 508 78 l 685 58 l 685 0 l 210 0 l 210 58 l 376 78 m 422 -28 q 525 -96 489 -46 q 561 -200 561 -146 q 533 -308 561 -257 q 465 -392 506 -358 q 392 -435 425 -425 l 354 -400 l 354 -382 q 406 -322 390 -365 q 422 -228 422 -279 q 410 -181 422 -203 q 382 -147 399 -160 q 353 -135 365 -135 l 353 -99 l 422 -28 z "},"U":{"ha":1069,"x_min":22,"x_max":1047,"o":"m 1047 986 l 940 974 l 940 465 q 835 101 940 221 q 547 -19 729 -19 q 226 96 322 -19 q 129 449 129 211 l 131 975 l 22 986 l 22 1053 l 383 1053 l 383 986 l 263 974 l 263 444 q 344 140 263 229 q 569 51 425 51 q 773 159 707 51 q 839 465 839 267 l 839 974 l 715 986 l 715 1053 l 1047 1053 l 1047 986 z "},"Ú":{"ha":1069,"x_min":22,"x_max":1047,"o":"m 22 0 m 1047 986 l 940 974 l 940 465 q 835 101 940 221 q 547 -19 729 -19 q 226 96 322 -19 q 129 449 129 211 l 131 975 l 22 986 l 22 1053 l 383 1053 l 383 986 l 263 974 l 263 444 q 344 140 263 229 q 569 51 425 51 q 773 159 707 51 q 839 465 839 267 l 839 974 l 715 986 l 715 1053 l 1047 1053 l 1047 986 m 722 1303 l 822 1201 q 686 1130 758 1160 q 551 1090 614 1100 l 515 1126 l 722 1303 z "},"Û":{"ha":1069,"x_min":22,"x_max":1047,"o":"m 796 1129 l 736 1096 l 557 1210 l 375 1096 l 321 1128 l 493 1303 l 621 1303 l 796 1129 m 1047 986 l 940 974 l 940 465 q 835 101 940 221 q 547 -19 729 -19 q 226 96 322 -19 q 129 449 129 211 l 131 975 l 22 986 l 22 1053 l 383 1053 l 383 986 l 263 974 l 263 444 q 344 140 263 229 q 569 51 425 51 q 773 159 707 51 q 839 465 839 267 l 839 974 l 715 986 l 715 1053 l 1047 1053 l 1047 986 z "},"Ü":{"ha":1069,"x_min":22,"x_max":1047,"o":"m 22 0 m 1047 986 l 940 974 l 940 465 q 835 101 940 221 q 547 -19 729 -19 q 226 96 322 -19 q 129 449 129 211 l 131 975 l 22 986 l 22 1053 l 383 1053 l 383 986 l 263 974 l 263 444 q 344 140 263 229 q 569 51 425 51 q 773 159 707 51 q 839 465 839 267 l 839 974 l 715 986 l 715 1053 l 1047 1053 l 1047 986 m 406 1303 q 470 1279 449 1303 q 492 1218 492 1256 q 460 1147 492 1175 q 390 1119 429 1119 q 330 1142 356 1119 q 304 1203 304 1165 q 336 1274 304 1244 q 406 1303 368 1303 m 721 1303 q 785 1279 764 1303 q 807 1218 807 1256 q 776 1147 807 1175 q 706 1119 746 1119 q 646 1142 671 1119 q 621 1203 621 1165 q 652 1274 621 1244 q 721 1303 683 1303 z "},"Ù":{"ha":1069,"x_min":22,"x_max":1047,"o":"m 22 0 m 1047 986 l 940 974 l 940 465 q 835 101 940 221 q 547 -19 729 -19 q 226 96 322 -19 q 129 449 129 211 l 131 975 l 22 986 l 22 1053 l 383 1053 l 383 986 l 263 974 l 263 444 q 344 140 263 229 q 569 51 425 51 q 773 159 707 51 q 839 465 839 267 l 839 974 l 715 986 l 715 1053 l 1047 1053 l 1047 986 m 565 1090 q 431 1130 503 1100 q 294 1201 360 1160 l 393 1303 l 601 1126 l 565 1090 z "},"Ű":{"ha":1069,"x_min":22,"x_max":1047,"o":"m 22 0 m 1047 986 l 940 974 l 940 465 q 835 101 940 221 q 547 -19 729 -19 q 226 96 322 -19 q 129 449 129 211 l 131 975 l 22 986 l 22 1053 l 383 1053 l 383 986 l 263 974 l 263 444 q 344 140 263 229 q 569 51 425 51 q 773 159 707 51 q 839 465 839 267 l 839 974 l 715 986 l 715 1053 l 1047 1053 l 1047 986 m 547 1394 l 632 1314 q 506 1186 589 1257 q 364 1075 424 1115 l 328 1113 l 547 1394 m 879 1394 l 965 1314 q 838 1185 921 1257 q 696 1075 756 1114 l 660 1113 l 879 1394 z "},"Ū":{"ha":1069,"x_min":22,"x_max":1047,"o":"m 22 0 m 1047 986 l 940 974 l 940 465 q 835 101 940 221 q 547 -19 729 -19 q 226 96 322 -19 q 129 449 129 211 l 131 975 l 22 986 l 22 1053 l 383 1053 l 383 986 l 263 974 l 263 444 q 344 140 263 229 q 569 51 425 51 q 773 159 707 51 q 839 465 839 267 l 839 974 l 715 986 l 715 1053 l 1047 1053 l 1047 986 m 735 1261 l 735 1161 l 375 1161 l 375 1261 l 735 1261 z "},"Ų":{"ha":1069,"x_min":22,"x_max":1047,"o":"m 1047 1054 l 1047 988 l 940 975 l 940 467 q 858 131 940 250 q 628 -12 775 13 q 520 -97 568 -43 q 472 -186 472 -150 q 491 -249 472 -228 q 556 -271 510 -271 q 599 -265 572 -271 q 643 -250 626 -258 l 657 -310 q 582 -344 629 -331 q 482 -357 535 -357 q 386 -321 425 -357 q 347 -226 347 -285 q 397 -117 347 -176 q 517 -18 447 -57 q 219 106 310 -10 q 129 449 129 221 l 131 975 l 22 986 l 22 1053 l 383 1053 l 383 986 l 263 974 l 263 444 q 344 140 263 229 q 569 51 425 51 q 773 159 707 51 q 839 465 839 267 l 839 974 l 715 986 l 715 1053 l 1047 1054 z "},"Ů":{"ha":1069,"x_min":22,"x_max":1047,"o":"m 22 0 m 1047 986 l 940 974 l 940 465 q 835 101 940 221 q 547 -19 729 -19 q 226 96 322 -19 q 129 449 129 211 l 131 975 l 22 986 l 22 1053 l 383 1053 l 383 986 l 263 974 l 263 444 q 344 140 263 229 q 569 51 425 51 q 773 159 707 51 q 839 465 839 267 l 839 974 l 715 986 l 715 1053 l 1047 1053 l 1047 986 m 550 1303 q 671 1256 621 1303 q 721 1142 721 1208 q 671 1028 721 1075 q 550 982 621 982 q 429 1028 479 982 q 379 1142 379 1074 q 429 1256 379 1210 q 550 1303 479 1303 m 550 1226 q 486 1201 513 1226 q 460 1140 460 1176 q 486 1078 460 1103 q 550 1054 513 1054 q 614 1078 588 1054 q 640 1140 640 1103 q 614 1201 640 1176 q 550 1226 588 1226 z "},"V":{"ha":967,"x_min":3,"x_max":963,"o":"m 3 986 l 3 1053 l 368 1053 l 368 986 l 246 975 l 475 281 l 522 132 l 563 282 l 765 975 l 654 986 l 654 1053 l 963 1053 l 963 986 l 881 976 l 551 -14 l 450 -14 l 93 976 l 3 986 z "},"W":{"ha":1425,"x_min":3,"x_max":1421,"o":"m 3 986 l 3 1053 l 367 1053 l 367 986 l 238 975 l 450 276 l 492 144 l 533 268 l 678 853 l 639 975 l 529 986 l 529 1053 l 899 1053 l 899 986 l 782 975 l 965 263 l 999 133 l 1033 289 l 1211 975 l 1093 986 l 1093 1053 l 1421 1053 l 1421 986 l 1321 975 l 1032 -14 l 922 -14 l 728 675 l 535 -14 l 424 -14 l 92 975 l 3 986 z "},"X":{"ha":963,"x_min":10,"x_max":967,"o":"m 131 78 l 421 529 l 136 975 l 35 986 l 35 1053 l 415 1053 l 415 986 l 294 975 l 507 610 l 717 975 l 613 986 l 613 1053 l 936 1053 l 936 986 l 839 976 l 556 556 l 854 78 l 967 58 l 967 0 l 576 0 l 576 58 l 703 78 l 465 463 l 253 78 l 382 58 l 382 0 l 10 0 l 10 58 l 131 78 z "},"Y":{"ha":917,"x_min":8,"x_max":908,"o":"m 411 79 l 411 433 l 86 975 l 8 986 l 8 1053 l 342 1053 l 342 986 l 238 975 l 453 574 l 486 504 l 517 575 l 711 974 l 596 986 l 596 1053 l 908 1053 l 908 986 l 819 968 l 543 432 l 543 79 l 689 58 l 689 0 l 272 0 l 272 58 l 411 79 z "},"Ý":{"ha":917,"x_min":8,"x_max":908,"o":"m 8 0 m 411 79 l 411 433 l 86 975 l 8 986 l 8 1053 l 342 1053 l 342 986 l 238 975 l 453 574 l 486 504 l 517 575 l 711 974 l 596 986 l 596 1053 l 908 1053 l 908 986 l 819 968 l 543 432 l 543 79 l 689 58 l 689 0 l 272 0 l 272 58 l 411 79 m 646 1303 l 746 1201 q 610 1130 682 1160 q 475 1090 538 1100 l 439 1126 l 646 1303 z "},"Ÿ":{"ha":917,"x_min":8,"x_max":908,"o":"m 8 0 m 411 79 l 411 433 l 86 975 l 8 986 l 8 1053 l 342 1053 l 342 986 l 238 975 l 453 574 l 486 504 l 517 575 l 711 974 l 596 986 l 596 1053 l 908 1053 l 908 986 l 819 968 l 543 432 l 543 79 l 689 58 l 689 0 l 272 0 l 272 58 l 411 79 m 331 1303 q 395 1279 374 1303 q 417 1218 417 1256 q 385 1147 417 1175 q 315 1119 354 1119 q 255 1142 281 1119 q 229 1203 229 1165 q 261 1274 229 1244 q 331 1303 293 1303 m 646 1303 q 710 1279 689 1303 q 732 1218 732 1256 q 701 1147 732 1175 q 631 1119 671 1119 q 571 1142 596 1119 q 546 1203 546 1165 q 577 1274 546 1244 q 646 1303 608 1303 z "},"Z":{"ha":917,"x_min":63,"x_max":882,"o":"m 869 994 l 285 157 l 218 75 l 726 101 l 814 274 l 882 258 l 833 0 l 81 0 l 63 60 l 651 897 l 721 979 l 238 964 l 174 810 l 101 822 l 122 1053 l 850 1053 l 869 994 z "},"Ź":{"ha":917,"x_min":63,"x_max":882,"o":"m 63 0 m 869 994 l 285 157 l 218 75 l 726 101 l 814 274 l 882 258 l 833 0 l 81 0 l 63 60 l 651 897 l 721 979 l 238 964 l 174 810 l 101 822 l 122 1053 l 850 1053 l 869 994 m 665 1303 l 765 1201 q 629 1130 701 1160 q 494 1090 557 1100 l 458 1126 l 665 1303 z "},"Ž":{"ha":917,"x_min":63,"x_max":882,"o":"m 63 0 m 869 994 l 285 157 l 218 75 l 726 101 l 814 274 l 882 258 l 833 0 l 81 0 l 63 60 l 651 897 l 721 979 l 238 964 l 174 810 l 101 822 l 122 1053 l 850 1053 l 869 994 m 336 1303 l 501 1188 l 671 1303 l 724 1271 l 565 1096 l 438 1096 l 276 1269 l 336 1303 z "},"Ż":{"ha":917,"x_min":63,"x_max":882,"o":"m 63 0 m 869 994 l 285 157 l 218 75 l 726 101 l 814 274 l 882 258 l 833 0 l 81 0 l 63 60 l 651 897 l 721 979 l 238 964 l 174 810 l 101 822 l 122 1053 l 850 1053 l 869 994 m 506 1303 q 570 1279 549 1303 q 592 1218 592 1256 q 560 1147 592 1175 q 490 1119 529 1119 q 430 1142 456 1119 q 404 1203 404 1165 q 436 1274 404 1244 q 506 1303 468 1303 z "},"a":{"ha":776,"x_min":79,"x_max":733,"o":"m 382 772 q 576 717 503 772 q 649 524 649 661 l 647 58 l 733 58 l 733 13 q 674 -8 708 0 q 606 -17 639 -17 q 541 3 557 -17 q 525 74 525 22 q 299 -17 451 -17 q 185 11 235 -17 q 107 87 135 39 q 79 192 79 135 q 149 343 79 285 q 320 426 219 401 q 518 451 421 451 l 518 510 q 469 645 518 608 q 332 682 421 682 q 236 667 292 682 q 135 631 181 653 l 110 692 q 238 751 156 729 q 382 772 321 772 m 518 381 q 308 342 404 381 q 211 215 211 304 q 252 104 211 139 q 372 69 293 69 q 452 88 410 69 q 517 128 494 106 l 518 381 z "},"á":{"ha":776,"x_min":79,"x_max":733,"o":"m 79 0 m 382 772 q 576 717 503 772 q 649 524 649 661 l 647 58 l 733 58 l 733 13 q 674 -8 708 0 q 606 -17 639 -17 q 541 3 557 -17 q 525 74 525 22 q 299 -17 451 -17 q 185 11 235 -17 q 107 87 135 39 q 79 192 79 135 q 149 343 79 285 q 320 426 219 401 q 518 451 421 451 l 518 510 q 469 645 518 608 q 332 682 421 682 q 236 667 292 682 q 135 631 181 653 l 110 692 q 238 751 156 729 q 382 772 321 772 m 518 381 q 308 342 404 381 q 211 215 211 304 q 252 104 211 139 q 372 69 293 69 q 452 88 410 69 q 517 128 494 106 l 518 381 m 500 1207 l 599 1106 q 485 996 563 1050 q 336 908 407 942 l 300 946 l 500 1207 z "},"ă":{"ha":776,"x_min":79,"x_max":733,"o":"m 79 0 m 382 772 q 576 717 503 772 q 649 524 649 661 l 647 58 l 733 58 l 733 13 q 674 -8 708 0 q 606 -17 639 -17 q 541 3 557 -17 q 525 74 525 22 q 299 -17 451 -17 q 185 11 235 -17 q 107 87 135 39 q 79 192 79 135 q 149 343 79 285 q 320 426 219 401 q 518 451 421 451 l 518 510 q 469 645 518 608 q 332 682 421 682 q 236 667 292 682 q 135 631 181 653 l 110 692 q 238 751 156 729 q 382 772 321 772 m 518 381 q 308 342 404 381 q 211 215 211 304 q 252 104 211 139 q 372 69 293 69 q 452 88 410 69 q 517 128 494 106 l 518 381 m 614 1153 q 584 1047 614 1097 q 503 965 554 996 q 388 935 451 935 q 269 965 321 935 q 190 1046 218 996 q 161 1151 161 1096 l 225 1151 q 242 1116 228 1147 q 293 1059 256 1085 q 389 1033 331 1033 q 494 1065 461 1033 q 539 1122 528 1096 q 553 1153 550 1147 l 614 1153 z "},"â":{"ha":776,"x_min":79,"x_max":733,"o":"m 79 0 m 382 772 q 576 717 503 772 q 649 524 649 661 l 647 58 l 733 58 l 733 13 q 674 -8 708 0 q 606 -17 639 -17 q 541 3 557 -17 q 525 74 525 22 q 299 -17 451 -17 q 185 11 235 -17 q 107 87 135 39 q 79 192 79 135 q 149 343 79 285 q 320 426 219 401 q 518 451 421 451 l 518 510 q 469 645 518 608 q 332 682 421 682 q 236 667 292 682 q 135 631 181 653 l 110 692 q 238 751 156 729 q 382 772 321 772 m 518 381 q 308 342 404 381 q 211 215 211 304 q 252 104 211 139 q 372 69 293 69 q 452 88 410 69 q 517 128 494 106 l 518 381 m 335 1204 l 464 1204 l 642 938 l 583 906 l 399 1088 l 201 906 l 150 936 l 335 1204 z "},"ä":{"ha":776,"x_min":79,"x_max":733,"o":"m 79 0 m 382 772 q 576 717 503 772 q 649 524 649 661 l 647 58 l 733 58 l 733 13 q 674 -8 708 0 q 606 -17 639 -17 q 541 3 557 -17 q 525 74 525 22 q 299 -17 451 -17 q 185 11 235 -17 q 107 87 135 39 q 79 192 79 135 q 149 343 79 285 q 320 426 219 401 q 518 451 421 451 l 518 510 q 469 645 518 608 q 332 682 421 682 q 236 667 292 682 q 135 631 181 653 l 110 692 q 238 751 156 729 q 382 772 321 772 m 518 381 q 308 342 404 381 q 211 215 211 304 q 252 104 211 139 q 372 69 293 69 q 452 88 410 69 q 517 128 494 106 l 518 381 m 232 938 q 172 959 197 938 q 147 1018 147 981 q 178 1088 147 1060 q 247 1117 210 1117 q 312 1093 290 1117 q 333 1033 333 1069 q 303 964 333 990 q 232 938 272 938 m 547 938 q 488 959 513 938 q 464 1018 464 981 q 494 1088 464 1060 q 563 1117 525 1117 q 627 1093 606 1117 q 649 1033 649 1069 q 618 964 649 990 q 547 938 588 938 z "},"à":{"ha":776,"x_min":79,"x_max":733,"o":"m 79 0 m 382 772 q 576 717 503 772 q 649 524 649 661 l 647 58 l 733 58 l 733 13 q 674 -8 708 0 q 606 -17 639 -17 q 541 3 557 -17 q 525 74 525 22 q 299 -17 451 -17 q 185 11 235 -17 q 107 87 135 39 q 79 192 79 135 q 149 343 79 285 q 320 426 219 401 q 518 451 421 451 l 518 510 q 469 645 518 608 q 332 682 421 682 q 236 667 292 682 q 135 631 181 653 l 110 692 q 238 751 156 729 q 382 772 321 772 m 518 381 q 308 342 404 381 q 211 215 211 304 q 252 104 211 139 q 372 69 293 69 q 452 88 410 69 q 517 128 494 106 l 518 381 m 483 908 q 335 996 413 942 q 221 1106 257 1050 l 321 1207 l 519 946 l 483 908 z "},"ā":{"ha":776,"x_min":79,"x_max":733,"o":"m 79 0 m 382 772 q 576 717 503 772 q 649 524 649 661 l 647 58 l 733 58 l 733 13 q 674 -8 708 0 q 606 -17 639 -17 q 541 3 557 -17 q 525 74 525 22 q 299 -17 451 -17 q 185 11 235 -17 q 107 87 135 39 q 79 192 79 135 q 149 343 79 285 q 320 426 219 401 q 518 451 421 451 l 518 510 q 469 645 518 608 q 332 682 421 682 q 236 667 292 682 q 135 631 181 653 l 110 692 q 238 751 156 729 q 382 772 321 772 m 518 381 q 308 342 404 381 q 211 215 211 304 q 252 104 211 139 q 372 69 293 69 q 452 88 410 69 q 517 128 494 106 l 518 381 m 561 1079 l 561 979 l 201 979 l 201 1079 l 561 1079 z "},"ą":{"ha":776,"x_min":76,"x_max":744,"o":"m 382 772 q 576 717 503 772 q 649 524 649 661 l 647 58 l 733 58 l 733 7 q 608 -85 658 -32 q 557 -181 557 -137 q 581 -245 557 -225 q 646 -265 606 -265 q 744 -243 690 -265 l 744 -303 q 673 -338 715 -325 q 589 -351 631 -351 q 478 -319 522 -351 q 435 -219 435 -286 q 485 -105 435 -164 q 597 -17 535 -46 q 540 4 554 -17 q 525 74 525 25 q 299 -17 451 -17 q 185 11 235 -17 q 107 87 135 39 q 79 192 79 135 q 147 342 76 283 q 320 426 218 400 q 518 451 422 451 l 518 510 q 469 645 518 608 q 332 682 421 682 q 236 667 292 682 q 135 631 181 653 l 110 692 q 238 751 156 729 q 382 772 321 772 m 518 381 q 308 342 404 381 q 211 215 211 304 q 252 104 211 139 q 372 69 293 69 q 452 88 410 69 q 517 128 494 106 l 518 381 z "},"å":{"ha":776,"x_min":79,"x_max":733,"o":"m 79 0 m 382 772 q 576 717 503 772 q 649 524 649 661 l 647 58 l 733 58 l 733 13 q 674 -8 708 0 q 606 -17 639 -17 q 541 3 557 -17 q 525 74 525 22 q 299 -17 451 -17 q 185 11 235 -17 q 107 87 135 39 q 79 192 79 135 q 149 343 79 285 q 320 426 219 401 q 518 451 421 451 l 518 510 q 469 645 518 608 q 332 682 421 682 q 236 667 292 682 q 135 631 181 653 l 110 692 q 238 751 156 729 q 382 772 321 772 m 518 381 q 308 342 404 381 q 211 215 211 304 q 252 104 211 139 q 372 69 293 69 q 452 88 410 69 q 517 128 494 106 l 518 381 m 376 1222 q 497 1174 447 1222 q 547 1058 547 1126 q 497 943 547 990 q 376 896 447 896 q 256 943 307 896 q 206 1058 206 990 q 256 1174 206 1126 q 376 1222 307 1222 m 376 1147 q 313 1120 339 1147 q 286 1057 286 1093 q 313 993 286 1019 q 376 967 339 967 q 440 993 414 967 q 467 1057 467 1019 q 440 1120 467 1093 q 376 1147 414 1147 z "},"ã":{"ha":776,"x_min":79,"x_max":733,"o":"m 79 0 m 382 772 q 576 717 503 772 q 649 524 649 661 l 647 58 l 733 58 l 733 13 q 674 -8 708 0 q 606 -17 639 -17 q 541 3 557 -17 q 525 74 525 22 q 299 -17 451 -17 q 185 11 235 -17 q 107 87 135 39 q 79 192 79 135 q 149 343 79 285 q 320 426 219 401 q 518 451 421 451 l 518 510 q 469 645 518 608 q 332 682 421 682 q 236 667 292 682 q 135 631 181 653 l 110 692 q 238 751 156 729 q 382 772 321 772 m 518 381 q 308 342 404 381 q 211 215 211 304 q 252 104 211 139 q 372 69 293 69 q 452 88 410 69 q 517 128 494 106 l 518 381 m 128 1011 q 209 1094 154 1058 q 317 1129 264 1129 q 369 1117 347 1129 q 418 1079 390 1104 q 456 1048 439 1058 q 493 1038 472 1038 q 618 1101 551 1038 l 653 1053 q 572 969 626 1004 q 465 933 518 933 q 411 947 433 933 q 364 985 389 960 q 325 1015 340 1006 q 289 1025 310 1025 q 164 961 228 1025 l 128 1011 z "},"æ":{"ha":1221,"x_min":79,"x_max":1160,"o":"m 899 782 q 1083 707 1015 782 q 1157 499 1151 632 q 1150 369 1160 446 l 647 369 q 727 143 650 210 q 910 76 804 76 q 1026 89 963 76 q 1118 117 1089 101 l 1143 60 q 1022 4 1106 25 q 858 -17 939 -17 q 592 108 683 -17 q 473 18 551 53 q 299 -17 394 -17 q 185 11 235 -17 q 107 87 135 39 q 79 192 79 135 q 81 218 79 208 q 165 357 89 304 q 340 431 242 410 q 518 451 438 451 l 518 510 q 469 645 518 608 q 332 682 421 682 q 236 667 292 682 q 135 631 181 653 l 110 692 q 238 751 156 729 q 382 772 321 772 q 619 663 560 772 q 743 751 672 719 q 899 782 814 782 m 857 708 q 716 645 774 708 q 649 450 658 582 l 1019 450 q 1021 494 1021 464 q 949 686 1021 639 q 857 708 914 708 m 518 381 q 308 342 404 381 q 211 215 211 304 q 252 104 211 139 q 372 69 293 69 q 452 88 410 69 q 517 128 494 106 l 518 381 z "},"b":{"ha":857,"x_min":22,"x_max":789,"o":"m 22 1018 l 22 1078 l 240 1101 l 268 1090 l 268 694 q 366 758 314 733 q 489 782 418 782 q 638 744 569 782 q 747 622 706 706 q 789 410 789 539 q 740 196 789 294 q 604 39 692 97 q 406 -19 517 -19 q 235 -1 317 -19 q 138 33 153 17 l 138 994 l 22 1018 m 268 107 q 319 66 278 79 q 421 53 360 53 q 538 90 483 53 q 626 206 593 128 q 660 397 660 283 q 628 563 660 497 q 545 658 596 628 q 435 688 494 688 q 338 668 381 688 q 268 624 294 649 l 268 107 z "},"c":{"ha":708,"x_min":71,"x_max":661,"o":"m 463 779 q 564 770 517 779 q 636 746 611 761 l 636 582 l 572 582 l 538 668 q 487 692 518 685 q 426 700 456 700 q 311 669 364 700 q 227 574 258 638 q 196 421 196 511 q 232 228 196 306 q 325 115 268 151 q 443 79 382 79 q 553 91 496 79 q 638 119 610 103 l 661 60 q 550 6 622 25 q 399 -14 478 -14 q 222 35 296 -14 q 109 172 147 85 q 71 368 71 258 q 123 586 71 493 q 264 729 175 679 q 463 779 353 779 z "},"ć":{"ha":708,"x_min":71,"x_max":661,"o":"m 71 0 m 463 779 q 564 770 517 779 q 636 746 611 761 l 636 582 l 572 582 l 538 668 q 487 692 518 685 q 426 700 456 700 q 311 669 364 700 q 227 574 258 638 q 196 421 196 511 q 232 228 196 306 q 325 115 268 151 q 443 79 382 79 q 553 91 496 79 q 638 119 610 103 l 661 60 q 550 6 622 25 q 399 -14 478 -14 q 222 35 296 -14 q 109 172 147 85 q 71 368 71 258 q 123 586 71 493 q 264 729 175 679 q 463 779 353 779 m 531 1207 l 629 1106 q 515 996 593 1050 q 367 908 438 942 l 331 946 l 531 1207 z "},"č":{"ha":708,"x_min":71,"x_max":672,"o":"m 71 0 m 463 779 q 564 770 517 779 q 636 746 611 761 l 636 582 l 572 582 l 538 668 q 487 692 518 685 q 426 700 456 700 q 311 669 364 700 q 227 574 258 638 q 196 421 196 511 q 232 228 196 306 q 325 115 268 151 q 443 79 382 79 q 553 91 496 79 q 638 119 610 103 l 661 60 q 550 6 622 25 q 399 -14 478 -14 q 222 35 296 -14 q 109 172 147 85 q 71 368 71 258 q 123 586 71 493 q 264 729 175 679 q 463 779 353 779 m 239 1203 l 429 1022 l 621 1204 l 672 1172 l 493 906 l 365 906 l 181 1172 l 239 1203 z "},"ç":{"ha":708,"x_min":71,"x_max":661,"o":"m 431 -86 q 560 -125 517 -86 q 603 -214 603 -164 q 556 -317 603 -279 q 432 -358 508 -354 l 399 -360 q 329 -353 354 -360 q 297 -344 304 -346 l 299 -276 q 336 -283 314 -281 q 375 -286 358 -286 q 445 -272 421 -286 q 469 -211 469 -257 q 443 -161 469 -179 q 364 -143 417 -143 q 342 -144 351 -143 q 331 -146 333 -146 q 351 -12 331 -87 q 145 108 219 4 q 71 367 71 213 q 123 585 71 492 q 264 728 175 678 q 463 778 353 778 q 564 769 517 778 q 636 744 611 760 l 636 581 l 572 581 l 538 667 q 487 691 518 683 q 426 699 456 699 q 311 667 364 699 q 227 573 258 636 q 196 419 196 510 q 232 227 196 304 q 325 114 268 150 q 443 78 382 78 q 553 90 496 78 q 638 118 610 101 l 661 58 q 564 9 626 28 q 431 -14 501 -10 q 429 -49 429 -25 q 431 -85 429 -74 l 431 -86 z "},"d":{"ha":861,"x_min":68,"x_max":810,"o":"m 718 1086 l 718 58 l 810 58 l 810 7 q 745 -14 788 -6 q 667 -22 703 -22 q 608 -4 624 -22 q 593 65 593 14 q 506 9 565 35 q 364 -17 446 -17 q 217 26 285 -17 q 109 154 150 68 q 68 367 68 240 q 120 580 68 485 q 262 728 172 675 q 460 782 351 782 q 588 764 536 782 l 588 990 l 443 1014 l 443 1074 l 688 1101 l 718 1086 m 443 710 q 329 678 385 710 q 235 576 274 647 q 197 392 197 506 q 228 217 197 289 q 308 111 258 146 q 417 76 358 76 q 512 92 465 76 q 588 136 558 107 l 588 656 q 443 710 540 710 z "},"ð":{"ha":835,"x_min":68,"x_max":767,"o":"m 589 1111 l 478 1015 q 694 748 622 906 q 767 419 767 590 q 719 181 767 279 q 589 32 671 82 q 406 -18 507 -18 q 229 28 306 -18 q 110 156 153 74 q 68 340 68 238 q 115 537 68 456 q 241 659 161 618 q 418 700 321 700 q 530 674 469 700 q 622 613 590 649 q 544 797 600 711 q 411 951 488 883 l 296 853 l 229 906 l 340 1007 q 218 1069 272 1051 l 235 1143 q 401 1068 318 1115 l 476 1132 l 519 1169 l 589 1111 m 417 626 q 260 553 311 626 q 210 347 210 481 q 235 201 210 268 q 309 93 260 133 q 428 53 358 53 q 533 99 488 53 q 602 218 578 144 q 626 374 626 292 q 622 453 626 435 q 557 570 608 514 q 417 626 506 626 z "},"ď":{"ha":988,"x_min":68,"x_max":956,"o":"m 68 0 m 718 1086 l 718 58 l 810 58 l 810 7 q 745 -14 788 -6 q 667 -22 703 -22 q 608 -4 624 -22 q 593 65 593 14 q 506 9 565 35 q 364 -17 446 -17 q 217 26 285 -17 q 109 154 150 68 q 68 367 68 240 q 120 580 68 485 q 262 728 172 675 q 460 782 351 782 q 588 764 536 782 l 588 990 l 443 1014 l 443 1074 l 688 1101 l 718 1086 m 443 710 q 329 678 385 710 q 235 576 274 647 q 197 392 197 506 q 228 217 197 289 q 308 111 258 146 q 417 76 358 76 q 512 92 465 76 q 588 136 558 107 l 588 656 q 443 710 540 710 m 808 746 q 831 913 831 824 q 819 1019 831 969 q 796 1086 808 1069 l 806 1115 l 911 1142 q 943 1077 931 1122 q 956 982 956 1032 q 929 817 956 900 q 867 704 903 735 l 811 728 l 808 746 z "},"đ":{"ha":861,"x_min":68,"x_max":831,"o":"m 718 825 l 718 58 l 810 58 l 810 7 q 745 -14 788 -6 q 667 -22 703 -22 q 608 -4 624 -22 q 593 65 593 14 q 506 9 565 35 q 364 -17 446 -17 q 219 26 288 -17 q 110 146 151 68 q 68 325 68 224 q 176 629 68 532 q 460 726 283 726 q 588 708 536 726 l 588 825 l 329 825 l 329 904 l 588 904 l 588 990 l 443 1014 l 443 1074 l 688 1101 l 718 1086 l 718 904 l 831 904 l 831 825 l 718 825 m 588 600 q 443 654 540 654 q 330 626 386 654 q 235 531 274 597 q 197 358 197 464 q 228 201 197 264 q 308 107 258 138 q 417 76 358 76 q 512 92 465 76 q 588 136 558 107 l 588 600 z "},"e":{"ha":776,"x_min":68,"x_max":708,"o":"m 443 782 q 638 703 567 783 q 708 481 708 624 q 700 369 708 428 l 197 369 q 267 155 197 233 q 461 76 336 76 q 573 88 514 76 q 661 117 632 100 l 686 60 q 568 4 647 25 q 408 -17 489 -17 q 158 90 247 -17 q 68 376 68 196 q 115 583 68 492 q 248 726 163 674 q 443 782 333 779 m 407 708 q 266 645 324 708 q 199 450 208 582 l 569 450 q 571 496 571 465 q 555 611 571 563 q 499 686 539 660 q 407 708 464 708 z "},"é":{"ha":776,"x_min":68,"x_max":708,"o":"m 68 0 m 443 782 q 638 703 567 783 q 708 481 708 624 q 700 369 708 428 l 197 369 q 267 155 197 233 q 461 76 336 76 q 573 88 514 76 q 661 117 632 100 l 686 60 q 568 4 647 25 q 408 -17 489 -17 q 158 90 247 -17 q 68 376 68 196 q 115 583 68 492 q 248 726 163 674 q 443 782 333 779 m 407 708 q 266 645 324 708 q 199 450 208 582 l 569 450 q 571 496 571 465 q 555 611 571 563 q 499 686 539 660 q 407 708 464 708 m 517 1207 l 615 1106 q 501 996 579 1050 q 353 908 424 942 l 317 946 l 517 1207 z "},"ě":{"ha":776,"x_min":68,"x_max":708,"o":"m 68 0 m 443 782 q 638 703 567 783 q 708 481 708 624 q 700 369 708 428 l 197 369 q 267 155 197 233 q 461 76 336 76 q 573 88 514 76 q 661 117 632 100 l 686 60 q 568 4 647 25 q 408 -17 489 -17 q 158 90 247 -17 q 68 376 68 196 q 115 583 68 492 q 248 726 163 674 q 443 782 333 779 m 407 708 q 266 645 324 708 q 199 450 208 582 l 569 450 q 571 496 571 465 q 555 611 571 563 q 499 686 539 660 q 407 708 464 708 m 225 1203 l 415 1022 l 607 1204 l 658 1172 l 479 906 l 351 906 l 167 1172 l 225 1203 z "},"ê":{"ha":776,"x_min":68,"x_max":708,"o":"m 68 0 m 443 782 q 638 703 567 783 q 708 481 708 624 q 700 369 708 428 l 197 369 q 267 155 197 233 q 461 76 336 76 q 573 88 514 76 q 661 117 632 100 l 686 60 q 568 4 647 25 q 408 -17 489 -17 q 158 90 247 -17 q 68 376 68 196 q 115 583 68 492 q 248 726 163 674 q 443 782 333 779 m 407 708 q 266 645 324 708 q 199 450 208 582 l 569 450 q 571 496 571 465 q 555 611 571 563 q 499 686 539 660 q 407 708 464 708 m 351 1204 l 481 1204 l 658 938 l 600 906 l 415 1088 l 218 906 l 167 936 l 351 1204 z "},"ë":{"ha":776,"x_min":68,"x_max":708,"o":"m 68 0 m 443 782 q 638 703 567 783 q 708 481 708 624 q 700 369 708 428 l 197 369 q 267 155 197 233 q 461 76 336 76 q 573 88 514 76 q 661 117 632 100 l 686 60 q 568 4 647 25 q 408 -17 489 -17 q 158 90 247 -17 q 68 376 68 196 q 115 583 68 492 q 248 726 163 674 q 443 782 333 779 m 407 708 q 266 645 324 708 q 199 450 208 582 l 569 450 q 571 496 571 465 q 555 611 571 563 q 499 686 539 660 q 407 708 464 708 m 249 938 q 189 959 214 938 q 164 1018 164 981 q 195 1088 164 1060 q 264 1117 226 1117 q 328 1093 307 1117 q 350 1033 350 1069 q 319 964 350 990 q 249 938 289 938 m 564 938 q 505 959 529 938 q 481 1018 481 981 q 511 1088 481 1060 q 579 1117 542 1117 q 644 1093 622 1117 q 665 1033 665 1069 q 635 964 665 990 q 564 938 604 938 z "},"ė":{"ha":776,"x_min":68,"x_max":708,"o":"m 68 0 m 443 782 q 638 703 567 783 q 708 481 708 624 q 700 369 708 428 l 197 369 q 267 155 197 233 q 461 76 336 76 q 573 88 514 76 q 661 117 632 100 l 686 60 q 568 4 647 25 q 408 -17 489 -17 q 158 90 247 -17 q 68 376 68 196 q 115 583 68 492 q 248 726 163 674 q 443 782 333 779 m 407 708 q 266 645 324 708 q 199 450 208 582 l 569 450 q 571 496 571 465 q 555 611 571 563 q 499 686 539 660 q 407 708 464 708 m 429 1104 q 494 1081 472 1104 q 515 1021 515 1057 q 484 950 515 978 q 413 922 453 922 q 353 945 379 922 q 328 1006 328 968 q 359 1076 328 1047 q 429 1104 390 1104 z "},"è":{"ha":776,"x_min":68,"x_max":708,"o":"m 68 0 m 443 782 q 638 703 567 783 q 708 481 708 624 q 700 369 708 428 l 197 369 q 267 155 197 233 q 461 76 336 76 q 573 88 514 76 q 661 117 632 100 l 686 60 q 568 4 647 25 q 408 -17 489 -17 q 158 90 247 -17 q 68 376 68 196 q 115 583 68 492 q 248 726 163 674 q 443 782 333 779 m 407 708 q 266 645 324 708 q 199 450 208 582 l 569 450 q 571 496 571 465 q 555 611 571 563 q 499 686 539 660 q 407 708 464 708 m 499 908 q 350 996 428 942 q 236 1106 272 1050 l 336 1207 l 535 946 l 499 908 z "},"ē":{"ha":776,"x_min":68,"x_max":708,"o":"m 68 0 m 443 782 q 638 703 567 783 q 708 481 708 624 q 700 369 708 428 l 197 369 q 267 155 197 233 q 461 76 336 76 q 573 88 514 76 q 661 117 632 100 l 686 60 q 568 4 647 25 q 408 -17 489 -17 q 158 90 247 -17 q 68 376 68 196 q 115 583 68 492 q 248 726 163 674 q 443 782 333 779 m 407 708 q 266 645 324 708 q 199 450 208 582 l 569 450 q 571 496 571 465 q 555 611 571 563 q 499 686 539 660 q 407 708 464 708 m 589 1079 l 589 979 l 229 979 l 229 1079 l 589 1079 z "},"ę":{"ha":776,"x_min":68,"x_max":708,"o":"m 443 782 q 638 703 567 783 q 708 481 708 624 q 700 369 708 428 l 197 369 q 267 155 197 233 q 461 76 336 76 q 573 88 514 76 q 661 117 632 100 l 686 60 q 540 -72 582 -19 q 497 -167 497 -125 q 527 -237 497 -215 q 603 -260 557 -260 q 690 -243 651 -260 l 690 -303 q 626 -335 664 -324 q 546 -346 588 -346 q 424 -311 474 -346 q 375 -206 375 -276 q 410 -102 375 -157 q 507 -8 446 -47 q 408 -17 457 -17 q 158 90 247 -17 q 68 376 68 196 q 115 583 68 492 q 248 726 163 674 q 443 782 333 779 m 407 708 q 266 645 324 708 q 199 450 208 582 l 569 450 q 571 496 571 465 q 533 653 571 599 q 407 708 496 708 z "},"f":{"ha":568,"x_min":61,"x_max":586,"o":"m 211 72 l 211 667 l 61 667 l 61 719 l 211 758 l 211 815 q 255 985 211 910 q 364 1103 299 1061 q 489 1146 429 1146 q 586 1133 564 1146 l 586 1018 q 540 1033 575 1026 q 463 1040 506 1040 q 395 1029 421 1040 q 356 981 369 1018 q 342 871 342 944 l 342 758 l 546 758 l 546 667 l 342 667 l 342 71 l 497 58 l 497 0 l 75 0 l 75 58 l 211 72 z "},"g":{"ha":815,"x_min":86,"x_max":797,"o":"m 417 788 q 606 733 533 788 q 715 768 636 768 l 797 768 l 797 665 l 664 665 q 694 536 694 613 q 653 387 694 450 q 542 291 611 324 q 392 258 474 258 q 249 283 311 258 q 240 231 239 260 q 242 196 242 201 q 262 138 242 158 q 328 115 282 118 q 503 111 369 111 q 678 78 619 111 q 754 1 738 46 q 771 -101 771 -43 q 676 -290 771 -219 q 414 -360 581 -360 q 180 -312 274 -360 q 86 -158 86 -265 q 122 -51 86 -101 q 201 26 157 -1 q 147 60 164 40 q 128 97 131 79 q 125 144 125 114 q 148 222 125 172 q 208 304 171 271 q 99 511 99 372 q 144 664 99 601 q 262 757 189 726 q 417 788 335 788 m 390 717 q 229 538 229 717 q 274 388 229 446 q 411 331 318 331 q 528 376 493 331 q 564 518 564 422 q 521 668 564 619 q 390 717 478 717 m 253 13 q 213 -115 213 -36 q 274 -242 213 -201 q 431 -283 335 -283 q 603 -246 542 -283 q 665 -135 665 -208 q 650 -58 665 -87 q 592 -12 635 -28 q 467 3 549 3 l 381 4 q 253 13 303 4 z "},"ğ":{"ha":815,"x_min":86,"x_max":797,"o":"m 86 0 m 417 788 q 606 733 533 788 q 715 768 636 768 l 797 768 l 797 665 l 664 665 q 694 536 694 613 q 653 387 694 450 q 542 291 611 324 q 392 258 474 258 q 249 283 311 258 q 240 231 239 260 q 242 196 242 201 q 262 138 242 158 q 328 115 282 118 q 503 111 369 111 q 678 78 619 111 q 754 1 738 46 q 771 -101 771 -43 q 676 -290 771 -219 q 414 -360 581 -360 q 180 -312 274 -360 q 86 -158 86 -265 q 122 -51 86 -101 q 201 26 157 -1 q 147 60 164 40 q 128 97 131 79 q 125 144 125 114 q 148 222 125 172 q 208 304 171 271 q 99 511 99 372 q 144 664 99 601 q 262 757 189 726 q 417 788 335 788 m 390 717 q 229 538 229 717 q 274 388 229 446 q 411 331 318 331 q 528 376 493 331 q 564 518 564 422 q 521 668 564 619 q 390 717 478 717 m 253 13 q 213 -115 213 -36 q 274 -242 213 -201 q 431 -283 335 -283 q 603 -246 542 -283 q 665 -135 665 -208 q 650 -58 665 -87 q 592 -12 635 -28 q 467 3 549 3 l 381 4 q 253 13 303 4 m 628 1153 q 598 1047 628 1097 q 517 965 568 996 q 401 935 465 935 q 283 965 335 935 q 203 1046 232 996 q 175 1151 175 1096 l 239 1151 q 256 1116 242 1147 q 307 1059 269 1085 q 403 1033 344 1033 q 508 1065 475 1033 q 553 1122 542 1096 q 567 1153 564 1147 l 628 1153 z "},"ģ":{"ha":815,"x_min":86,"x_max":797,"o":"m 86 0 m 417 788 q 606 733 533 788 q 715 768 636 768 l 797 768 l 797 665 l 664 665 q 694 536 694 613 q 653 387 694 450 q 542 291 611 324 q 392 258 474 258 q 249 283 311 258 q 240 231 239 260 q 242 196 242 201 q 262 138 242 158 q 328 115 282 118 q 503 111 369 111 q 678 78 619 111 q 754 1 738 46 q 771 -101 771 -43 q 676 -290 771 -219 q 414 -360 581 -360 q 180 -312 274 -360 q 86 -158 86 -265 q 122 -51 86 -101 q 201 26 157 -1 q 147 60 164 40 q 128 97 131 79 q 125 144 125 114 q 148 222 125 172 q 208 304 171 271 q 99 511 99 372 q 144 664 99 601 q 262 757 189 726 q 417 788 335 788 m 390 717 q 229 538 229 717 q 274 388 229 446 q 411 331 318 331 q 528 376 493 331 q 564 518 564 422 q 521 668 564 619 q 390 717 478 717 m 253 13 q 213 -115 213 -36 q 274 -242 213 -201 q 431 -283 335 -283 q 603 -246 542 -283 q 665 -135 665 -208 q 650 -58 665 -87 q 592 -12 635 -28 q 467 3 549 3 l 381 4 q 253 13 303 4 m 413 904 q 310 972 346 922 q 274 1076 274 1022 q 301 1184 274 1133 q 369 1268 329 1235 q 443 1311 410 1301 l 481 1276 l 481 1258 q 428 1199 444 1242 q 413 1104 413 1156 q 424 1058 413 1079 q 453 1024 436 1036 q 482 1011 469 1011 l 482 975 l 413 904 z "},"h":{"ha":953,"x_min":69,"x_max":906,"o":"m 186 72 l 186 990 l 69 1014 l 69 1074 l 285 1101 l 317 1086 l 315 786 l 313 669 q 445 744 369 715 q 578 772 521 772 q 717 735 668 772 q 786 621 767 699 q 804 411 806 543 l 804 72 l 906 58 l 906 0 l 560 0 l 560 58 l 674 72 l 674 354 q 664 540 674 475 q 620 639 654 604 q 514 674 586 674 q 317 617 397 674 l 317 72 l 415 58 l 415 0 l 85 0 l 85 58 l 186 72 z "},"ħ":{"ha":953,"x_min":69,"x_max":906,"o":"m 186 72 l 186 825 l 74 825 l 74 904 l 186 904 l 186 990 l 69 1014 l 69 1074 l 285 1101 l 317 1086 l 315 904 l 435 904 l 435 825 l 315 825 l 315 786 l 313 669 q 445 744 369 715 q 578 772 521 772 q 717 735 668 772 q 786 621 767 699 q 804 411 806 543 l 804 72 l 906 58 l 906 0 l 560 0 l 560 58 l 674 72 l 674 354 q 664 540 674 475 q 620 639 654 604 q 514 674 586 674 q 317 617 397 674 l 317 72 l 415 58 l 415 0 l 85 0 l 85 58 l 186 72 z "},"i":{"ha":463,"x_min":76,"x_max":426,"o":"m 242 1115 q 306 1092 285 1115 q 328 1031 328 1068 q 297 960 328 988 q 226 932 265 932 q 166 955 192 932 q 140 1015 140 978 q 172 1086 140 1057 q 242 1115 204 1115 m 317 758 l 317 72 l 426 58 l 426 0 l 76 0 l 76 58 l 192 72 l 192 628 l 97 676 l 97 719 l 286 772 l 317 758 z "},"ı":{"ha":463,"x_min":76,"x_max":426,"o":"m 192 72 l 192 628 l 97 676 l 97 719 l 286 772 l 317 758 l 317 72 l 426 58 l 426 0 l 76 0 l 76 58 l 192 72 z "},"í":{"ha":463,"x_min":76,"x_max":442,"o":"m 76 0 m 192 72 l 192 628 l 97 676 l 97 719 l 286 772 l 317 758 l 317 72 l 426 58 l 426 0 l 76 0 l 76 58 l 192 72 m 343 1207 l 442 1106 q 328 996 406 1050 q 179 908 250 942 l 143 946 l 343 1207 z "},"î":{"ha":463,"x_min":-8,"x_max":483,"o":"m 176 1204 l 306 1204 l 483 938 l 425 906 l 240 1088 l 43 906 l -8 936 l 176 1204 m 192 72 l 192 628 l 97 676 l 97 719 l 286 772 l 317 758 l 317 72 l 426 58 l 426 0 l 76 0 l 76 58 l 192 72 z "},"ï":{"ha":463,"x_min":-12,"x_max":489,"o":"m 0 0 m 192 72 l 192 628 l 97 676 l 97 719 l 286 772 l 317 758 l 317 72 l 426 58 l 426 0 l 76 0 l 76 58 l 192 72 m 72 938 q 13 959 38 938 q -12 1018 -12 981 q 19 1088 -12 1060 q 88 1117 50 1117 q 152 1093 131 1117 q 174 1033 174 1069 q 143 964 174 990 q 72 938 113 938 m 388 938 q 328 959 353 938 q 304 1018 304 981 q 335 1088 304 1060 q 403 1117 365 1117 q 467 1093 446 1117 q 489 1033 489 1069 q 458 964 489 990 q 388 938 428 938 z "},"ì":{"ha":463,"x_min":63,"x_max":426,"o":"m 325 908 q 176 996 254 942 q 63 1106 99 1050 l 161 1207 l 361 946 l 325 908 m 192 72 l 192 628 l 97 676 l 97 719 l 286 772 l 317 758 l 317 72 l 426 58 l 426 0 l 76 0 l 76 58 l 192 72 z "},"ĳ":{"ha":903,"x_min":76,"x_max":785,"o":"m 76 0 m 242 1115 q 306 1092 285 1115 q 328 1031 328 1068 q 297 960 328 988 q 226 932 265 932 q 166 955 192 932 q 140 1015 140 978 q 172 1086 140 1057 q 242 1115 204 1115 m 317 758 l 317 72 l 426 58 l 426 0 l 76 0 l 76 58 l 192 72 l 192 628 l 97 676 l 97 719 l 286 772 l 317 758 m 699 1135 q 763 1111 742 1135 q 785 1050 785 1088 q 754 980 785 1007 q 683 953 724 953 q 624 976 649 953 q 599 1036 599 999 q 630 1106 599 1078 q 699 1135 661 1135 m 776 758 l 776 -11 q 710 -258 776 -168 q 531 -349 643 -349 q 486 -346 511 -349 q 457 -339 461 -343 l 457 -246 q 531 -253 475 -253 q 601 -229 575 -253 q 638 -151 626 -206 q 649 -1 649 -97 l 649 628 l 554 678 l 554 718 l 746 772 l 776 758 z "},"ī":{"ha":463,"x_min":49,"x_max":426,"o":"m 49 0 m 192 72 l 192 628 l 97 676 l 97 719 l 286 772 l 317 758 l 317 72 l 426 58 l 426 0 l 76 0 l 76 58 l 192 72 m 408 1079 l 408 979 l 49 979 l 49 1079 l 408 1079 z "},"į":{"ha":463,"x_min":61,"x_max":429,"o":"m 226 932 q 166 955 192 932 q 140 1015 140 978 q 172 1086 140 1057 q 242 1115 204 1115 q 306 1092 285 1115 q 328 1031 328 1068 q 297 960 328 988 q 226 932 265 932 m 429 -282 q 331 -339 383 -317 q 194 -357 279 -361 q 94 -316 126 -353 q 61 -229 61 -279 q 122 -103 61 -169 q 260 0 182 -37 l 76 0 l 76 58 l 192 72 l 192 628 l 97 676 l 97 719 l 286 772 l 317 758 l 317 72 l 426 58 l 426 0 l 371 0 q 286 -51 331 -17 q 212 -123 242 -85 q 182 -190 182 -161 q 202 -251 182 -235 q 268 -271 222 -268 q 365 -249 318 -274 q 415 -222 411 -225 l 429 -282 z "},"ĩ":{"ha":463,"x_min":-31,"x_max":494,"o":"m 0 0 m 192 72 l 192 628 l 97 676 l 97 719 l 286 772 l 317 758 l 317 72 l 426 58 l 426 0 l 76 0 l 76 58 l 192 72 m -31 1011 q 51 1094 -4 1058 q 158 1129 106 1129 q 210 1117 189 1129 q 260 1079 232 1104 q 297 1048 281 1058 q 335 1038 314 1038 q 460 1101 393 1038 l 494 1053 q 414 969 468 1004 q 307 933 360 933 q 253 947 275 933 q 206 985 231 960 q 167 1015 182 1006 q 131 1025 151 1025 q 6 961 69 1025 l -31 1011 z "},"j":{"ha":440,"x_min":-6,"x_max":322,"o":"m 236 1135 q 301 1111 279 1135 q 322 1050 322 1088 q 292 980 322 1007 q 221 953 261 953 q 161 976 186 953 q 136 1036 136 999 q 167 1106 136 1078 q 236 1135 199 1135 m 314 758 l 314 -11 q 247 -258 314 -168 q 68 -349 181 -349 q 24 -346 49 -349 q -6 -339 -1 -343 l -6 -246 q 68 -253 13 -253 q 138 -229 113 -253 q 175 -151 164 -206 q 186 -1 186 -97 l 186 628 l 92 678 l 92 718 l 283 772 l 314 758 z "},"ȷ":{"ha":440,"x_min":-6,"x_max":314,"o":"m 92 678 l 92 718 l 283 772 l 314 758 l 314 -11 q 247 -258 314 -168 q 68 -349 181 -349 q 24 -346 49 -349 q -6 -339 -1 -343 l -6 -246 q 68 -253 13 -253 q 138 -229 113 -253 q 175 -151 164 -206 q 186 -1 186 -97 l 186 628 l 92 678 z "},"ĵ":{"ha":440,"x_min":-6,"x_max":492,"o":"m 186 1204 l 314 1204 l 492 938 l 435 906 l 250 1088 l 51 906 l 0 936 l 186 1204 m 92 678 l 92 718 l 283 772 l 314 758 l 314 -11 q 247 -258 314 -168 q 68 -349 181 -349 q 24 -346 49 -349 q -6 -339 -1 -343 l -6 -246 q 68 -253 13 -253 q 138 -229 113 -253 q 175 -151 164 -206 q 186 -1 186 -97 l 186 628 l 92 678 z "},"k":{"ha":864,"x_min":64,"x_max":878,"o":"m 186 72 l 186 990 l 64 1014 l 64 1074 l 289 1101 l 317 1086 l 317 478 l 313 374 l 614 685 l 513 694 l 513 765 l 832 765 l 832 694 l 729 683 l 499 451 l 785 72 l 878 58 l 878 0 l 549 0 l 549 58 l 643 74 l 419 386 l 313 279 l 317 147 l 317 71 l 414 58 l 414 0 l 75 0 l 75 58 l 186 72 z "},"ķ":{"ha":864,"x_min":64,"x_max":878,"o":"m 64 0 m 186 72 l 186 990 l 64 1014 l 64 1074 l 289 1101 l 317 1086 l 317 478 l 313 374 l 614 685 l 513 694 l 513 765 l 832 765 l 832 694 l 729 683 l 499 451 l 785 72 l 878 58 l 878 0 l 549 0 l 549 58 l 643 74 l 419 386 l 313 279 l 317 147 l 317 71 l 414 58 l 414 0 l 75 0 l 75 58 l 186 72 m 475 -28 q 578 -96 542 -46 q 614 -200 614 -146 q 586 -308 614 -257 q 518 -392 558 -358 q 444 -435 478 -425 l 407 -400 l 407 -382 q 459 -322 443 -365 q 475 -228 475 -279 q 463 -181 475 -203 q 435 -147 451 -160 q 406 -135 418 -135 l 406 -99 l 475 -28 z "},"ĸ":{"ha":864,"x_min":64,"x_max":878,"o":"m 186 72 l 186 665 l 64 690 l 64 750 l 289 778 l 317 763 l 317 478 l 313 374 l 614 685 l 513 694 l 513 765 l 832 765 l 832 694 l 729 683 l 499 451 l 785 72 l 878 58 l 878 0 l 549 0 l 549 58 l 643 74 l 419 386 l 313 279 l 317 147 l 317 71 l 414 58 l 414 0 l 75 0 l 75 58 l 186 72 z "},"l":{"ha":474,"x_min":74,"x_max":440,"o":"m 189 72 l 189 990 l 81 1014 l 81 1074 l 292 1101 l 319 1086 l 319 72 l 440 58 l 440 0 l 74 0 l 74 58 l 189 72 z "},"ĺ":{"ha":474,"x_min":74,"x_max":453,"o":"m 74 0 m 189 72 l 189 990 l 81 1014 l 81 1074 l 292 1101 l 319 1086 l 319 72 l 440 58 l 440 0 l 74 0 l 74 58 l 189 72 m 354 1458 l 453 1357 q 339 1247 417 1301 q 190 1160 261 1193 l 154 1197 l 354 1458 z "},"ľ":{"ha":474,"x_min":74,"x_max":557,"o":"m 74 0 m 189 72 l 189 990 l 81 1014 l 81 1074 l 292 1101 l 319 1086 l 319 72 l 440 58 l 440 0 l 74 0 l 74 58 l 189 72 m 410 746 q 432 913 432 824 q 421 1019 432 969 q 397 1086 410 1069 l 407 1115 l 513 1142 q 544 1077 532 1122 q 557 982 557 1032 q 531 817 557 900 q 468 704 504 735 l 413 728 l 410 746 z "},"ļ":{"ha":474,"x_min":74,"x_max":440,"o":"m 74 0 m 189 72 l 189 990 l 81 1014 l 81 1074 l 292 1101 l 319 1086 l 319 72 l 440 58 l 440 0 l 74 0 l 74 58 l 189 72 m 228 -28 q 331 -96 294 -46 q 367 -200 367 -146 q 339 -308 367 -257 q 271 -392 311 -358 q 197 -435 231 -425 l 160 -400 l 160 -382 q 212 -322 196 -365 q 228 -228 228 -279 q 216 -181 228 -203 q 188 -147 204 -160 q 158 -135 171 -135 l 158 -99 l 228 -28 z "},"ŀ":{"ha":726,"x_min":74,"x_max":692,"o":"m 319 1086 l 319 72 l 440 58 l 440 0 l 74 0 l 74 58 l 189 72 l 189 990 l 81 1014 l 81 1074 l 292 1101 l 319 1086 m 606 639 q 670 615 649 639 q 692 556 692 592 q 660 485 692 513 q 589 457 629 457 q 530 480 556 457 q 504 540 504 503 q 535 610 504 582 q 606 639 567 639 z "},"ł":{"ha":474,"x_min":74,"x_max":444,"o":"m 189 72 l 189 519 l 83 478 l 83 571 l 189 614 l 189 990 l 81 1014 l 81 1074 l 292 1101 l 319 1086 l 319 667 l 444 719 l 444 619 l 319 569 l 319 72 l 440 58 l 440 0 l 74 0 l 74 58 l 189 72 z "},"m":{"ha":1404,"x_min":89,"x_max":1369,"o":"m 186 72 l 186 624 l 89 676 l 89 719 l 269 772 l 300 758 l 300 663 q 426 738 349 704 q 569 772 504 771 q 688 753 643 775 q 758 676 733 731 q 894 744 810 715 q 1043 772 978 772 q 1169 739 1122 772 q 1235 635 1215 706 q 1256 449 1256 564 l 1256 72 l 1369 58 l 1369 0 l 1033 0 l 1033 58 l 1125 72 l 1125 425 q 1113 568 1125 515 q 1069 647 1101 621 q 974 674 1036 674 q 781 615 882 674 q 796 456 796 547 l 796 71 l 900 58 l 900 0 l 564 0 l 564 58 l 665 72 l 665 435 q 653 574 665 524 q 608 649 640 625 q 514 674 575 674 q 422 656 474 674 q 318 603 371 639 l 318 72 l 418 58 l 418 0 l 93 0 l 93 58 l 186 72 z "},"n":{"ha":947,"x_min":89,"x_max":907,"o":"m 186 71 l 186 624 l 89 676 l 89 719 l 269 772 l 300 758 l 300 663 q 435 739 351 706 q 588 772 518 772 q 751 698 703 772 q 799 454 799 624 l 799 71 l 907 58 l 907 0 l 565 0 l 565 58 l 668 72 l 668 431 q 656 569 668 517 q 611 647 644 621 q 517 674 578 674 q 318 603 419 674 l 318 72 l 418 58 l 418 0 l 93 0 l 93 58 l 186 71 z "},"ń":{"ha":947,"x_min":89,"x_max":907,"o":"m 611 1207 l 710 1106 q 596 996 674 1050 q 447 908 518 942 l 411 946 l 611 1207 m 186 71 l 186 624 l 89 676 l 89 719 l 269 772 l 300 758 l 300 663 q 435 739 351 706 q 588 772 518 772 q 751 698 703 772 q 799 454 799 624 l 799 71 l 907 58 l 907 0 l 565 0 l 565 58 l 668 72 l 668 431 q 656 569 668 517 q 611 647 644 621 q 517 674 578 674 q 318 603 419 674 l 318 72 l 418 58 l 418 0 l 93 0 l 93 58 l 186 71 z "},"ň":{"ha":947,"x_min":89,"x_max":907,"o":"m 89 0 m 186 71 l 186 624 l 89 676 l 89 719 l 269 772 l 300 758 l 300 663 q 435 739 351 706 q 588 772 518 772 q 751 698 703 772 q 799 454 799 624 l 799 71 l 907 58 l 907 0 l 565 0 l 565 58 l 668 72 l 668 431 q 656 569 668 517 q 611 647 644 621 q 517 674 578 674 q 318 603 419 674 l 318 72 l 418 58 l 418 0 l 93 0 l 93 58 l 186 71 m 308 1203 l 499 1022 l 690 1204 l 742 1172 l 563 906 l 435 906 l 250 1172 l 308 1203 z "},"ņ":{"ha":947,"x_min":89,"x_max":907,"o":"m 89 0 m 186 71 l 186 624 l 89 676 l 89 719 l 269 772 l 300 758 l 300 663 q 435 739 351 706 q 588 772 518 772 q 751 698 703 772 q 799 454 799 624 l 799 71 l 907 58 l 907 0 l 565 0 l 565 58 l 668 72 l 668 431 q 656 569 668 517 q 611 647 644 621 q 517 674 578 674 q 318 603 419 674 l 318 72 l 418 58 l 418 0 l 93 0 l 93 58 l 186 71 m 478 -28 q 581 -96 544 -46 q 617 -200 617 -146 q 589 -308 617 -257 q 521 -392 561 -358 q 447 -435 481 -425 l 410 -400 l 410 -382 q 462 -322 446 -365 q 478 -228 478 -279 q 466 -181 478 -203 q 438 -147 454 -160 q 408 -135 421 -135 l 408 -99 l 478 -28 z "},"ñ":{"ha":947,"x_min":89,"x_max":907,"o":"m 89 0 m 186 71 l 186 624 l 89 676 l 89 719 l 269 772 l 300 758 l 300 663 q 435 739 351 706 q 588 772 518 772 q 751 698 703 772 q 799 454 799 624 l 799 71 l 907 58 l 907 0 l 565 0 l 565 58 l 668 72 l 668 431 q 656 569 668 517 q 611 647 644 621 q 517 674 578 674 q 318 603 419 674 l 318 72 l 418 58 l 418 0 l 93 0 l 93 58 l 186 71 m 240 1011 q 322 1094 267 1058 q 429 1129 376 1129 q 481 1117 460 1129 q 531 1079 503 1104 q 568 1048 551 1058 q 606 1038 585 1038 q 731 1101 664 1038 l 765 1053 q 685 969 739 1004 q 578 933 631 933 q 524 947 546 933 q 476 985 501 960 q 438 1015 453 1006 q 401 1025 422 1025 q 276 961 340 1025 l 240 1011 z "},"o":{"ha":835,"x_min":69,"x_max":768,"o":"m 433 782 q 619 731 543 782 q 731 592 694 681 q 768 393 768 504 q 721 181 768 274 q 592 35 674 88 q 414 -17 511 -17 q 219 38 296 -17 q 106 184 142 93 q 69 386 69 275 q 119 596 69 506 q 253 734 169 686 q 433 782 338 782 m 417 710 q 208 401 208 710 q 265 158 208 257 q 425 60 321 60 q 581 141 533 60 q 629 382 629 222 q 576 619 629 529 q 417 710 524 710 z "},"ó":{"ha":835,"x_min":69,"x_max":768,"o":"m 69 0 m 433 782 q 619 731 543 782 q 731 592 694 681 q 768 393 768 504 q 721 181 768 274 q 592 35 674 88 q 414 -17 511 -17 q 219 38 296 -17 q 106 184 142 93 q 69 386 69 275 q 119 596 69 506 q 253 734 169 686 q 433 782 338 782 m 417 710 q 208 401 208 710 q 265 158 208 257 q 425 60 321 60 q 581 141 533 60 q 629 382 629 222 q 576 619 629 529 q 417 710 524 710 m 531 1207 l 629 1106 q 515 996 593 1050 q 367 908 438 942 l 331 946 l 531 1207 z "},"ô":{"ha":835,"x_min":69,"x_max":768,"o":"m 69 0 m 433 782 q 619 731 543 782 q 731 592 694 681 q 768 393 768 504 q 721 181 768 274 q 592 35 674 88 q 414 -17 511 -17 q 219 38 296 -17 q 106 184 142 93 q 69 386 69 275 q 119 596 69 506 q 253 734 169 686 q 433 782 338 782 m 417 710 q 208 401 208 710 q 265 158 208 257 q 425 60 321 60 q 581 141 533 60 q 629 382 629 222 q 576 619 629 529 q 417 710 524 710 m 365 1204 l 494 1204 l 672 938 l 614 906 l 429 1088 l 232 906 l 181 936 l 365 1204 z "},"ö":{"ha":835,"x_min":69,"x_max":768,"o":"m 69 0 m 433 782 q 619 731 543 782 q 731 592 694 681 q 768 393 768 504 q 721 181 768 274 q 592 35 674 88 q 414 -17 511 -17 q 219 38 296 -17 q 106 184 142 93 q 69 386 69 275 q 119 596 69 506 q 253 734 169 686 q 433 782 338 782 m 417 710 q 208 401 208 710 q 265 158 208 257 q 425 60 321 60 q 581 141 533 60 q 629 382 629 222 q 576 619 629 529 q 417 710 524 710 m 263 938 q 203 959 228 938 q 178 1018 178 981 q 209 1088 178 1060 q 278 1117 240 1117 q 342 1093 321 1117 q 364 1033 364 1069 q 333 964 364 990 q 263 938 303 938 m 578 938 q 519 959 543 938 q 494 1018 494 981 q 525 1088 494 1060 q 593 1117 556 1117 q 658 1093 636 1117 q 679 1033 679 1069 q 649 964 679 990 q 578 938 618 938 z "},"ò":{"ha":835,"x_min":69,"x_max":768,"o":"m 69 0 m 433 782 q 619 731 543 782 q 731 592 694 681 q 768 393 768 504 q 721 181 768 274 q 592 35 674 88 q 414 -17 511 -17 q 219 38 296 -17 q 106 184 142 93 q 69 386 69 275 q 119 596 69 506 q 253 734 169 686 q 433 782 338 782 m 417 710 q 208 401 208 710 q 265 158 208 257 q 425 60 321 60 q 581 141 533 60 q 629 382 629 222 q 576 619 629 529 q 417 710 524 710 m 515 908 q 367 996 444 942 q 253 1106 289 1050 l 353 1207 l 551 946 l 515 908 z "},"ő":{"ha":835,"x_min":69,"x_max":813,"o":"m 69 0 m 433 782 q 619 731 543 782 q 731 592 694 681 q 768 393 768 504 q 721 181 768 274 q 592 35 674 88 q 414 -17 511 -17 q 219 38 296 -17 q 106 184 142 93 q 69 386 69 275 q 119 596 69 506 q 253 734 169 686 q 433 782 338 782 m 417 710 q 208 401 208 710 q 265 158 208 257 q 425 60 321 60 q 581 141 533 60 q 629 382 629 222 q 576 619 629 529 q 417 710 524 710 m 394 1228 l 479 1147 q 353 1019 436 1090 q 211 908 271 949 l 175 946 l 394 1228 m 726 1228 l 813 1147 q 685 1019 768 1090 q 543 908 603 947 l 507 946 l 726 1228 z "},"ō":{"ha":833,"x_min":69,"x_max":768,"o":"m 69 0 m 578 1079 l 578 979 l 218 979 l 218 1079 l 578 1079 m 433 782 q 619 731 543 782 q 731 592 694 681 q 768 393 768 504 q 721 181 768 274 q 592 35 674 88 q 414 -17 511 -17 q 219 38 296 -17 q 106 184 142 93 q 69 386 69 275 q 119 596 69 506 q 253 734 169 686 q 433 782 338 782 m 417 710 q 208 401 208 710 q 265 158 208 257 q 425 60 321 60 q 581 141 533 60 q 629 382 629 222 q 576 619 629 529 q 417 710 524 710 z "},"ø":{"ha":835,"x_min":69,"x_max":767,"o":"m 264 13 q 117 155 165 56 q 69 383 69 254 q 119 593 69 503 q 251 732 168 683 q 431 782 333 781 q 526 771 479 782 l 565 883 l 619 863 l 582 750 q 719 613 671 707 q 767 399 767 519 q 720 183 767 278 q 592 36 674 89 q 413 -17 511 -17 q 322 -6 367 -17 l 281 -132 l 222 -110 l 264 13 m 496 693 q 417 710 464 710 q 258 631 308 710 q 208 401 208 551 q 231 233 208 310 q 300 111 254 157 l 496 693 m 351 75 q 425 60 382 60 q 581 141 533 60 q 628 382 628 222 q 547 656 628 575 l 351 75 z "},"õ":{"ha":835,"x_min":69,"x_max":768,"o":"m 69 0 m 433 782 q 619 731 543 782 q 731 592 694 681 q 768 393 768 504 q 721 181 768 274 q 592 35 674 88 q 414 -17 511 -17 q 219 38 296 -17 q 106 184 142 93 q 69 386 69 275 q 119 596 69 506 q 253 734 169 686 q 433 782 338 782 m 417 710 q 208 401 208 710 q 265 158 208 257 q 425 60 321 60 q 581 141 533 60 q 629 382 629 222 q 576 619 629 529 q 417 710 524 710 m 158 1011 q 240 1094 185 1058 q 347 1129 294 1129 q 399 1117 378 1129 q 449 1079 421 1104 q 486 1048 469 1058 q 524 1038 503 1038 q 649 1101 582 1038 l 683 1053 q 603 969 657 1004 q 496 933 549 933 q 442 947 464 933 q 394 985 419 960 q 356 1015 371 1006 q 319 1025 340 1025 q 194 961 258 1025 l 158 1011 z "},"œ":{"ha":1375,"x_min":69,"x_max":1308,"o":"m 1049 782 q 1240 701 1171 782 q 1308 481 1308 621 q 1300 369 1308 428 l 797 369 q 867 155 797 233 q 1061 76 936 76 q 1173 88 1114 76 q 1261 117 1232 100 l 1286 60 q 1168 4 1247 25 q 1010 -17 1089 -17 q 827 30 903 -17 q 711 164 751 76 q 585 31 663 79 q 414 -17 507 -17 q 219 38 296 -17 q 106 184 142 93 q 69 386 69 275 q 120 596 69 506 q 254 734 171 686 q 435 782 338 782 q 613 734 539 782 q 725 603 686 686 q 860 735 776 688 q 1049 782 943 782 m 417 710 q 208 401 208 710 q 265 158 208 257 q 425 60 321 60 q 581 141 533 60 q 629 382 629 222 q 576 619 629 529 q 417 710 524 710 m 1008 708 q 867 645 925 708 q 799 450 808 582 l 1169 450 q 1171 496 1171 465 q 1155 611 1171 563 q 1099 686 1139 660 q 1008 708 1064 708 z "},"p":{"ha":897,"x_min":83,"x_max":831,"o":"m 532 782 q 681 744 614 782 q 790 621 749 706 q 831 404 831 536 q 781 193 831 289 q 644 41 732 97 q 443 -15 556 -15 q 306 6 386 -15 l 310 -176 l 310 -275 l 442 -289 l 442 -347 l 85 -347 l 85 -289 l 179 -274 l 179 624 l 83 676 l 83 719 l 263 772 l 293 758 l 293 679 q 392 751 328 719 q 532 782 456 782 m 478 694 q 383 674 422 694 q 308 624 343 653 l 310 115 q 364 72 326 88 q 460 56 401 56 q 577 91 522 56 q 666 203 632 126 q 700 399 700 281 q 636 623 700 551 q 478 694 572 694 z "},"þ":{"ha":857,"x_min":22,"x_max":789,"o":"m 268 1090 l 268 694 q 366 758 314 733 q 489 782 418 782 q 638 744 569 782 q 747 622 706 706 q 789 410 789 539 q 740 196 789 294 q 604 39 692 97 q 406 -19 517 -19 q 264 -6 336 -19 l 267 -69 l 268 -275 l 401 -289 l 401 -347 l 43 -347 l 43 -289 l 138 -274 l 138 994 l 22 1018 l 22 1078 l 240 1101 l 268 1090 m 435 688 q 338 668 381 688 q 268 624 294 649 l 268 107 q 319 66 278 79 q 421 53 360 53 q 538 90 483 53 q 626 206 593 128 q 660 397 660 283 q 628 563 660 497 q 545 658 596 628 q 435 688 494 688 z "},"q":{"ha":842,"x_min":68,"x_max":811,"o":"m 469 782 q 547 775 508 782 q 611 757 586 768 l 693 774 l 719 760 l 719 -268 l 811 -282 l 811 -347 l 450 -347 l 450 -282 l 589 -268 l 589 -32 l 593 72 q 501 9 558 38 q 364 -19 444 -19 q 233 11 300 -19 q 117 128 167 42 q 68 371 68 215 q 119 579 68 485 q 263 728 171 674 q 469 782 354 782 m 447 710 q 267 625 336 710 q 197 383 197 540 q 255 155 197 235 q 411 75 313 75 q 517 94 471 75 q 589 139 563 113 l 589 656 q 447 710 546 710 z "},"r":{"ha":626,"x_min":76,"x_max":599,"o":"m 186 72 l 186 624 l 89 676 l 89 719 l 268 772 l 300 758 l 300 654 q 400 733 328 694 q 532 772 472 772 q 599 768 582 772 l 599 629 q 573 638 593 631 q 530 648 553 644 q 478 651 507 651 q 390 639 428 651 q 318 604 353 626 l 318 74 l 511 58 l 511 0 l 76 0 l 76 58 l 186 72 z "},"ŕ":{"ha":626,"x_min":76,"x_max":599,"o":"m 76 0 m 186 72 l 186 624 l 89 676 l 89 719 l 268 772 l 300 758 l 300 654 q 400 733 328 694 q 532 772 472 772 q 599 768 582 772 l 599 629 q 573 638 593 631 q 530 648 553 644 q 478 651 507 651 q 390 639 428 651 q 318 604 353 626 l 318 74 l 511 58 l 511 0 l 76 0 l 76 58 l 186 72 m 406 1207 l 504 1106 q 390 996 468 1050 q 242 908 313 942 l 206 946 l 406 1207 z "},"ř":{"ha":626,"x_min":76,"x_max":639,"o":"m 76 0 m 186 72 l 186 624 l 89 676 l 89 719 l 268 772 l 300 758 l 300 654 q 400 733 328 694 q 532 772 472 772 q 599 768 582 772 l 599 629 q 573 638 593 631 q 530 648 553 644 q 478 651 507 651 q 390 639 428 651 q 318 604 353 626 l 318 74 l 511 58 l 511 0 l 76 0 l 76 58 l 186 72 m 206 1203 l 396 1022 l 588 1204 l 639 1172 l 460 906 l 332 906 l 147 1172 l 206 1203 z "},"ŗ":{"ha":626,"x_min":76,"x_max":599,"o":"m 76 0 m 186 72 l 186 624 l 89 676 l 89 719 l 268 772 l 300 758 l 300 654 q 400 733 328 694 q 532 772 472 772 q 599 768 582 772 l 599 629 q 573 638 593 631 q 530 648 553 644 q 478 651 507 651 q 390 639 428 651 q 318 604 353 626 l 318 74 l 511 58 l 511 0 l 76 0 l 76 58 l 186 72 m 249 -28 q 351 -96 315 -46 q 388 -200 388 -146 q 360 -308 388 -257 q 292 -392 332 -358 q 218 -435 251 -425 l 181 -400 l 181 -382 q 233 -322 217 -365 q 249 -228 249 -279 q 237 -181 249 -203 q 208 -147 225 -160 q 179 -135 192 -135 l 179 -99 l 249 -28 z "},"s":{"ha":711,"x_min":114,"x_max":647,"o":"m 174 197 l 201 114 q 273 70 238 83 q 358 57 308 57 q 478 89 433 57 q 522 185 522 121 q 488 257 522 231 q 379 317 454 283 q 329 340 363 324 q 176 440 232 386 q 119 572 119 493 q 161 689 119 642 q 267 759 203 736 q 397 782 331 782 q 513 768 458 782 q 601 735 568 754 l 601 589 l 544 589 l 515 665 q 466 701 493 688 q 397 714 439 714 q 286 685 328 714 q 244 597 244 656 q 281 522 244 551 q 397 454 318 492 l 433 438 q 549 378 510 401 q 617 315 588 356 q 647 215 647 275 q 564 44 647 104 q 350 -17 481 -17 q 226 -2 288 -17 q 114 42 164 13 l 114 197 l 174 197 z "},"š":{"ha":690,"x_min":106,"x_max":643,"o":"m 164 1203 l 354 1022 l 546 1204 l 597 1172 l 418 906 l 290 906 l 106 1172 l 164 1203 m 171 197 l 197 114 q 270 70 235 83 q 356 57 306 57 q 474 90 429 57 q 519 185 519 122 q 485 257 519 231 q 376 317 451 283 q 326 340 360 324 q 172 440 229 386 q 115 574 115 493 q 158 689 115 642 q 264 759 200 736 q 393 782 328 782 q 510 768 456 782 q 599 735 564 754 l 599 589 l 540 589 l 511 665 q 394 714 468 714 q 283 685 325 714 q 242 594 242 656 q 281 517 242 547 q 401 451 321 488 q 431 438 411 446 q 545 378 507 401 q 613 315 583 356 q 643 215 643 275 q 560 44 643 104 q 347 -17 476 -17 q 223 -2 285 -17 q 111 42 161 13 l 111 197 l 171 197 z "},"ş":{"ha":711,"x_min":114,"x_max":647,"o":"m 646 215 q 565 46 646 106 q 357 -17 483 -14 q 356 -51 356 -28 q 357 -86 356 -75 q 486 -125 443 -86 q 529 -214 529 -164 q 482 -317 529 -279 q 358 -358 435 -354 l 325 -360 q 256 -353 281 -360 q 224 -344 231 -346 l 225 -276 q 263 -283 240 -281 q 301 -286 285 -286 q 372 -272 347 -286 q 396 -211 396 -257 q 369 -161 396 -179 q 290 -143 343 -143 q 269 -144 278 -143 q 257 -146 260 -146 q 278 -12 257 -87 q 114 42 186 0 l 114 197 l 174 197 l 201 114 q 273 70 238 83 q 358 57 308 57 q 478 89 433 57 q 522 185 522 121 q 488 257 522 231 q 379 317 454 283 q 329 340 363 324 q 176 440 232 386 q 119 572 119 493 q 161 689 119 642 q 267 759 203 736 q 397 782 331 782 q 513 768 458 782 q 601 735 568 754 l 601 589 l 544 589 l 515 665 q 466 701 493 688 q 397 714 439 714 q 286 685 328 714 q 244 597 244 656 q 281 522 244 551 q 397 454 318 492 l 433 438 q 549 378 510 401 q 617 315 588 356 q 647 215 647 275 l 646 215 z "},"ș":{"ha":711,"x_min":114,"x_max":647,"o":"m 114 0 m 174 197 l 201 114 q 273 70 238 83 q 358 57 308 57 q 478 89 433 57 q 522 185 522 121 q 488 257 522 231 q 379 317 454 283 q 329 340 363 324 q 176 440 232 386 q 119 572 119 493 q 161 689 119 642 q 267 759 203 736 q 397 782 331 782 q 513 768 458 782 q 601 735 568 754 l 601 589 l 544 589 l 515 665 q 466 701 493 688 q 397 714 439 714 q 286 685 328 714 q 244 597 244 656 q 281 522 244 551 q 397 454 318 492 l 433 438 q 549 378 510 401 q 617 315 588 356 q 647 215 647 275 q 564 44 647 104 q 350 -17 481 -17 q 226 -2 288 -17 q 114 42 164 13 l 114 197 l 174 197 m 339 -44 q 442 -112 406 -62 q 478 -217 478 -162 q 450 -324 478 -274 q 382 -408 422 -375 q 308 -451 342 -442 l 271 -417 l 271 -399 q 323 -339 307 -382 q 339 -244 339 -296 q 327 -198 339 -219 q 299 -164 315 -176 q 269 -151 282 -151 l 269 -115 l 339 -44 z "},"ß":{"ha":904,"x_min":46,"x_max":888,"o":"m 154 79 l 154 596 q 204 863 154 754 q 338 1024 254 971 q 519 1076 421 1076 q 670 1030 610 1076 q 731 876 731 983 q 711 776 731 817 q 656 686 692 736 q 610 613 625 643 q 596 546 596 583 q 626 478 596 504 q 718 419 656 451 q 806 367 772 390 q 864 304 840 343 q 888 210 888 265 q 808 42 888 99 q 607 -14 728 -14 q 457 -1 511 -14 l 457 115 q 617 61 561 61 q 722 90 681 61 q 763 188 763 118 q 728 260 763 232 q 626 325 694 289 q 544 372 575 351 q 492 422 514 392 q 471 494 471 453 q 487 553 471 522 q 533 632 503 585 q 594 740 574 696 q 614 831 614 783 q 581 949 614 903 q 483 996 549 996 q 365 958 408 996 q 302 835 321 921 q 283 596 283 749 l 283 0 l 46 0 l 46 58 l 154 79 z "},"t":{"ha":585,"x_min":76,"x_max":546,"o":"m 307 758 l 535 758 l 535 674 l 307 674 l 307 332 q 312 168 307 218 q 333 99 317 118 q 386 79 349 79 q 463 90 419 79 q 524 113 507 101 l 546 53 q 452 3 517 22 q 335 -17 388 -17 q 179 178 179 -17 l 179 674 l 76 674 l 76 724 q 113 732 99 731 q 170 751 154 743 q 197 786 186 760 q 220 860 206 808 q 240 940 235 911 l 307 940 l 307 758 z "},"ť":{"ha":585,"x_min":76,"x_max":550,"o":"m 76 0 m 307 758 l 535 758 l 535 674 l 307 674 l 307 332 q 312 168 307 218 q 333 99 317 118 q 386 79 349 79 q 463 90 419 79 q 524 113 507 101 l 546 53 q 452 3 517 22 q 335 -17 388 -17 q 179 178 179 -17 l 179 674 l 76 674 l 76 724 q 113 732 99 731 q 170 751 154 743 q 197 786 186 760 q 220 860 206 808 q 240 940 235 911 l 307 940 l 307 758 m 403 928 q 425 1094 425 1006 q 414 1201 425 1151 q 390 1268 403 1251 l 400 1297 l 506 1324 q 538 1259 525 1304 q 550 1164 550 1214 q 524 999 550 1082 q 461 886 497 917 l 406 910 l 403 928 z "},"ț":{"ha":585,"x_min":76,"x_max":546,"o":"m 76 0 m 307 758 l 535 758 l 535 674 l 307 674 l 307 332 q 312 168 307 218 q 333 99 317 118 q 386 79 349 79 q 463 90 419 79 q 524 113 507 101 l 546 53 q 452 3 517 22 q 335 -17 388 -17 q 179 178 179 -17 l 179 674 l 76 674 l 76 724 q 113 732 99 731 q 170 751 154 743 q 197 786 186 760 q 220 860 206 808 q 240 940 235 911 l 307 940 l 307 758 m 311 -28 q 414 -96 378 -46 q 450 -200 450 -146 q 422 -308 450 -257 q 354 -392 394 -358 q 281 -435 314 -425 l 243 -400 l 243 -382 q 295 -322 279 -365 q 311 -228 311 -279 q 299 -181 311 -203 q 271 -147 288 -160 q 242 -135 254 -135 l 242 -99 l 311 -28 z "},"u":{"ha":876,"x_min":75,"x_max":817,"o":"m 75 683 l 75 735 l 250 772 l 274 760 l 274 293 q 285 169 274 214 q 329 101 297 124 q 419 79 361 79 q 529 106 474 79 q 607 156 585 132 l 607 657 l 522 678 l 522 733 l 717 772 l 735 761 l 735 58 l 817 58 l 817 6 q 758 -15 796 -6 q 690 -24 721 -24 q 619 35 619 -24 l 619 90 q 497 13 561 40 q 369 -14 432 -14 q 220 26 268 -14 q 159 132 172 67 q 144 313 146 197 l 144 663 l 75 683 z "},"ú":{"ha":876,"x_min":75,"x_max":817,"o":"m 522 1207 l 621 1106 q 507 996 585 1050 q 358 908 429 942 l 322 946 l 522 1207 m 75 683 l 75 735 l 250 772 l 274 760 l 274 293 q 285 169 274 214 q 329 101 297 124 q 419 79 361 79 q 529 106 474 79 q 607 156 585 132 l 607 657 l 522 678 l 522 733 l 717 772 l 735 761 l 735 58 l 817 58 l 817 6 q 758 -15 796 -6 q 690 -24 721 -24 q 619 35 619 -24 l 619 90 q 497 13 561 40 q 369 -14 432 -14 q 220 26 268 -14 q 159 132 172 67 q 144 313 146 197 l 144 663 l 75 683 z "},"û":{"ha":876,"x_min":75,"x_max":817,"o":"m 357 1204 l 486 1204 l 664 938 l 606 906 l 421 1088 l 224 906 l 172 936 l 357 1204 m 75 683 l 75 735 l 250 772 l 274 760 l 274 293 q 285 169 274 214 q 329 101 297 124 q 419 79 361 79 q 529 106 474 79 q 607 156 585 132 l 607 657 l 522 678 l 522 733 l 717 772 l 735 761 l 735 58 l 817 58 l 817 6 q 758 -15 796 -6 q 690 -24 721 -24 q 619 35 619 -24 l 619 90 q 497 13 561 40 q 369 -14 432 -14 q 220 26 268 -14 q 159 132 172 67 q 144 313 146 197 l 144 663 l 75 683 z "},"ü":{"ha":876,"x_min":75,"x_max":817,"o":"m 75 0 m 75 683 l 75 735 l 250 772 l 274 760 l 274 293 q 285 169 274 214 q 329 101 297 124 q 419 79 361 79 q 529 106 474 79 q 607 156 585 132 l 607 657 l 522 678 l 522 733 l 717 772 l 735 761 l 735 58 l 817 58 l 817 6 q 758 -15 796 -6 q 690 -24 721 -24 q 619 35 619 -24 l 619 90 q 497 13 561 40 q 369 -14 432 -14 q 220 26 268 -14 q 159 132 172 67 q 144 313 146 197 l 144 663 l 75 683 m 256 938 q 196 959 221 938 q 171 1018 171 981 q 202 1088 171 1060 q 271 1117 233 1117 q 335 1093 314 1117 q 357 1033 357 1069 q 326 964 357 990 q 256 938 296 938 m 571 938 q 512 959 536 938 q 488 1018 488 981 q 518 1088 488 1060 q 586 1117 549 1117 q 651 1093 629 1117 q 672 1033 672 1069 q 642 964 672 990 q 571 938 611 938 z "},"ù":{"ha":876,"x_min":75,"x_max":817,"o":"m 506 908 q 357 996 435 942 q 243 1106 279 1050 l 342 1207 l 542 946 l 506 908 m 75 683 l 75 735 l 250 772 l 274 760 l 274 293 q 285 169 274 214 q 329 101 297 124 q 419 79 361 79 q 529 106 474 79 q 607 156 585 132 l 607 657 l 522 678 l 522 733 l 717 772 l 735 761 l 735 58 l 817 58 l 817 6 q 758 -15 796 -6 q 690 -24 721 -24 q 619 35 619 -24 l 619 90 q 497 13 561 40 q 369 -14 432 -14 q 220 26 268 -14 q 159 132 172 67 q 144 313 146 197 l 144 663 l 75 683 z "},"ű":{"ha":876,"x_min":75,"x_max":868,"o":"m 75 0 m 75 683 l 75 735 l 250 772 l 274 760 l 274 293 q 285 169 274 214 q 329 101 297 124 q 419 79 361 79 q 529 106 474 79 q 607 156 585 132 l 607 657 l 522 678 l 522 733 l 717 772 l 735 761 l 735 58 l 817 58 l 817 6 q 758 -15 796 -6 q 690 -24 721 -24 q 619 35 619 -24 l 619 90 q 497 13 561 40 q 369 -14 432 -14 q 220 26 268 -14 q 159 132 172 67 q 144 313 146 197 l 144 663 l 75 683 m 450 1228 l 535 1147 q 409 1019 492 1090 q 267 908 326 949 l 231 946 l 450 1228 m 782 1228 l 868 1147 q 741 1019 824 1090 q 599 908 658 947 l 563 946 l 782 1228 z "},"ū":{"ha":876,"x_min":75,"x_max":817,"o":"m 75 0 m 75 683 l 75 735 l 250 772 l 274 760 l 274 293 q 285 169 274 214 q 329 101 297 124 q 419 79 361 79 q 529 106 474 79 q 607 156 585 132 l 607 657 l 522 678 l 522 733 l 717 772 l 735 761 l 735 58 l 817 58 l 817 6 q 758 -15 796 -6 q 690 -24 721 -24 q 619 35 619 -24 l 619 90 q 497 13 561 40 q 369 -14 432 -14 q 220 26 268 -14 q 159 132 172 67 q 144 313 146 197 l 144 663 l 75 683 m 617 1079 l 617 979 l 257 979 l 257 1079 l 617 1079 z "},"ų":{"ha":876,"x_min":75,"x_max":817,"o":"m 703 -25 q 603 -108 646 -60 q 560 -192 560 -156 q 580 -253 560 -236 q 646 -272 600 -269 q 742 -251 696 -275 q 793 -224 789 -226 l 807 -283 q 709 -340 761 -318 q 572 -358 657 -362 q 472 -317 504 -354 q 439 -231 439 -281 q 497 -106 439 -171 q 632 -4 556 -42 q 619 35 619 11 l 619 90 q 497 13 561 40 q 369 -14 432 -14 q 220 26 268 -14 q 159 132 172 67 q 144 313 146 197 l 144 663 l 75 683 l 75 735 l 250 772 l 274 760 l 274 293 q 285 169 274 214 q 329 101 297 124 q 419 79 361 79 q 529 106 474 79 q 607 156 585 132 l 607 657 l 522 678 l 522 733 l 717 772 l 735 761 l 735 58 l 817 58 l 817 6 q 765 -13 799 -4 q 703 -24 732 -22 l 703 -25 z "},"ů":{"ha":876,"x_min":75,"x_max":817,"o":"m 75 0 m 75 683 l 75 735 l 250 772 l 274 760 l 274 293 q 285 169 274 214 q 329 101 297 124 q 419 79 361 79 q 529 106 474 79 q 607 156 585 132 l 607 657 l 522 678 l 522 733 l 717 772 l 735 761 l 735 58 l 817 58 l 817 6 q 758 -15 796 -6 q 690 -24 721 -24 q 619 35 619 -24 l 619 90 q 497 13 561 40 q 369 -14 432 -14 q 220 26 268 -14 q 159 132 172 67 q 144 313 146 197 l 144 663 l 75 683 m 431 1222 q 551 1174 501 1222 q 601 1058 601 1126 q 551 943 601 990 q 431 896 501 896 q 310 943 361 896 q 260 1058 260 990 q 310 1174 260 1126 q 431 1222 361 1222 m 431 1147 q 367 1120 393 1147 q 340 1057 340 1093 q 367 993 340 1019 q 431 967 393 967 q 494 993 468 967 q 521 1057 521 1019 q 494 1120 521 1093 q 431 1147 468 1147 z "},"v":{"ha":806,"x_min":1,"x_max":804,"o":"m 1 688 l 1 758 l 300 758 l 300 688 l 217 674 l 365 311 l 429 117 l 492 303 l 621 674 l 533 688 l 533 758 l 804 758 l 804 688 l 732 672 l 457 -17 l 365 -17 l 67 675 l 1 688 z "},"w":{"ha":1147,"x_min":1,"x_max":1146,"o":"m 1 688 l 1 758 l 297 758 l 297 688 l 203 672 l 331 260 l 368 113 l 399 258 l 526 758 l 643 758 l 775 260 l 813 113 l 850 254 l 956 674 l 872 688 l 872 758 l 1146 758 l 1146 688 l 1061 672 l 860 -17 l 740 -17 l 593 500 l 576 601 l 550 500 l 414 -17 l 301 -17 l 71 675 l 1 688 z "},"x":{"ha":792,"x_min":3,"x_max":789,"o":"m 106 72 l 332 368 l 96 675 l 3 688 l 3 758 l 343 758 l 343 688 l 249 675 l 381 481 l 413 431 l 440 478 l 575 676 l 478 688 l 478 758 l 783 758 l 783 688 l 679 674 l 458 385 l 700 71 l 789 58 l 789 0 l 454 0 l 454 58 l 547 72 l 376 314 l 347 263 l 214 72 l 338 58 l 338 0 l 4 0 l 4 58 l 106 72 z "},"y":{"ha":781,"x_min":1,"x_max":786,"o":"m 101 -231 q 156 -237 126 -237 q 276 -187 218 -237 q 374 0 333 -136 l 344 0 l 72 675 l 1 688 l 1 758 l 315 758 l 315 688 l 218 674 l 376 218 l 422 81 l 463 218 l 600 675 l 493 688 l 493 758 l 786 758 l 786 688 l 711 676 q 540 182 599 351 q 465 -26 481 13 q 351 -247 408 -171 q 215 -343 294 -324 q 156 -349 192 -349 q 124 -346 140 -349 q 101 -339 107 -343 l 101 -231 z "},"ý":{"ha":781,"x_min":1,"x_max":786,"o":"m 1 0 m 101 -231 q 156 -237 126 -237 q 276 -187 218 -237 q 374 0 333 -136 l 344 0 l 72 675 l 1 688 l 1 758 l 315 758 l 315 688 l 218 674 l 376 218 l 422 81 l 463 218 l 600 675 l 493 688 l 493 758 l 786 758 l 786 688 l 711 676 q 540 182 599 351 q 465 -26 481 13 q 351 -247 408 -171 q 215 -343 294 -324 q 156 -349 192 -349 q 124 -346 140 -349 q 101 -339 107 -343 l 101 -231 m 517 1207 l 615 1106 q 501 996 579 1050 q 353 908 424 942 l 317 946 l 517 1207 z "},"ÿ":{"ha":781,"x_min":1,"x_max":786,"o":"m 1 0 m 101 -231 q 156 -237 126 -237 q 276 -187 218 -237 q 374 0 333 -136 l 344 0 l 72 675 l 1 688 l 1 758 l 315 758 l 315 688 l 218 674 l 376 218 l 422 81 l 463 218 l 600 675 l 493 688 l 493 758 l 786 758 l 786 688 l 711 676 q 540 182 599 351 q 465 -26 481 13 q 351 -247 408 -171 q 215 -343 294 -324 q 156 -349 192 -349 q 124 -346 140 -349 q 101 -339 107 -343 l 101 -231 m 249 938 q 189 959 214 938 q 164 1018 164 981 q 195 1088 164 1060 q 264 1117 226 1117 q 328 1093 307 1117 q 350 1033 350 1069 q 319 964 350 990 q 249 938 289 938 m 564 938 q 505 959 529 938 q 481 1018 481 981 q 511 1088 481 1060 q 579 1117 542 1117 q 644 1093 622 1117 q 665 1033 665 1069 q 635 964 665 990 q 564 938 604 938 z "},"z":{"ha":731,"x_min":60,"x_max":692,"o":"m 685 703 l 288 154 l 219 67 l 579 82 l 622 196 l 692 196 l 681 0 l 82 0 l 60 56 l 107 119 l 472 629 l 528 694 l 196 685 l 154 560 l 92 560 l 92 758 l 667 758 l 685 703 z "},"ź":{"ha":731,"x_min":60,"x_max":692,"o":"m 60 0 m 685 703 l 288 154 l 219 67 l 579 82 l 622 196 l 692 196 l 681 0 l 82 0 l 60 56 l 107 119 l 472 629 l 528 694 l 196 685 l 154 560 l 92 560 l 92 758 l 667 758 l 685 703 m 461 1207 l 560 1106 q 446 996 524 1050 q 297 908 368 942 l 261 946 l 461 1207 z "},"ž":{"ha":731,"x_min":60,"x_max":692,"o":"m 60 0 m 685 703 l 288 154 l 219 67 l 579 82 l 622 196 l 692 196 l 681 0 l 82 0 l 60 56 l 107 119 l 472 629 l 528 694 l 196 685 l 154 560 l 92 560 l 92 758 l 667 758 l 685 703 m 192 1203 l 382 1022 l 574 1204 l 625 1172 l 446 906 l 318 906 l 133 1172 l 192 1203 z "},"ż":{"ha":731,"x_min":60,"x_max":692,"o":"m 60 0 m 685 703 l 288 154 l 219 67 l 579 82 l 622 196 l 692 196 l 681 0 l 82 0 l 60 56 l 107 119 l 472 629 l 528 694 l 196 685 l 154 560 l 92 560 l 92 758 l 667 758 l 685 703 m 378 1104 q 442 1081 421 1104 q 464 1021 464 1057 q 433 950 464 978 q 361 922 401 922 q 302 945 328 922 q 276 1006 276 968 q 308 1076 276 1047 q 378 1104 339 1104 z "},"ﬁ":{"ha":1031,"x_min":61,"x_max":993,"o":"m 489 1146 q 586 1133 564 1146 l 586 1018 q 540 1033 575 1026 q 463 1040 506 1040 q 395 1029 421 1040 q 356 981 369 1018 q 342 871 342 944 l 342 758 l 546 758 l 546 667 l 342 667 l 342 71 l 497 58 l 497 0 l 75 0 l 75 58 l 211 72 l 211 667 l 61 667 l 61 719 l 211 758 l 211 815 q 255 985 211 910 q 364 1103 299 1061 q 489 1146 429 1146 m 810 1115 q 874 1091 851 1115 q 896 1031 896 1067 q 865 960 896 988 q 793 932 833 932 q 734 955 760 932 q 708 1015 708 978 q 740 1086 708 1057 q 810 1115 772 1115 m 883 758 l 883 72 l 993 58 l 993 0 l 643 0 l 643 58 l 758 72 l 758 628 l 665 676 l 665 719 l 853 772 l 883 758 z "},"ﬂ":{"ha":1042,"x_min":61,"x_max":1008,"o":"m 211 72 l 211 667 l 61 667 l 61 719 l 211 758 l 211 815 q 255 985 211 910 q 364 1103 299 1061 q 489 1146 429 1146 q 586 1133 564 1146 l 586 1018 q 540 1033 575 1026 q 463 1040 506 1040 q 395 1029 421 1040 q 356 981 369 1018 q 342 871 342 944 l 342 758 l 546 758 l 546 667 l 342 667 l 342 71 l 497 58 l 497 0 l 75 0 l 75 58 l 211 72 m 756 72 l 756 990 l 647 1014 l 647 1074 l 860 1101 l 888 1086 l 888 72 l 1008 58 l 1008 0 l 640 0 l 640 58 l 756 72 z "},"ª":{"ha":654,"x_min":54,"x_max":600,"o":"m 317 1081 q 438 1066 390 1081 q 514 1008 486 1051 q 542 879 542 964 l 540 569 l 600 569 l 600 518 q 546 502 581 510 q 488 494 511 494 q 438 511 450 494 q 426 569 426 528 q 219 499 349 499 q 147 517 186 499 q 81 572 108 535 q 54 661 54 608 q 154 814 54 774 q 424 854 254 854 l 424 871 q 406 953 424 926 q 358 989 389 981 q 278 997 328 997 q 181 986 226 997 q 111 956 135 975 l 85 1015 q 183 1061 115 1042 q 317 1081 251 1081 m 422 792 q 244 767 307 792 q 181 683 181 743 q 206 607 181 635 q 271 579 232 579 q 354 592 310 579 q 422 625 399 604 l 422 792 z "},"º":{"ha":676,"x_min":63,"x_max":617,"o":"m 347 1081 q 544 1001 472 1081 q 617 788 617 922 q 574 625 617 690 q 465 529 531 560 q 333 499 400 499 q 195 532 257 499 q 98 630 133 565 q 63 783 63 694 q 105 950 63 883 q 213 1049 147 1017 q 347 1081 278 1081 m 342 1011 q 196 797 196 1011 q 214 677 196 729 q 263 597 232 625 q 331 568 294 568 q 416 585 383 568 q 466 648 449 603 q 483 776 483 693 q 445 947 483 882 q 342 1011 407 1011 z "},"Ω":{"ha":1321,"x_min":96,"x_max":1224,"o":"m 164 250 l 186 124 l 417 124 q 302 224 357 161 q 213 370 247 286 q 178 547 178 454 q 245 828 178 714 q 422 997 313 942 q 660 1053 532 1053 q 894 999 792 1053 q 1053 842 996 946 q 1111 594 1111 739 q 1076 423 1111 514 q 987 253 1042 332 q 874 124 932 174 l 1110 124 l 1157 271 l 1224 265 l 1193 0 l 732 0 l 732 113 q 901 298 839 176 q 964 581 964 419 q 921 810 964 717 q 806 951 878 904 q 650 997 735 997 q 479 947 553 997 q 365 799 406 897 q 324 558 324 700 q 361 363 324 453 q 456 210 399 274 q 572 113 513 146 l 572 0 l 96 0 l 96 244 l 164 250 z "},"μ":{"ha":960,"x_min":110,"x_max":850,"o":"m 179 -253 l 179 663 l 110 683 l 110 735 l 283 772 l 307 760 l 307 293 q 319 169 307 215 q 364 101 332 124 q 454 79 396 79 q 563 105 508 79 q 640 156 617 131 l 640 657 l 556 678 l 556 733 l 750 772 l 769 761 l 769 58 l 850 58 l 850 6 q 792 -15 829 -6 q 724 -24 754 -24 q 654 35 654 -24 l 654 90 q 531 13 596 39 q 404 -14 467 -14 q 307 -1 347 -14 l 307 -253 l 179 -253 z "},"π":{"ha":1079,"x_min":104,"x_max":978,"o":"m 978 832 q 913 685 972 740 q 763 628 853 631 l 740 176 q 774 111 740 111 q 838 135 806 111 q 882 194 869 160 l 956 194 q 913 102 944 151 q 836 18 882 53 q 738 -17 790 -17 q 669 24 688 -17 q 650 133 650 64 q 651 190 650 171 l 679 628 l 421 628 l 407 292 q 392 167 401 213 q 367 93 383 122 q 318 35 350 64 q 222 -17 278 0 l 125 78 q 169 93 136 79 q 226 124 201 107 q 301 208 282 161 q 325 332 321 254 l 340 628 l 299 628 q 223 609 258 628 q 175 560 188 590 l 106 568 q 104 585 104 572 q 115 635 104 613 q 199 726 146 694 q 322 758 253 758 l 772 758 q 854 775 821 758 q 907 832 888 792 l 978 832 z "},"ऄ":{"ha":1171,"x_min":13,"x_max":1174,"o":"m 1174 796 l 1021 796 l 1021 -61 l 999 -61 l 899 -4 l 899 319 l 896 319 q 814 303 860 303 q 725 321 767 303 q 640 372 683 339 l 633 368 q 665 238 665 311 q 604 80 665 138 q 442 22 543 22 q 190 122 292 22 q 13 361 89 222 l 60 392 q 211 211 122 289 q 390 133 300 133 q 508 179 461 133 q 556 289 556 225 q 540 370 556 331 q 494 438 525 410 q 307 400 415 414 l 258 489 l 274 526 q 456 564 397 533 q 517 615 494 586 q 539 689 539 644 q 498 775 539 738 q 403 813 457 813 q 197 715 306 813 l 133 836 q 246 895 174 865 q 356 925 318 925 q 475 880 411 924 q 583 769 539 836 q 626 639 626 703 q 608 553 626 599 q 551 471 590 508 q 652 428 596 446 q 757 411 708 411 q 896 454 832 411 l 896 799 l 693 799 l 649 881 l 649 903 l 911 903 q 922 950 922 925 q 887 1051 922 1010 q 771 1093 851 1093 q 644 1083 729 1093 q 500 1072 542 1072 q 352 1099 424 1072 q 235 1165 281 1125 q 190 1240 190 1204 q 222 1376 190 1297 l 290 1367 q 265 1264 265 1301 q 296 1210 265 1228 q 381 1193 326 1193 q 553 1204 406 1193 q 747 1215 711 1215 q 929 1119 846 1215 q 996 976 996 1038 q 985 903 996 947 l 1126 903 l 1171 819 l 1174 796 z "},"ॲ":{"ha":1171,"x_min":13,"x_max":1275,"o":"m 13 0 m 1174 796 l 1021 796 l 1021 -61 l 999 -61 l 899 -4 l 899 319 l 896 319 q 814 303 860 303 q 725 321 767 303 q 640 372 683 339 l 633 368 q 665 238 665 311 q 604 80 665 138 q 442 22 543 22 q 190 122 292 22 q 13 361 89 222 l 60 392 q 211 211 122 289 q 390 133 300 133 q 508 179 461 133 q 556 289 556 225 q 540 370 556 331 q 494 438 525 410 q 307 400 415 414 l 258 489 l 274 526 q 456 564 397 533 q 517 615 494 586 q 539 689 539 644 q 498 775 539 738 q 403 813 457 813 q 197 715 306 813 l 133 836 q 246 895 174 865 q 356 925 318 925 q 475 880 411 924 q 583 769 539 836 q 626 639 626 703 q 608 553 626 599 q 551 471 590 508 q 652 428 596 446 q 757 411 708 411 q 896 454 832 411 l 896 799 l 693 799 l 649 881 l 649 903 l 1126 903 l 1171 819 l 1174 796 m 1275 1190 q 1154 1083 1219 1121 q 994 1044 1089 1044 q 809 1110 890 1044 q 675 1265 728 1176 l 719 1285 q 942 1136 825 1136 q 1088 1178 1024 1136 q 1186 1275 1151 1219 l 1275 1190 z "},"अ":{"ha":1171,"x_min":13,"x_max":1174,"o":"m 1174 796 l 1021 796 l 1021 -61 l 999 -61 l 899 -4 l 899 319 l 896 319 q 814 303 860 303 q 725 321 767 303 q 640 372 683 339 l 633 368 q 665 238 665 311 q 604 80 665 138 q 442 22 543 22 q 190 122 292 22 q 13 361 89 222 l 60 392 q 211 211 122 289 q 390 133 300 133 q 508 179 461 133 q 556 289 556 225 q 540 370 556 331 q 494 438 525 410 q 307 400 415 414 l 258 489 l 274 526 q 456 564 397 533 q 517 615 494 586 q 539 689 539 644 q 498 775 539 738 q 403 813 457 813 q 197 715 306 813 l 133 836 q 246 895 174 865 q 356 925 318 925 q 475 880 411 924 q 583 769 539 836 q 626 639 626 703 q 608 553 626 599 q 551 471 590 508 q 652 428 596 446 q 757 411 708 411 q 896 454 832 411 l 896 799 l 693 799 l 649 881 l 649 903 l 1126 903 l 1171 819 l 1174 796 z "},"आ":{"ha":1597,"x_min":13,"x_max":1600,"o":"m 1600 796 l 1449 796 l 1449 -61 l 1426 -61 l 1325 -4 l 1325 796 l 1021 796 l 1021 -61 l 999 -61 l 899 -4 l 899 319 l 896 319 q 814 303 860 303 q 725 321 767 303 q 640 372 683 339 l 633 368 q 665 238 665 311 q 604 80 665 138 q 442 22 543 22 q 190 122 292 22 q 13 361 89 222 l 60 392 q 211 211 122 289 q 390 133 300 133 q 508 179 461 133 q 556 289 556 225 q 540 370 556 331 q 494 438 525 410 q 307 400 415 414 l 258 489 l 274 526 q 456 564 397 533 q 517 615 494 586 q 539 689 539 644 q 498 775 539 738 q 403 813 457 813 q 197 715 306 813 l 133 836 q 246 895 174 865 q 356 925 318 925 q 475 880 411 924 q 583 769 539 836 q 626 639 626 703 q 608 553 626 599 q 551 471 590 508 q 652 428 596 446 q 757 411 708 411 q 896 454 832 411 l 896 799 l 693 799 l 649 881 l 649 903 l 1553 903 l 1597 819 l 1600 796 z "},"इ":{"ha":718,"x_min":-43,"x_max":718,"o":"m 275 576 q 212 547 231 576 q 193 481 193 518 q 211 426 193 451 q 250 401 229 401 q 308 409 275 401 q 372 425 342 417 q 464 443 436 443 q 536 406 501 443 q 592 314 571 369 q 613 207 613 258 q 576 110 613 156 q 477 33 539 64 q 343 -3 415 3 l 465 -187 l 378 -232 l 268 -1 q 141 33 197 6 q 85 106 85 61 q 101 158 85 135 q 139 196 117 182 q 181 210 161 210 q 203 207 194 210 l 274 100 q 472 142 392 104 q 551 246 551 179 q 542 303 551 274 q 517 339 532 332 q 435 321 494 339 q 372 305 404 313 q 314 297 339 297 q 233 333 282 297 q 149 422 185 369 q 114 518 114 474 q 148 642 114 596 q 243 688 182 688 l 443 688 l 443 799 l 0 799 l -43 881 l -43 903 l 674 903 l 718 819 l 718 799 l 565 799 l 565 576 l 275 576 z "},"ई":{"ha":718,"x_min":-43,"x_max":733,"o":"m 674 903 l 718 819 l 718 799 l 565 799 l 565 576 l 275 576 q 212 547 231 576 q 193 481 193 518 q 211 426 193 451 q 250 401 229 401 q 308 409 275 401 q 372 425 342 417 q 464 443 436 443 q 536 406 501 443 q 592 314 571 369 q 613 207 613 258 q 576 110 613 156 q 477 33 539 64 q 343 -3 415 3 l 465 -187 l 378 -232 l 268 -1 q 141 33 197 6 q 85 106 85 61 q 101 158 85 135 q 139 196 117 182 q 181 210 161 210 q 203 207 194 210 l 274 100 q 472 142 392 104 q 551 246 551 179 q 542 303 551 274 q 517 339 532 332 q 435 321 494 339 q 372 305 404 313 q 314 297 339 297 q 233 333 282 297 q 149 422 185 369 q 114 518 114 474 q 148 642 114 596 q 243 688 182 688 l 443 688 l 443 799 l 0 799 l -43 881 l -43 903 l 440 903 l 440 906 q 322 1032 368 963 q 276 1168 276 1101 q 309 1272 276 1226 q 396 1341 342 1317 q 511 1365 450 1365 q 629 1338 571 1365 q 733 1261 688 1310 l 697 1203 q 622 1243 669 1224 q 532 1263 574 1263 q 443 1228 478 1263 q 408 1131 408 1194 q 445 1010 408 1074 q 531 903 482 947 l 674 903 z "},"उ":{"ha":839,"x_min":-43,"x_max":839,"o":"m 839 799 l 563 799 q 634 690 606 742 q 663 603 663 638 q 585 450 663 508 q 753 207 753 324 q 726 105 753 157 q 648 19 699 53 q 531 -15 597 -15 q 321 50 419 -15 q 151 203 222 115 q 35 371 79 290 l 83 407 q 185 265 119 338 q 330 144 251 193 q 479 96 408 96 q 566 118 528 96 q 624 176 604 140 q 644 247 644 211 q 610 336 644 296 q 519 414 575 376 q 421 396 474 396 q 297 414 354 396 l 253 514 l 265 538 q 313 531 275 536 q 382 526 350 526 q 522 560 474 526 q 569 651 569 593 q 538 727 569 688 q 464 799 506 767 l 0 799 l -43 881 l -43 903 l 796 903 l 839 819 l 839 799 z "},"ऊ":{"ha":1193,"x_min":-43,"x_max":1193,"o":"m 1192 800 l 561 800 q 633 691 604 743 q 661 604 661 639 q 583 451 661 510 q 647 399 618 426 q 796 501 729 463 q 925 539 863 539 q 1010 507 965 539 q 1086 421 1056 475 q 1117 303 1117 367 q 1093 164 1117 246 q 1039 31 1069 82 l 907 100 q 1005 222 964 163 q 1046 338 1046 281 q 1019 410 1046 386 q 947 435 992 435 q 846 398 897 435 q 731 294 794 361 q 753 207 753 250 q 726 105 753 157 q 648 19 699 53 q 531 -15 597 -15 q 321 50 419 -15 q 151 203 222 115 q 35 371 79 290 l 83 407 q 185 265 119 338 q 330 144 251 193 q 479 96 408 96 q 566 118 528 96 q 624 176 604 140 q 644 247 644 211 q 610 336 644 296 q 519 414 575 376 q 421 396 474 396 q 297 414 354 396 l 253 514 l 265 538 q 313 531 275 536 q 382 526 350 526 q 522 560 474 526 q 569 651 569 593 q 538 727 569 688 q 464 799 506 767 l 0 799 l -43 881 l -43 903 l 1150 903 l 1193 819 l 1192 800 z "},"ऋ":{"ha":1208,"x_min":-43,"x_max":1208,"o":"m 1208 819 l 1208 799 l 679 799 l 679 464 q 857 513 783 461 l 817 617 q 849 636 826 626 q 892 646 871 646 q 968 619 938 646 q 999 549 999 592 q 965 471 999 504 l 1065 228 q 956 156 990 189 q 921 83 921 122 q 945 35 921 57 q 1010 14 969 14 q 1076 24 1038 14 q 1142 50 1114 33 l 1208 -49 q 1143 -76 1179 -65 q 1078 -86 1107 -86 q 969 -54 1028 -86 q 869 26 910 -22 q 829 122 829 75 q 863 208 829 164 q 954 288 896 253 l 900 422 q 810 386 858 399 q 714 374 761 374 q 679 375 690 374 l 679 -58 l 657 -58 l 554 0 l 560 308 l 558 313 l 200 53 l 117 146 l 554 431 q 431 508 490 486 q 311 529 372 529 q 219 516 265 529 q 114 481 174 503 l 47 600 q 148 631 82 614 q 257 647 214 647 q 557 501 375 647 l 557 799 l 0 799 l -43 881 l -43 903 l 1164 903 l 1208 819 z "},"ॠ":{"ha":1208,"x_min":-43,"x_max":1303,"o":"m 1208 819 l 1208 799 l 679 799 l 679 464 q 857 513 783 461 l 817 617 q 849 636 826 626 q 892 646 871 646 q 968 619 938 646 q 999 549 999 592 q 965 471 999 504 l 1065 228 q 956 156 990 189 q 921 83 921 122 q 996 24 921 24 q 1063 34 1025 24 q 1128 61 1101 44 l 1196 -39 q 1128 -66 1167 -56 q 1057 -76 1090 -76 q 1024 -115 1035 -92 q 1014 -164 1014 -139 q 1038 -214 1014 -190 q 1103 -237 1063 -237 q 1169 -226 1132 -237 q 1235 -199 1207 -215 l 1303 -300 q 1237 -326 1274 -315 q 1171 -336 1200 -336 q 1064 -306 1121 -336 q 968 -228 1007 -275 q 929 -133 929 -181 q 951 -42 929 -79 q 864 31 899 -14 q 829 122 829 76 q 863 208 829 164 q 954 288 896 253 l 900 422 q 810 386 858 399 q 714 374 761 374 q 679 375 690 374 l 679 -58 l 657 -58 l 554 0 l 560 308 l 558 313 l 200 53 l 117 146 l 554 431 q 431 508 490 486 q 311 529 372 529 q 219 516 265 529 q 114 481 174 503 l 47 600 q 148 631 82 614 q 257 647 214 647 q 557 501 375 647 l 557 799 l 0 799 l -43 881 l -43 903 l 1164 903 l 1208 819 z "},"ऌ":{"ha":1051,"x_min":-43,"x_max":1082,"o":"m 1051 819 l 1051 799 l 793 799 l 793 593 q 922 506 864 565 q 979 379 979 446 q 944 268 979 319 q 840 147 908 217 q 765 64 790 97 q 740 -1 740 31 q 763 -55 740 -35 q 825 -75 786 -75 q 913 -42 871 -75 q 994 40 954 -10 l 1082 -40 q 967 -120 1018 -96 q 860 -144 915 -144 q 763 -117 819 -144 q 666 -44 707 -89 q 625 47 625 0 q 649 111 625 79 q 724 192 674 143 q 828 310 792 258 q 864 428 864 363 q 844 485 864 461 q 800 523 825 510 q 760 536 775 536 q 609 439 663 536 q 529 217 556 342 l 411 268 q 476 438 432 363 q 393 497 442 474 q 310 521 344 521 q 212 478 251 521 q 172 368 172 436 q 210 178 172 261 q 314 4 249 96 l 265 -24 q 122 197 182 85 q 63 421 63 308 q 88 527 63 479 q 158 603 114 575 q 258 631 203 631 q 391 590 322 631 q 511 490 460 550 q 671 603 581 583 l 671 799 l 0 799 l -43 881 l -43 903 l 1008 903 l 1051 819 z "},"ॡ":{"ha":1051,"x_min":-43,"x_max":1258,"o":"m 1051 819 l 1051 799 l 793 799 l 793 593 q 922 506 864 565 q 979 379 979 446 q 944 268 979 319 q 840 147 908 217 q 765 64 790 97 q 740 -1 740 31 q 763 -55 740 -35 q 825 -75 786 -75 q 913 -42 871 -75 q 994 40 954 -10 l 1082 -40 q 960 -124 1017 -97 q 928 -162 940 -142 q 917 -199 917 -182 q 940 -253 917 -233 q 1001 -274 963 -274 q 1088 -241 1047 -274 q 1171 -157 1129 -208 l 1258 -240 q 1143 -320 1193 -296 q 1038 -344 1093 -344 q 942 -326 994 -344 q 853 -272 890 -307 q 815 -190 815 -237 q 829 -142 815 -165 q 738 -103 786 -132 q 658 -35 690 -75 q 625 47 625 6 q 649 111 625 79 q 724 192 674 143 q 828 310 792 258 q 864 428 864 363 q 844 485 864 461 q 800 523 825 510 q 760 536 775 536 q 609 439 663 536 q 529 217 556 342 l 411 268 q 476 438 432 363 q 393 497 442 474 q 310 521 344 521 q 212 478 251 521 q 172 368 172 436 q 210 178 172 261 q 314 4 249 96 l 265 -24 q 122 197 182 85 q 63 421 63 308 q 88 527 63 479 q 158 603 114 575 q 258 631 203 631 q 391 590 322 631 q 511 490 460 550 q 671 603 581 583 l 671 799 l 0 799 l -43 881 l -43 903 l 1008 903 l 1051 819 z "},"ऍ":{"ha":817,"x_min":-43,"x_max":899,"o":"m 0 0 m 735 -14 q 865 -115 832 -78 q 899 -189 899 -151 q 869 -257 899 -233 q 796 -281 840 -281 q 737 -261 761 -281 q 701 -217 713 -242 l 701 -214 l 776 -132 l 276 204 q 178 277 210 249 q 137 329 147 306 q 126 388 126 353 l 126 799 l 0 799 l -43 881 l -43 903 l 772 903 l 817 819 l 817 799 l 676 799 l 676 475 q 634 333 676 382 q 533 263 592 283 l 443 324 l 443 339 q 526 387 499 364 q 554 451 554 410 l 554 799 l 250 799 l 250 372 q 262 319 250 340 q 311 274 274 299 l 735 -14 m 692 1190 q 571 1083 636 1121 q 411 1044 506 1044 q 226 1110 307 1044 q 92 1265 144 1176 l 136 1285 q 358 1136 242 1136 q 504 1178 440 1136 q 603 1275 568 1219 l 692 1190 z "},"ऎ":{"ha":817,"x_min":-144,"x_max":899,"o":"m -43 1367 q -68 1264 -68 1301 q -37 1210 -68 1228 q 46 1193 -7 1193 q 222 1204 72 1193 q 413 1215 378 1215 q 512 1189 465 1215 q 593 1119 558 1163 q 663 976 663 1040 q 650 903 663 947 l 772 903 l 817 819 l 817 799 l 676 799 l 676 475 q 634 333 676 382 q 533 263 592 283 l 443 324 l 443 339 q 526 387 499 364 q 554 451 554 410 l 554 799 l 250 799 l 250 372 q 262 319 250 340 q 311 274 274 299 l 735 -14 q 865 -115 832 -78 q 899 -189 899 -151 q 869 -257 899 -233 q 796 -281 840 -281 q 737 -261 761 -281 q 701 -217 713 -242 l 701 -214 l 776 -132 l 276 204 q 178 277 210 249 q 137 329 147 306 q 126 388 126 353 l 126 799 l 0 799 l -43 881 l -43 903 l 578 903 q 589 950 589 925 q 553 1051 589 1010 q 436 1093 518 1093 q 311 1083 396 1093 q 167 1072 208 1072 q 18 1099 90 1072 q -99 1165 -54 1125 q -144 1240 -144 1204 q -129 1330 -144 1288 q -112 1376 -114 1372 l -43 1367 z "},"ए":{"ha":817,"x_min":-43,"x_max":899,"o":"m 735 -14 q 865 -115 832 -78 q 899 -189 899 -151 q 869 -257 899 -233 q 796 -281 840 -281 q 737 -261 761 -281 q 701 -217 713 -242 l 701 -214 l 776 -132 l 276 204 q 178 277 210 249 q 137 329 147 306 q 126 388 126 353 l 126 799 l 0 799 l -43 881 l -43 903 l 772 903 l 817 819 l 817 799 l 676 799 l 676 475 q 634 333 676 382 q 533 263 592 283 l 443 324 l 443 339 q 526 387 499 364 q 554 451 554 410 l 554 799 l 250 799 l 250 372 q 262 319 250 340 q 311 274 274 299 l 735 -14 z "},"ऐ":{"ha":817,"x_min":-43,"x_max":899,"o":"m 0 0 m 735 -14 q 865 -115 832 -78 q 899 -189 899 -151 q 869 -257 899 -233 q 796 -281 840 -281 q 737 -261 761 -281 q 701 -217 713 -242 l 701 -214 l 776 -132 l 276 204 q 178 277 210 249 q 137 329 147 306 q 126 388 126 353 l 126 799 l 0 799 l -43 881 l -43 903 l 772 903 l 817 819 l 817 799 l 676 799 l 676 475 q 634 333 676 382 q 533 263 592 283 l 443 324 l 443 339 q 526 387 499 364 q 554 451 554 410 l 554 799 l 250 799 l 250 372 q 262 319 250 340 q 311 274 274 299 l 735 -14 m 226 1414 q 393 1337 321 1414 q 542 1113 465 1260 q 647 900 614 976 l 571 900 q 531 985 554 939 q 499 1046 508 1031 q 401 1210 439 1153 q 342 1279 363 1268 l 176 1229 q 142 1273 156 1246 q 128 1328 128 1300 q 154 1392 128 1369 q 226 1414 181 1414 z "},"ऑ":{"ha":1597,"x_min":13,"x_max":1682,"o":"m 13 0 m 1600 796 l 1449 796 l 1449 -61 l 1426 -61 l 1325 -4 l 1325 796 l 1021 796 l 1021 -61 l 999 -61 l 899 -4 l 899 319 l 896 319 q 814 303 860 303 q 725 321 767 303 q 640 372 683 339 l 633 368 q 665 238 665 311 q 604 80 665 138 q 442 22 543 22 q 190 122 292 22 q 13 361 89 222 l 60 392 q 211 211 122 289 q 390 133 300 133 q 508 179 461 133 q 556 289 556 225 q 540 370 556 331 q 494 438 525 410 q 307 400 415 414 l 258 489 l 274 526 q 456 564 397 533 q 517 615 494 586 q 539 689 539 644 q 498 775 539 738 q 403 813 457 813 q 197 715 306 813 l 133 836 q 246 895 174 865 q 356 925 318 925 q 475 880 411 924 q 583 769 539 836 q 626 639 626 703 q 608 553 626 599 q 551 471 590 508 q 652 428 596 446 q 757 411 708 411 q 896 454 832 411 l 896 799 l 693 799 l 649 881 l 649 903 l 1553 903 l 1597 819 l 1600 796 m 1682 1190 q 1561 1083 1626 1121 q 1401 1044 1496 1044 q 1216 1110 1297 1044 q 1082 1265 1135 1176 l 1126 1285 q 1349 1136 1232 1136 q 1494 1178 1431 1136 q 1593 1275 1558 1219 l 1682 1190 z "},"ऒ":{"ha":1597,"x_min":11,"x_max":1597,"o":"m 717 1367 q 693 1264 693 1299 q 724 1210 693 1228 q 807 1193 754 1193 q 982 1204 832 1193 q 1172 1215 1138 1215 q 1356 1119 1275 1215 q 1424 976 1424 1036 q 1410 903 1424 942 l 1553 903 l 1597 819 l 1597 799 l 1444 799 l 1444 -58 l 1424 -58 l 1324 -1 l 1324 799 l 1018 799 l 1018 -58 l 996 -58 l 896 -1 l 896 322 l 893 322 q 813 306 863 306 q 724 324 765 306 q 639 375 682 342 l 632 371 q 664 240 664 310 q 603 83 664 140 q 440 25 542 25 q 189 125 290 25 q 11 364 88 225 l 58 394 q 210 214 121 292 q 389 136 299 136 q 507 182 460 136 q 554 292 554 228 q 539 374 554 333 q 493 439 524 414 q 307 401 424 417 l 258 490 l 274 528 q 456 565 397 535 q 517 617 494 588 q 539 690 539 646 q 498 776 539 739 q 403 814 457 814 q 197 717 306 814 l 133 838 q 246 897 174 867 q 356 926 318 926 q 475 881 411 925 q 583 771 539 838 q 626 640 626 704 q 606 549 626 596 q 551 471 585 501 q 651 429 596 447 q 757 411 707 411 q 831 422 799 411 q 896 454 863 433 l 896 799 l 693 799 l 649 881 l 649 903 l 1338 903 q 1349 950 1349 925 q 1314 1051 1349 1010 q 1197 1093 1279 1093 q 1071 1083 1156 1093 q 928 1072 968 1072 q 779 1099 851 1072 q 662 1165 707 1125 q 617 1240 617 1204 q 632 1330 617 1288 q 649 1376 647 1372 l 717 1367 z "},"ओ":{"ha":1597,"x_min":13,"x_max":1600,"o":"m 13 0 m 1600 796 l 1449 796 l 1449 -61 l 1426 -61 l 1325 -4 l 1325 796 l 1021 796 l 1021 -61 l 999 -61 l 899 -4 l 899 319 l 896 319 q 814 303 860 303 q 725 321 767 303 q 640 372 683 339 l 633 368 q 665 238 665 311 q 604 80 665 138 q 442 22 543 22 q 190 122 292 22 q 13 361 89 222 l 60 392 q 211 211 122 289 q 390 133 300 133 q 508 179 461 133 q 556 289 556 225 q 540 370 556 331 q 494 438 525 410 q 307 400 415 414 l 258 489 l 274 526 q 456 564 397 533 q 517 615 494 586 q 539 689 539 644 q 498 775 539 738 q 403 813 457 813 q 197 715 306 813 l 133 836 q 246 895 174 865 q 356 925 318 925 q 475 880 411 924 q 583 769 539 836 q 626 639 626 703 q 608 553 626 599 q 551 471 590 508 q 652 428 596 446 q 757 411 708 411 q 896 454 832 411 l 896 799 l 693 799 l 649 881 l 649 903 l 1553 903 l 1597 819 l 1600 796 m 975 1414 q 1142 1337 1069 1414 q 1290 1113 1214 1260 q 1396 900 1363 976 l 1319 900 q 1280 985 1303 939 q 1247 1046 1257 1031 q 1149 1210 1188 1153 q 1090 1279 1111 1268 l 925 1229 q 890 1273 904 1246 q 876 1328 876 1300 q 903 1392 876 1369 q 975 1414 929 1414 z "},"औ":{"ha":1597,"x_min":13,"x_max":1600,"o":"m 13 0 m 1600 796 l 1449 796 l 1449 -61 l 1426 -61 l 1325 -4 l 1325 796 l 1021 796 l 1021 -61 l 999 -61 l 899 -4 l 899 319 l 896 319 q 814 303 860 303 q 725 321 767 303 q 640 372 683 339 l 633 368 q 665 238 665 311 q 604 80 665 138 q 442 22 543 22 q 190 122 292 22 q 13 361 89 222 l 60 392 q 211 211 122 289 q 390 133 300 133 q 508 179 461 133 q 556 289 556 225 q 540 370 556 331 q 494 438 525 410 q 307 400 415 414 l 258 489 l 274 526 q 456 564 397 533 q 517 615 494 586 q 539 689 539 644 q 498 775 539 738 q 403 813 457 813 q 197 715 306 813 l 133 836 q 246 895 174 865 q 356 925 318 925 q 475 880 411 924 q 583 769 539 836 q 626 639 626 703 q 608 553 626 599 q 551 471 590 508 q 652 428 596 446 q 757 411 708 411 q 896 454 832 411 l 896 799 l 693 799 l 649 881 l 649 903 l 1553 903 l 1597 819 l 1600 796 m 1001 1451 q 1190 1360 1111 1451 q 1338 1113 1269 1269 q 1361 1057 1346 1090 q 1424 900 1401 963 l 1374 900 q 1313 1040 1339 983 q 1215 1216 1264 1136 q 1140 1319 1165 1296 l 953 1268 l 950 1268 q 916 1311 931 1283 q 901 1365 901 1339 q 928 1428 901 1406 q 1001 1451 956 1451 m 976 1207 q 1156 1124 1069 1207 q 1333 900 1242 1040 l 1282 900 q 1193 1008 1244 950 q 1128 1072 1142 1065 l 928 1047 l 925 1047 q 894 1085 906 1063 q 883 1126 883 1107 q 909 1185 883 1163 q 976 1207 935 1207 z "},"ॳ":{"ha":1171,"x_min":13,"x_max":1174,"o":"m 13 0 m 1174 796 l 1021 796 l 1021 -61 l 999 -61 l 899 -4 l 899 319 l 896 319 q 814 303 860 303 q 725 321 767 303 q 640 372 683 339 l 633 368 q 665 238 665 311 q 604 80 665 138 q 442 22 543 22 q 190 122 292 22 q 13 361 89 222 l 60 392 q 211 211 122 289 q 390 133 300 133 q 508 179 461 133 q 556 289 556 225 q 540 370 556 331 q 494 438 525 410 q 307 400 415 414 l 258 489 l 274 526 q 456 564 397 533 q 517 615 494 586 q 539 689 539 644 q 498 775 539 738 q 403 813 457 813 q 197 715 306 813 l 133 836 q 246 895 174 865 q 356 925 318 925 q 475 880 411 924 q 583 769 539 836 q 626 639 626 703 q 608 553 626 599 q 551 471 590 508 q 652 428 596 446 q 757 411 708 411 q 896 454 832 411 l 896 799 l 693 799 l 649 881 l 649 903 l 1126 903 l 1171 819 l 1174 796 m 1019 1269 l 1019 882 l 896 882 l 896 1269 l 1019 1269 z "},"ॴ":{"ha":1597,"x_min":13,"x_max":1600,"o":"m 13 0 m 1600 796 l 1449 796 l 1449 -61 l 1426 -61 l 1325 -4 l 1325 796 l 1021 796 l 1021 -61 l 999 -61 l 899 -4 l 899 319 l 896 319 q 814 303 860 303 q 725 321 767 303 q 640 372 683 339 l 633 368 q 665 238 665 311 q 604 80 665 138 q 442 22 543 22 q 190 122 292 22 q 13 361 89 222 l 60 392 q 211 211 122 289 q 390 133 300 133 q 508 179 461 133 q 556 289 556 225 q 540 370 556 331 q 494 438 525 410 q 307 400 415 414 l 258 489 l 274 526 q 456 564 397 533 q 517 615 494 586 q 539 689 539 644 q 498 775 539 738 q 403 813 457 813 q 197 715 306 813 l 133 836 q 246 895 174 865 q 356 925 318 925 q 475 880 411 924 q 583 769 539 836 q 626 639 626 703 q 608 553 626 599 q 551 471 590 508 q 652 428 596 446 q 757 411 708 411 q 896 454 832 411 l 896 799 l 693 799 l 649 881 l 649 903 l 1553 903 l 1597 819 l 1600 796 m 1447 1269 l 1447 882 l 1324 882 l 1324 1269 l 1447 1269 z "},"ॶ":{"ha":1171,"x_min":13,"x_max":1174,"o":"m 13 0 m 1174 796 l 1021 796 l 1021 -61 l 999 -61 l 899 -4 l 899 319 l 896 319 q 814 303 860 303 q 725 321 767 303 q 640 372 683 339 l 633 368 q 665 238 665 311 q 604 80 665 138 q 442 22 543 22 q 190 122 292 22 q 13 361 89 222 l 60 392 q 211 211 122 289 q 390 133 300 133 q 508 179 461 133 q 556 289 556 225 q 540 370 556 331 q 494 438 525 410 q 307 400 415 414 l 258 489 l 274 526 q 456 564 397 533 q 517 615 494 586 q 539 689 539 644 q 498 775 539 738 q 403 813 457 813 q 197 715 306 813 l 133 836 q 246 895 174 865 q 356 925 318 925 q 475 880 411 924 q 583 769 539 836 q 626 639 626 703 q 608 553 626 599 q 551 471 590 508 q 652 428 596 446 q 757 411 708 411 q 896 454 832 411 l 896 799 l 693 799 l 649 881 l 649 903 l 1126 903 l 1171 819 l 1174 796 m 578 -204 q 828 -85 735 -204 l 879 -128 q 754 -251 836 -201 q 578 -301 672 -301 q 400 -251 482 -301 q 275 -128 318 -201 l 328 -85 q 578 -204 421 -204 z "},"ॷ":{"ha":1171,"x_min":13,"x_max":1174,"o":"m 13 0 m 1174 796 l 1021 796 l 1021 -61 l 999 -61 l 899 -4 l 899 319 l 896 319 q 814 303 860 303 q 725 321 767 303 q 640 372 683 339 l 633 368 q 665 238 665 311 q 604 80 665 138 q 442 22 543 22 q 190 122 292 22 q 13 361 89 222 l 60 392 q 211 211 122 289 q 390 133 300 133 q 508 179 461 133 q 556 289 556 225 q 540 370 556 331 q 494 438 525 410 q 307 400 415 414 l 258 489 l 274 526 q 456 564 397 533 q 517 615 494 586 q 539 689 539 644 q 498 775 539 738 q 403 813 457 813 q 197 715 306 813 l 133 836 q 246 895 174 865 q 356 925 318 925 q 475 880 411 924 q 583 769 539 836 q 626 639 626 703 q 608 553 626 599 q 551 471 590 508 q 652 428 596 446 q 757 411 708 411 q 896 454 832 411 l 896 799 l 693 799 l 649 881 l 649 903 l 1126 903 l 1171 819 l 1174 796 m 578 -204 q 828 -85 735 -204 l 879 -128 q 754 -251 836 -201 q 578 -301 672 -301 q 400 -251 482 -301 q 275 -128 318 -201 l 328 -85 q 578 -204 421 -204 m 578 -435 q 828 -315 735 -435 l 879 -358 q 754 -482 836 -432 q 578 -532 672 -532 q 400 -482 482 -532 q 275 -358 318 -432 l 328 -315 q 578 -435 421 -435 z "},"ा":{"ha":426,"x_min":-43,"x_max":426,"o":"m 426 819 l 426 799 l 275 799 l 275 -58 l 253 -58 l 151 -1 l 151 799 l 0 799 l -43 881 l -43 903 l 383 903 l 426 819 z "},"ि":{"ha":426,"x_min":-43,"x_max":1003,"o":"m 389 1276 q 237 1232 296 1276 q 178 1104 178 1188 q 197 994 178 1053 q 239 903 217 936 l 382 903 l 426 819 l 426 799 l 275 799 l 275 -58 l 253 -58 l 151 -1 l 151 799 l 0 799 l -43 881 l -43 903 l 163 903 q 47 1169 47 1061 q 84 1281 47 1232 q 188 1358 121 1331 q 339 1386 254 1386 q 647 1278 482 1386 q 1003 999 813 1169 l 965 950 q 644 1191 781 1106 q 389 1276 507 1276 z "},"ी":{"ha":426,"x_min":-399,"x_max":426,"o":"m 426 819 l 426 799 l 275 799 l 275 -58 l 253 -58 l 151 -1 l 151 799 l 0 799 l -43 881 l -43 903 l 168 903 q 22 1188 97 1072 q -142 1304 -53 1304 q -229 1263 -197 1304 q -261 1171 -261 1222 q -239 1077 -261 1125 q -190 1000 -217 1029 l -190 997 l -256 965 q -356 1078 -314 1011 q -399 1222 -399 1146 q -371 1317 -399 1272 q -293 1388 -343 1361 q -178 1414 -243 1414 q 0 1335 -78 1414 q 127 1158 78 1257 q 240 903 176 1058 l 382 903 l 426 819 z "},"ॉ":{"ha":426,"x_min":-87,"x_max":513,"o":"m 0 0 m 426 819 l 426 799 l 275 799 l 275 -58 l 253 -58 l 151 -1 l 151 799 l 0 799 l -43 881 l -43 903 l 383 903 l 426 819 m 513 1190 q 392 1083 457 1121 q 232 1044 326 1044 q 47 1110 128 1044 q -87 1265 -35 1176 l -43 1285 q 179 1136 63 1136 q 325 1178 261 1136 q 424 1275 389 1219 l 513 1190 z "},"ॊ":{"ha":426,"x_min":-543,"x_max":426,"o":"m -443 1367 q -468 1264 -468 1301 q -437 1210 -468 1228 q -354 1193 -407 1193 q -179 1204 -329 1193 q 14 1215 -21 1215 q 196 1119 113 1215 q 263 976 263 1038 q 250 903 263 947 l 382 903 l 426 819 l 426 799 l 275 799 l 275 -58 l 253 -58 l 151 -1 l 151 799 l 0 799 l -43 881 l -43 903 l 178 903 q 189 950 189 925 q 153 1051 189 1010 q 38 1093 118 1093 q -89 1083 -4 1093 q -233 1072 -192 1072 q -381 1099 -310 1072 q -498 1165 -453 1125 q -543 1240 -543 1204 q -535 1306 -543 1275 q -512 1376 -526 1338 l -443 1367 z "},"ो":{"ha":426,"x_min":-268,"x_max":426,"o":"m 426 819 l 426 799 l 275 799 l 275 -58 l 253 -58 l 151 -1 l 151 799 l 0 799 l -43 881 l -43 903 l 174 903 q 103 1044 121 1017 q 5 1209 43 1151 q -54 1278 -33 1267 l -219 1228 q -254 1272 -240 1244 q -268 1326 -268 1299 q -242 1390 -268 1368 q -169 1413 -215 1413 q -3 1335 -75 1413 q 146 1111 69 1258 q 249 903 218 971 l 382 903 l 426 819 z "},"ौ":{"ha":426,"x_min":-282,"x_max":425,"o":"m 425 821 l 425 800 l 274 800 l 274 -57 l 251 -57 l 150 0 l 150 800 l -1 800 l -44 882 l -44 904 l 114 904 q 22 1014 67 963 q -37 1072 -24 1065 l -237 1047 l -240 1047 q -270 1085 -258 1063 q -282 1126 -282 1107 q -256 1185 -282 1163 q -190 1207 -231 1207 q -12 1125 -97 1207 q 165 903 74 1043 l 207 903 q 146 1040 185 958 q 49 1217 97 1138 q -25 1319 1 1296 l -211 1268 l -214 1268 q -249 1310 -235 1283 q -262 1365 -262 1338 q -236 1429 -262 1407 q -164 1451 -210 1451 q 22 1362 -54 1451 q 171 1113 99 1272 q 257 903 236 967 l 382 903 l 425 821 z "},"ऻ":{"ha":426,"x_min":-43,"x_max":426,"o":"m 426 819 l 426 799 l 275 799 l 275 -58 l 253 -58 l 151 -1 l 151 799 l 0 799 l -43 881 l -43 903 l 151 903 l 151 1269 l 275 1269 l 275 903 l 383 903 l 426 819 z "},"क":{"ha":1182,"x_min":-43,"x_max":1182,"o":"m 681 799 l 681 506 q 879 603 789 603 q 1053 528 994 603 q 1111 329 1111 454 q 1083 180 1111 271 q 1019 36 1054 89 l 925 136 q 1004 246 967 182 q 1042 364 1042 310 q 1005 461 1042 422 q 915 500 968 500 q 803 465 860 500 q 681 369 746 431 l 681 -58 l 658 -58 l 556 0 l 561 260 l 558 261 q 444 181 496 208 q 324 154 393 154 q 197 185 254 154 q 108 272 140 215 q 75 407 75 329 q 102 522 75 467 q 178 610 129 576 q 292 644 228 644 q 447 596 385 644 q 557 468 508 547 l 557 799 l 0 799 l -43 881 l -43 903 l 1139 903 l 1182 819 l 1182 799 l 681 799 m 278 261 q 428 299 356 261 q 558 392 500 336 l 558 397 q 463 482 524 444 q 339 519 401 519 q 204 481 265 519 q 143 374 143 443 q 185 292 143 322 q 278 261 228 261 z "},"ख":{"ha":1196,"x_min":-43,"x_max":1196,"o":"m 1196 819 l 1196 799 l 1043 799 l 1043 -58 l 1021 -58 l 918 0 l 922 88 q 774 17 861 47 q 615 -12 686 -12 q 402 67 514 -12 q 188 258 290 146 q 103 359 126 326 q 81 425 81 392 q 103 485 81 457 q 151 531 126 514 l 228 472 q 252 537 242 492 q 263 625 263 582 q 259 709 263 658 q 250 799 256 760 l 0 799 l -43 881 l -43 903 l 1151 903 l 1196 819 m 614 81 q 772 119 681 81 q 924 215 864 157 l 924 338 l 922 338 q 874 299 914 331 q 792 249 833 267 q 713 231 751 231 q 597 260 651 231 q 508 343 542 290 q 474 461 474 396 q 538 624 474 563 q 701 685 603 685 q 918 571 817 685 l 921 571 l 921 797 l 353 797 q 370 675 364 743 q 376 561 376 607 q 342 410 376 471 q 249 293 307 349 q 413 149 318 215 q 614 82 507 82 l 614 81 m 921 485 q 842 550 892 528 q 742 572 792 572 q 642 551 688 572 q 568 496 596 531 q 540 421 540 461 q 578 356 540 385 q 671 328 615 328 q 803 374 733 328 q 921 486 872 421 l 921 485 z "},"ग":{"ha":872,"x_min":-43,"x_max":872,"o":"m 872 821 l 872 800 l 719 800 l 719 -57 l 697 -57 l 596 0 l 596 800 l 304 800 q 321 393 321 564 q 297 292 321 339 q 213 246 274 246 q 125 274 161 246 q 72 342 89 303 q 54 417 54 382 q 63 474 54 451 l 199 456 l 214 799 l 0 799 l -43 881 l -43 903 l 828 903 l 872 821 z "},"घ":{"ha":899,"x_min":-43,"x_max":936,"o":"m 936 819 l 936 799 l 785 799 l 785 -58 l 763 -58 l 660 0 l 664 244 l 660 247 q 535 170 596 199 q 429 142 475 142 q 247 197 317 142 q 170 278 203 233 q 138 363 138 322 q 169 472 138 419 q 250 558 200 525 q 126 632 168 596 q 85 732 85 668 q 92 799 85 754 l 0 799 l -43 881 l -43 903 l 893 903 l 936 819 m 358 242 q 461 269 401 242 q 576 342 521 297 q 663 436 632 388 l 663 799 l 247 799 q 199 700 199 765 q 224 648 199 672 q 283 609 249 624 q 346 593 318 594 l 368 594 q 497 576 461 594 l 519 522 l 506 486 q 406 497 461 497 q 319 470 357 497 q 263 403 282 443 q 243 324 243 363 q 279 262 243 282 q 358 242 315 242 z "},"ङ":{"ha":990,"x_min":-43,"x_max":990,"o":"m 990 819 l 990 799 l 646 799 l 646 543 l 329 543 q 225 442 225 543 q 244 385 225 413 q 283 358 263 358 q 347 365 317 358 q 428 388 378 372 q 503 409 471 401 q 568 417 535 417 q 642 379 604 417 q 704 286 679 342 q 729 181 729 231 q 676 19 729 81 q 515 -42 622 -42 q 283 22 399 -42 q 39 232 168 85 l 88 276 q 285 115 196 161 q 463 68 375 68 q 599 104 542 68 q 656 211 656 140 q 642 266 656 239 q 608 303 629 293 q 537 296 567 303 q 465 274 507 289 q 406 255 431 261 q 349 249 381 249 q 263 285 315 249 q 173 375 211 321 q 135 481 135 429 q 177 608 135 563 q 283 654 219 654 l 522 654 l 522 799 l 0 799 l -43 881 l -43 903 l 947 903 l 990 819 m 964 478 l 857 367 l 750 476 l 856 586 l 964 478 z "},"च":{"ha":925,"x_min":-43,"x_max":926,"o":"m 926 821 l 926 800 l 774 800 l 774 -57 l 751 -57 l 649 1 l 653 203 l 649 206 q 542 149 600 171 q 431 128 485 128 q 335 145 379 128 q 260 193 290 163 q 202 269 226 226 q 178 358 178 313 q 228 494 178 429 l 90 494 l 46 578 l 46 599 l 528 599 l 571 517 l 571 494 l 411 494 q 307 435 344 483 q 269 322 269 386 q 305 238 269 276 q 385 199 340 199 q 524 253 443 199 q 650 368 606 307 l 650 799 l 0 799 l -43 881 l -43 903 l 881 903 l 926 821 z "},"छ":{"ha":1132,"x_min":-43,"x_max":1132,"o":"m 838 803 l 838 654 q 949 572 904 628 q 993 425 993 515 q 947 249 993 336 q 1063 163 1022 208 q 1104 46 1104 117 q 1078 -85 1104 -7 q 1019 -221 1053 -162 l 919 -126 q 999 -26 967 -75 q 1031 68 1031 24 q 1001 129 1031 103 q 910 186 971 156 q 728 28 839 89 q 500 -33 617 -33 q 354 11 432 -33 q 222 115 276 56 q 168 210 168 174 q 183 276 168 244 q 224 335 197 308 q 117 422 150 388 q 85 500 85 456 q 110 578 85 540 q 178 638 135 615 q 274 661 221 661 q 345 654 311 661 q 397 639 379 647 l 443 531 q 370 559 411 549 q 297 569 329 569 q 221 542 253 569 q 189 468 189 515 q 206 424 189 444 q 249 392 224 403 q 297 382 275 381 q 375 397 336 397 q 497 388 453 397 l 524 325 l 510 289 q 411 300 465 300 q 344 279 372 300 q 303 228 317 258 q 289 171 289 199 q 308 122 289 147 q 360 81 328 97 q 429 64 392 64 q 638 110 539 64 q 803 235 738 157 l 778 247 q 625 370 685 299 q 565 528 565 442 q 608 633 565 599 q 713 672 651 667 l 713 799 l 0 799 l -43 881 l -43 903 l 1088 903 l 1132 819 l 1132 799 l 838 803 m 896 467 q 856 558 896 528 q 765 589 817 589 q 701 565 725 589 q 676 494 676 540 q 719 388 676 435 q 831 306 761 340 l 847 297 q 893 468 893 381 l 896 467 z "},"ज":{"ha":1028,"x_min":-43,"x_max":1028,"o":"m 1028 799 l 875 799 l 875 -58 l 854 -58 l 753 -1 l 753 508 l 468 508 q 564 396 528 456 q 600 289 600 336 q 576 186 600 232 q 512 114 553 140 q 424 88 471 88 q 244 166 321 88 q 123 340 168 244 q 28 572 78 435 l 88 594 q 170 416 129 496 q 271 271 211 336 q 397 206 331 206 q 465 240 438 206 q 492 317 492 274 q 424 453 492 385 q 278 567 357 522 l 297 613 l 753 613 l 753 799 l 0 799 l -43 881 l -43 903 l 985 903 l 1028 819 l 1028 799 z "},"झ":{"ha":1093,"x_min":-43,"x_max":1093,"o":"m 1093 819 l 1093 799 l 940 799 l 940 -58 l 919 -58 l 819 -1 l 819 292 l 817 292 q 742 281 772 281 q 669 291 703 281 q 590 324 635 301 l 588 324 q 613 207 613 260 q 576 110 613 156 q 477 33 539 64 q 343 -3 415 3 l 465 -187 l 378 -232 l 268 -1 q 141 33 197 6 q 85 106 85 61 q 101 158 85 135 q 139 196 117 182 q 181 210 161 210 q 203 207 194 210 l 274 100 q 472 142 392 104 q 551 246 551 179 q 542 303 551 274 q 517 339 532 332 q 435 321 494 339 q 372 305 404 313 q 314 297 339 297 q 233 333 282 297 q 149 422 185 369 q 114 518 114 474 q 148 642 114 596 q 243 688 182 688 l 443 688 l 443 799 l 0 799 l -43 881 l -43 903 l 1050 903 l 1093 819 m 686 389 q 761 399 726 389 q 819 424 796 408 l 819 799 l 565 799 l 565 576 l 275 576 q 212 547 231 576 q 193 481 193 518 q 211 426 193 451 q 250 401 229 401 q 308 409 275 401 q 372 425 342 417 q 464 443 436 443 q 533 410 500 443 q 686 389 617 389 z "},"ञ":{"ha":1072,"x_min":-43,"x_max":1072,"o":"m 1071 800 l 919 800 l 919 -57 l 897 -57 l 797 0 l 797 351 l 794 351 q 746 333 768 333 q 699 347 724 333 q 668 363 675 360 l 664 363 q 598 224 656 282 q 451 167 540 167 q 244 243 353 167 q 18 461 136 319 l 65 500 q 256 335 179 386 q 411 283 333 283 q 522 322 478 283 q 565 418 565 361 q 540 490 565 457 q 471 524 515 524 q 408 505 444 524 q 339 461 372 486 l 254 565 q 406 628 347 628 q 502 600 450 628 q 597 528 554 572 q 657 436 640 483 q 735 443 697 435 q 799 472 772 451 l 799 799 l 0 799 l -43 881 l -43 903 l 1029 903 l 1072 819 l 1071 800 z "},"ट":{"ha":769,"x_min":-43,"x_max":769,"o":"m 769 819 l 769 799 l 560 799 l 560 497 q 281 432 392 486 q 171 276 171 378 q 230 158 171 196 q 360 119 289 119 q 676 218 517 119 l 735 104 q 406 14 574 14 q 247 56 318 14 q 136 168 176 99 q 96 317 96 238 q 193 529 96 464 q 436 611 290 594 l 436 799 l 0 799 l -43 881 l -43 903 l 726 903 l 769 819 z "},"ठ":{"ha":850,"x_min":-43,"x_max":850,"o":"m 849 800 l 563 800 q 607 686 607 733 q 568 569 607 638 q 746 286 746 443 q 706 133 746 201 q 588 26 667 65 q 399 -12 510 -12 q 233 34 307 -12 q 118 157 160 81 q 76 319 76 233 q 183 537 76 467 q 463 615 289 607 q 485 706 485 657 q 447 799 485 740 l 0 799 l -43 881 l -43 903 l 806 903 l 850 819 l 849 800 m 644 344 q 611 440 644 397 q 540 499 578 482 q 264 435 376 489 q 151 279 151 381 q 183 175 151 217 q 260 114 214 133 q 351 94 306 94 q 574 167 503 94 q 644 344 644 239 z "},"ड":{"ha":835,"x_min":-43,"x_max":835,"o":"m 835 819 l 835 799 l 671 799 l 671 543 l 329 543 q 225 442 225 543 q 244 385 225 413 q 283 358 263 358 q 349 365 317 358 q 440 388 381 372 q 593 417 539 417 q 667 379 629 417 q 731 286 706 342 q 756 181 756 231 q 696 20 756 82 q 529 -42 636 -42 q 288 22 410 -42 q 39 232 167 86 l 88 276 q 290 115 194 163 q 476 68 386 68 q 619 105 557 68 q 682 211 682 142 q 668 266 682 239 q 635 303 654 293 q 560 296 593 303 q 478 274 526 289 q 408 255 435 261 q 349 249 381 249 q 263 285 315 249 q 173 375 211 321 q 135 481 135 429 q 177 608 135 563 q 283 654 219 654 l 547 654 l 547 799 l 0 799 l -43 881 l -43 903 l 792 903 l 835 819 z "},"ढ":{"ha":796,"x_min":-43,"x_max":796,"o":"m 378 518 q 206 469 271 518 q 140 332 140 421 q 176 210 140 264 q 265 122 213 156 q 372 75 318 89 q 324 222 324 150 q 376 351 324 311 q 501 392 429 392 q 606 363 558 392 q 683 282 654 333 q 711 168 711 231 q 674 55 711 103 q 581 -17 636 7 q 471 -42 525 -42 q 294 6 388 -42 q 137 148 201 54 q 72 372 72 242 q 150 576 72 514 q 347 639 228 639 l 482 639 l 482 799 l 0 799 l -43 881 l -43 903 l 751 903 l 796 819 l 796 799 l 604 799 l 604 521 l 379 521 l 378 518 m 544 299 q 481 282 514 299 q 425 233 447 265 q 403 158 403 201 q 409 110 403 131 q 425 65 415 89 q 583 105 517 68 q 649 194 649 142 q 616 269 649 240 q 544 299 583 299 z "},"ण":{"ha":1100,"x_min":-43,"x_max":1100,"o":"m 1100 799 l 947 799 l 947 -58 l 926 -58 l 825 -1 l 825 799 l 606 799 l 606 421 q 574 314 606 363 q 489 238 542 265 q 375 211 436 211 q 290 235 331 211 q 204 303 250 258 q 141 375 161 344 q 121 442 121 406 l 121 799 l 0 799 l -43 881 l -43 903 l 1056 903 l 1100 819 l 1100 799 m 483 799 l 244 799 l 244 421 q 276 337 244 356 q 365 318 307 318 q 454 358 425 318 q 483 447 483 399 l 483 799 z "},"त":{"ha":860,"x_min":-43,"x_max":860,"o":"m 860 799 l 707 799 l 707 -58 l 686 -58 l 586 -1 l 586 503 l 360 503 q 232 466 272 503 q 192 351 192 429 q 396 8 192 210 l 356 -35 q 159 181 238 72 q 81 403 81 290 q 136 558 81 501 q 325 614 192 614 l 586 614 l 586 799 l 0 799 l -43 881 l -43 903 l 817 903 l 860 819 l 860 799 z "},"थ":{"ha":950,"x_min":65,"x_max":949,"o":"m 949 818 l 949 797 l 797 797 l 797 -60 l 775 -60 l 671 -1 l 676 218 l 671 221 q 461 143 561 143 q 269 208 346 143 q 139 411 192 274 q 294 482 232 431 q 131 604 197 526 q 65 771 65 682 q 110 878 65 840 q 224 915 154 915 q 349 888 288 915 q 450 803 410 860 q 490 665 490 747 q 426 479 490 568 q 258 340 361 390 q 312 278 272 301 q 408 254 351 254 q 558 293 483 254 q 675 379 632 332 l 675 799 l 549 799 l 506 881 l 506 903 l 907 903 l 949 818 m 169 738 q 224 619 169 676 q 344 538 278 561 q 389 696 389 604 q 353 788 389 749 q 257 828 317 828 q 193 805 217 828 q 169 736 169 782 l 169 738 z "},"द":{"ha":803,"x_min":-43,"x_max":803,"o":"m 803 819 l 803 799 l 593 799 l 593 535 l 392 535 q 210 485 268 535 q 153 349 153 435 q 201 231 153 276 q 309 165 249 185 q 407 144 369 144 q 496 151 451 144 l 431 303 q 556 358 483 358 q 656 319 621 358 q 692 222 692 279 q 666 142 692 181 q 593 78 640 104 l 724 -151 l 643 -194 l 538 53 q 407 35 483 35 q 263 78 339 35 q 136 201 188 121 q 85 385 85 281 q 151 588 85 525 q 360 650 218 650 l 469 650 l 469 799 l 0 799 l -43 881 l -43 903 l 760 903 l 803 819 z "},"ध":{"ha":953,"x_min":65,"x_max":953,"o":"m 951 800 l 800 800 l 800 -57 l 776 -57 l 674 1 l 678 246 l 674 249 q 444 143 535 143 q 261 199 331 143 q 184 281 217 238 q 151 364 151 324 q 174 457 151 410 q 239 539 197 504 q 114 653 163 585 q 65 799 65 722 q 110 905 65 868 q 222 942 154 942 q 294 928 256 942 q 356 897 332 915 q 410 847 390 871 q 431 782 431 822 q 413 740 431 758 q 358 722 396 722 q 324 729 335 722 l 324 832 q 258 857 303 857 q 195 833 219 857 q 171 764 171 810 q 211 663 171 713 q 310 582 251 614 q 383 594 339 594 q 513 576 476 594 l 536 524 l 521 486 q 421 497 475 497 q 333 470 371 497 q 276 403 296 443 q 257 324 257 363 q 294 262 257 282 q 374 242 331 242 q 480 271 419 242 q 595 345 540 300 q 678 435 650 390 l 678 799 l 522 799 l 479 881 l 479 903 l 908 903 l 953 819 l 951 800 z "},"न":{"ha":828,"x_min":-43,"x_max":828,"o":"m 828 819 l 828 799 l 676 799 l 676 -58 l 654 -58 l 554 -1 l 554 422 l 257 411 l 276 274 q 219 265 251 265 q 144 283 185 265 q 76 336 104 300 q 47 424 47 372 q 194 532 47 532 q 554 518 322 532 l 554 799 l 0 799 l -43 881 l -43 903 l 785 903 l 828 819 z "},"ऩ":{"ha":828,"x_min":-43,"x_max":828,"o":"m 828 819 l 828 799 l 676 799 l 676 -58 l 654 -58 l 554 -1 l 554 422 l 257 411 l 276 274 q 219 265 251 265 q 144 283 185 265 q 76 336 104 300 q 47 424 47 372 q 194 532 47 532 q 554 518 322 532 l 554 799 l 0 799 l -43 881 l -43 903 l 785 903 l 828 819 m 335 185 l 443 76 l 336 -33 l 228 75 l 335 185 z "},"प":{"ha":831,"x_min":-43,"x_max":831,"o":"m 831 819 l 831 799 l 679 799 l 679 -58 l 657 -58 l 557 -1 l 557 289 l 554 289 q 469 247 511 263 q 375 231 428 231 q 289 256 331 231 q 200 328 247 282 q 121 475 121 404 l 121 799 l 0 799 l -43 881 l -43 903 l 788 903 l 831 819 m 354 346 q 463 370 408 346 q 557 426 518 394 l 557 799 l 244 799 l 244 453 q 353 344 244 344 l 354 346 z "},"फ":{"ha":1169,"x_min":-43,"x_max":1169,"o":"m 668 796 l 668 521 q 763 592 715 564 q 865 621 811 621 q 1038 547 979 621 q 1097 347 1097 472 q 1068 199 1097 290 q 1006 54 1039 107 l 910 153 q 988 263 950 197 q 1026 381 1026 328 q 990 478 1026 439 q 901 518 954 518 q 815 497 857 518 q 744 451 772 475 q 667 381 715 428 l 667 -58 l 646 -58 l 540 0 l 546 281 l 540 281 q 375 231 456 231 q 289 256 331 231 q 200 328 247 282 q 121 475 121 404 l 121 799 l 0 799 l -43 881 l -43 903 l 1125 903 l 1169 819 l 1169 799 l 668 796 m 353 342 q 453 361 403 342 q 544 411 503 381 l 544 796 l 246 796 l 246 450 q 354 342 246 342 l 353 342 z "},"ब":{"ha":925,"x_min":-43,"x_max":924,"o":"m 924 819 l 924 799 l 771 799 l 771 -58 l 749 -58 l 646 0 l 650 256 l 644 258 q 551 188 585 211 q 474 147 517 164 q 383 129 431 129 q 244 160 311 129 q 134 249 176 190 q 92 386 92 307 q 130 539 92 474 q 228 639 168 604 q 347 674 288 674 q 511 622 432 674 q 647 496 590 569 l 650 496 l 650 799 l 0 799 l -43 881 l -43 903 l 881 903 l 924 819 m 489 279 q 578 341 536 306 q 647 411 621 376 q 539 510 604 469 q 415 551 474 551 q 321 536 367 551 l 490 279 l 489 279 m 326 226 q 446 256 381 226 l 274 515 q 189 445 221 488 q 157 356 157 403 q 205 263 157 299 q 325 228 253 228 l 326 226 z "},"भ":{"ha":1032,"x_min":65,"x_max":1032,"o":"m 1032 818 l 1032 797 l 881 797 l 881 -60 l 858 -60 l 758 -3 l 758 301 l 449 301 q 423 213 444 249 q 354 176 401 176 q 284 206 317 176 q 231 281 251 235 q 208 383 208 332 q 210 406 208 399 l 326 406 l 326 514 q 137 619 208 558 q 65 771 65 681 q 110 878 65 840 q 224 915 154 915 q 380 865 311 915 q 449 697 449 815 l 449 407 l 758 407 l 758 799 l 540 799 l 497 881 l 497 903 l 988 903 l 1032 818 m 169 736 q 215 644 169 679 q 336 585 261 608 q 345 655 342 614 q 349 721 349 696 q 322 796 349 764 q 258 828 294 828 q 194 805 218 828 q 171 736 171 782 l 169 736 z "},"म":{"ha":890,"x_min":-43,"x_max":890,"o":"m 890 819 l 890 799 l 739 799 l 739 -58 l 717 -58 l 617 -1 l 617 328 l 282 328 q 256 239 278 275 q 188 203 235 203 q 119 230 151 203 q 68 300 88 257 q 42 411 42 356 l 43 432 l 160 432 l 160 799 l 0 799 l -43 881 l -43 903 l 846 903 l 890 819 m 617 432 l 617 799 l 282 799 l 282 432 l 617 432 z "},"य":{"ha":885,"x_min":-43,"x_max":885,"o":"m 885 799 l 733 799 l 733 -58 l 711 -58 l 608 0 l 614 219 l 608 222 q 399 144 499 144 q 205 228 289 144 q 75 451 121 311 q 217 525 157 476 q 276 636 276 574 q 254 713 276 676 q 182 799 232 749 l 0 799 l -43 881 l -43 903 l 842 903 l 885 819 l 885 799 m 343 254 q 492 292 418 254 q 611 379 567 329 l 611 799 l 276 799 l 276 796 q 399 601 399 671 q 333 469 399 528 q 196 379 267 410 q 240 289 197 324 q 343 254 283 254 z "},"र":{"ha":597,"x_min":-43,"x_max":597,"o":"m 597 797 l 365 797 q 383 674 376 742 q 389 561 389 607 q 353 409 389 472 q 260 293 318 346 l 550 -14 l 482 -65 l 175 288 q 140 328 167 297 q 102 381 113 358 q 92 425 92 403 q 115 485 92 457 q 165 531 139 514 l 242 472 q 265 539 254 494 q 276 625 276 583 q 272 710 276 658 q 261 799 268 761 l 0 799 l -43 881 l -43 903 l 554 903 l 597 819 l 597 797 z "},"ऱ":{"ha":597,"x_min":-43,"x_max":597,"o":"m 597 797 l 365 797 q 383 674 376 742 q 389 561 389 607 q 353 409 389 472 q 260 293 318 346 l 550 -14 l 482 -65 l 175 288 q 140 328 167 297 q 102 381 113 358 q 92 425 92 403 q 115 485 92 457 q 165 531 139 514 l 242 472 q 265 539 254 494 q 276 625 276 583 q 272 710 276 658 q 261 799 268 761 l 0 799 l -43 881 l -43 903 l 554 903 l 597 819 l 597 797 m 181 129 l 289 21 l 182 -89 l 74 19 l 181 129 z "},"ल":{"ha":1040,"x_min":-43,"x_max":1040,"o":"m 1040 800 l 888 800 l 888 -57 l 867 -57 l 765 0 l 765 479 q 696 517 728 517 q 583 430 629 517 q 511 235 536 343 l 411 294 q 460 439 426 369 q 389 499 431 476 q 310 521 347 521 q 212 478 251 521 q 172 368 172 436 q 399 -35 172 168 l 356 -81 q 145 149 228 29 q 63 421 63 269 q 88 527 63 479 q 158 603 114 575 q 258 631 203 631 q 384 593 324 631 q 493 494 444 556 q 658 603 567 601 q 715 587 688 603 q 765 546 743 571 l 765 799 l 0 799 l -43 881 l -43 903 l 996 903 l 1040 819 l 1040 800 z "},"ळ":{"ha":1126,"x_min":-43,"x_max":1126,"o":"m 901 799 l 901 626 q 1012 522 969 590 q 1054 365 1054 453 q 1024 222 1054 283 q 942 128 993 161 q 832 96 890 96 q 694 141 763 96 q 582 242 626 186 q 488 113 542 156 q 354 71 433 71 q 220 113 285 71 q 115 220 156 154 q 75 354 75 286 q 109 508 75 442 q 197 608 143 574 q 310 643 251 643 q 403 622 358 643 q 476 580 449 601 q 565 507 504 558 q 654 620 604 583 q 776 658 704 657 l 776 799 l 0 799 l -43 881 l -43 903 l 1083 903 l 1126 819 l 1126 799 l 901 799 m 975 425 q 935 522 975 481 q 839 564 896 564 q 738 531 778 564 q 674 450 699 499 q 606 299 649 401 q 788 206 681 206 q 873 238 829 206 q 946 322 917 271 q 975 424 975 372 l 975 425 m 299 172 q 397 203 357 172 q 464 283 438 235 q 528 421 490 332 l 540 451 q 462 513 503 490 q 368 536 421 536 q 256 505 303 536 q 185 423 210 474 q 161 313 161 372 q 197 213 161 253 q 297 172 232 172 l 299 172 z "},"ऴ":{"ha":1126,"x_min":-43,"x_max":1126,"o":"m 901 799 l 901 626 q 1012 522 969 590 q 1054 365 1054 453 q 1024 222 1054 283 q 942 128 993 161 q 832 96 890 96 q 694 141 763 96 q 582 242 626 186 q 488 113 542 156 q 354 71 433 71 q 220 113 285 71 q 115 220 156 154 q 75 354 75 286 q 109 508 75 442 q 197 608 143 574 q 310 643 251 643 q 403 622 358 643 q 476 580 449 601 q 565 507 504 558 q 654 620 604 583 q 776 658 704 657 l 776 799 l 0 799 l -43 881 l -43 903 l 1083 903 l 1126 819 l 1126 799 l 901 799 m 975 425 q 935 522 975 481 q 839 564 896 564 q 738 531 778 564 q 674 450 699 499 q 606 299 649 401 q 788 206 681 206 q 873 238 829 206 q 946 322 917 271 q 975 424 975 372 l 975 425 m 299 172 q 397 203 357 172 q 464 283 438 235 q 528 421 490 332 l 540 451 q 462 513 503 490 q 368 536 421 536 q 256 505 303 536 q 185 423 210 474 q 161 313 161 372 q 197 213 161 253 q 297 172 232 172 l 299 172 m 585 68 l 693 -39 l 586 -149 l 478 -40 l 585 68 z "},"व":{"ha":918,"x_min":-43,"x_max":918,"o":"m 918 819 l 918 799 l 765 799 l 765 -58 l 744 -58 l 642 0 l 646 244 l 642 247 q 503 160 565 192 q 378 129 440 129 q 240 160 306 129 q 133 249 174 190 q 92 386 92 307 q 128 539 92 474 q 223 639 165 604 q 340 674 281 674 q 504 622 425 674 q 642 496 583 569 l 644 496 l 644 799 l 0 799 l -43 881 l -43 903 l 875 903 l 918 819 m 321 229 q 491 284 399 229 q 644 411 583 339 l 644 413 q 535 511 601 471 q 411 551 468 551 q 283 522 340 551 q 192 447 225 492 q 160 356 160 401 q 206 263 160 299 q 321 228 253 228 l 321 229 z "},"श":{"ha":1032,"x_min":-43,"x_max":1032,"o":"m 879 799 l 879 -58 l 857 -58 l 757 -1 l 757 799 l 508 799 q 572 632 572 735 q 538 474 572 554 q 445 331 503 393 q 319 242 388 268 l 494 -24 l 400 -81 l 256 225 q 232 224 247 224 q 169 240 208 224 q 101 281 131 256 q 71 335 71 306 q 87 388 71 364 q 125 425 103 411 q 167 439 147 439 q 189 436 181 439 l 260 329 q 392 442 333 363 q 217 564 290 483 q 144 738 144 644 q 157 799 144 772 l 0 799 l -43 881 l -43 903 l 988 903 l 1032 819 l 1032 799 l 879 799 m 472 663 q 436 756 472 715 q 340 797 400 797 q 276 773 301 797 q 251 704 251 749 q 306 587 251 643 q 431 504 361 531 q 472 663 472 588 z "},"ष":{"ha":857,"x_min":-43,"x_max":857,"o":"m 857 819 l 857 799 l 706 799 l 706 -58 l 683 -58 l 583 -1 l 583 250 l 581 250 q 483 199 528 218 q 388 179 439 179 q 200 289 313 179 q 140 360 160 328 q 121 429 121 393 l 121 799 l 0 799 l -43 881 l -43 903 l 814 903 l 857 819 m 244 799 l 244 797 l 583 440 l 583 799 l 244 799 m 367 292 q 472 317 417 292 q 574 381 526 343 l 244 728 l 244 408 q 282 318 244 343 q 365 293 319 293 l 367 292 z "},"स":{"ha":978,"x_min":-43,"x_max":978,"o":"m 978 821 l 978 800 l 825 800 l 825 -57 l 803 -57 l 703 0 l 703 313 l 700 313 q 564 289 636 289 q 445 319 504 289 q 343 385 386 349 l 339 385 q 260 294 311 340 l 550 -12 l 482 -64 l 175 289 q 140 329 167 299 q 102 382 113 360 q 92 426 92 404 q 115 487 92 458 q 165 532 139 515 l 242 474 q 265 540 254 496 q 276 626 276 585 q 272 711 276 660 q 261 799 268 763 l 0 799 l -43 881 l -43 903 l 933 903 l 978 821 m 532 400 q 703 442 640 400 l 703 799 l 365 799 q 389 563 389 669 q 371 449 389 503 q 448 415 404 428 q 532 401 492 401 l 532 400 z "},"ह":{"ha":796,"x_min":-43,"x_max":796,"o":"m 253 560 q 172 496 172 560 q 232 381 172 443 q 413 429 310 429 q 551 391 485 429 q 659 299 618 353 q 700 204 700 246 q 653 90 700 146 q 542 1 606 33 l 446 85 l 446 88 q 594 256 594 172 q 576 302 594 279 q 525 340 558 325 q 450 354 492 354 q 357 330 403 354 q 283 263 311 306 q 254 171 254 221 q 288 55 254 107 q 391 -47 322 3 q 579 -164 460 -97 l 547 -210 q 245 -15 358 -112 q 132 210 132 83 q 181 335 132 279 q 114 436 140 383 q 88 536 88 489 q 122 640 88 610 q 224 671 156 671 l 501 671 l 501 799 l 0 799 l -43 881 l -43 903 l 751 903 l 796 819 l 796 799 l 624 799 l 624 561 l 256 561 l 253 560 z "},"क़":{"ha":1182,"x_min":-43,"x_max":1182,"o":"m 0 0 m 681 799 l 681 506 q 879 603 789 603 q 1053 528 994 603 q 1111 329 1111 454 q 1083 180 1111 271 q 1019 36 1054 89 l 925 136 q 1004 246 967 182 q 1042 364 1042 310 q 1005 461 1042 422 q 915 500 968 500 q 803 465 860 500 q 681 369 746 431 l 681 -58 l 658 -58 l 556 0 l 561 260 l 558 261 q 444 181 496 208 q 324 154 393 154 q 197 185 254 154 q 108 272 140 215 q 75 407 75 329 q 102 522 75 467 q 178 610 129 576 q 292 644 228 644 q 447 596 385 644 q 557 468 508 547 l 557 799 l 0 799 l -43 881 l -43 903 l 1139 903 l 1182 819 l 1182 799 l 681 799 m 278 261 q 428 299 356 261 q 558 392 500 336 l 558 397 q 463 482 524 444 q 339 519 401 519 q 204 481 265 519 q 143 374 143 443 q 185 292 143 322 q 278 261 228 261 m 431 1 l 324 -110 l 215 0 l 322 108 l 431 1 z "},"ख़":{"ha":1196,"x_min":-43,"x_max":1196,"o":"m 0 0 m 1196 819 l 1196 799 l 1043 799 l 1043 -58 l 1021 -58 l 918 0 l 922 88 q 774 17 861 47 q 615 -12 686 -12 q 402 67 514 -12 q 188 258 290 146 q 103 359 126 326 q 81 425 81 392 q 103 485 81 457 q 151 531 126 514 l 228 472 q 252 537 242 492 q 263 625 263 582 q 259 709 263 658 q 250 799 256 760 l 0 799 l -43 881 l -43 903 l 1151 903 l 1196 819 m 614 81 q 772 119 681 81 q 924 215 864 157 l 924 338 l 922 338 q 874 299 914 331 q 792 249 833 267 q 713 231 751 231 q 597 260 651 231 q 508 343 542 290 q 474 461 474 396 q 538 624 474 563 q 701 685 603 685 q 918 571 817 685 l 921 571 l 921 797 l 353 797 q 370 675 364 743 q 376 561 376 607 q 342 410 376 471 q 249 293 307 349 q 413 149 318 215 q 614 82 507 82 l 614 81 m 921 485 q 842 550 892 528 q 742 572 792 572 q 642 551 688 572 q 568 496 596 531 q 540 421 540 461 q 578 356 540 385 q 671 328 615 328 q 803 374 733 328 q 921 486 872 421 l 921 485 m 278 1 l 171 -110 l 63 0 l 169 108 l 278 1 z "},"ग़":{"ha":872,"x_min":-43,"x_max":872,"o":"m 0 0 m 872 821 l 872 800 l 719 800 l 719 -57 l 697 -57 l 596 0 l 596 800 l 304 800 q 321 393 321 564 q 297 292 321 339 q 213 246 274 246 q 125 274 161 246 q 72 342 89 303 q 54 417 54 382 q 63 474 54 451 l 199 456 l 214 799 l 0 799 l -43 881 l -43 903 l 828 903 l 872 821 m 321 71 l 214 -40 l 106 69 l 213 178 l 321 71 z "},"ज़":{"ha":1028,"x_min":-43,"x_max":1028,"o":"m 0 0 m 1028 799 l 875 799 l 875 -58 l 854 -58 l 753 -1 l 753 508 l 468 508 q 564 396 528 456 q 600 289 600 336 q 576 186 600 232 q 512 114 553 140 q 424 88 471 88 q 244 166 321 88 q 123 340 168 244 q 28 572 78 435 l 88 594 q 170 416 129 496 q 271 271 211 336 q 397 206 331 206 q 465 240 438 206 q 492 317 492 274 q 424 453 492 385 q 278 567 357 522 l 297 613 l 753 613 l 753 799 l 0 799 l -43 881 l -43 903 l 985 903 l 1028 819 l 1028 799 m 231 1 l 124 -110 l 15 0 l 122 108 l 231 1 z "},"ड़":{"ha":835,"x_min":-43,"x_max":835,"o":"m 0 0 m 835 819 l 835 799 l 671 799 l 671 543 l 329 543 q 225 442 225 543 q 244 385 225 413 q 283 358 263 358 q 349 365 317 358 q 440 388 381 372 q 593 417 539 417 q 667 379 629 417 q 731 286 706 342 q 756 181 756 231 q 696 20 756 82 q 529 -42 636 -42 q 288 22 410 -42 q 39 232 167 86 l 88 276 q 290 115 194 163 q 476 68 386 68 q 619 105 557 68 q 682 211 682 142 q 668 266 682 239 q 635 303 654 293 q 560 296 593 303 q 478 274 526 289 q 408 255 435 261 q 349 249 381 249 q 263 285 315 249 q 173 375 211 321 q 135 481 135 429 q 177 608 135 563 q 283 654 219 654 l 547 654 l 547 799 l 0 799 l -43 881 l -43 903 l 792 903 l 835 819 m 624 -207 l 517 -318 l 408 -208 l 515 -100 l 624 -207 z "},"ढ़":{"ha":796,"x_min":-43,"x_max":796,"o":"m 0 0 m 378 518 q 206 469 271 518 q 140 332 140 421 q 176 210 140 264 q 265 122 213 156 q 372 75 318 89 q 324 222 324 150 q 376 351 324 311 q 501 392 429 392 q 606 363 558 392 q 683 282 654 333 q 711 168 711 231 q 674 55 711 103 q 581 -17 636 7 q 471 -42 525 -42 q 294 6 388 -42 q 137 148 201 54 q 72 372 72 242 q 150 576 72 514 q 347 639 228 639 l 482 639 l 482 799 l 0 799 l -43 881 l -43 903 l 751 903 l 796 819 l 796 799 l 604 799 l 604 521 l 379 521 l 378 518 m 544 299 q 481 282 514 299 q 425 233 447 265 q 403 158 403 201 q 409 110 403 131 q 425 65 415 89 q 583 105 517 68 q 649 194 649 142 q 616 269 649 240 q 544 299 583 299 m 579 -210 l 472 -321 l 364 -211 l 471 -103 l 579 -210 z "},"फ़":{"ha":1169,"x_min":-43,"x_max":1169,"o":"m 0 0 m 668 796 l 668 521 q 763 592 715 564 q 865 621 811 621 q 1038 547 979 621 q 1097 347 1097 472 q 1068 199 1097 290 q 1006 54 1039 107 l 910 153 q 988 263 950 197 q 1026 381 1026 328 q 990 478 1026 439 q 901 518 954 518 q 815 497 857 518 q 744 451 772 475 q 667 381 715 428 l 667 -58 l 646 -58 l 540 0 l 546 281 l 540 281 q 375 231 456 231 q 289 256 331 231 q 200 328 247 282 q 121 475 121 404 l 121 799 l 0 799 l -43 881 l -43 903 l 1125 903 l 1169 819 l 1169 799 l 668 796 m 353 342 q 453 361 403 342 q 544 411 503 381 l 544 796 l 246 796 l 246 450 q 354 342 246 342 l 353 342 m 267 113 l 160 1 l 51 111 l 158 219 l 267 113 z "},"य़":{"ha":885,"x_min":-43,"x_max":885,"o":"m 0 0 m 885 799 l 733 799 l 733 -58 l 711 -58 l 608 0 l 614 219 l 608 222 q 399 144 499 144 q 205 228 289 144 q 75 451 121 311 q 217 525 157 476 q 276 636 276 574 q 254 713 276 676 q 182 799 232 749 l 0 799 l -43 881 l -43 903 l 842 903 l 885 819 l 885 799 m 343 254 q 492 292 418 254 q 611 379 567 329 l 611 799 l 276 799 l 276 796 q 399 601 399 671 q 333 469 399 528 q 196 379 267 410 q 240 289 197 324 q 343 254 283 254 m 210 78 l 103 -33 l -6 76 l 101 185 l 210 78 z "},"ॹ":{"ha":1028,"x_min":-43,"x_max":1028,"o":"m 1028 799 l 875 799 l 875 -58 l 854 -58 l 753 -1 l 753 508 l 468 508 q 564 396 528 456 q 600 289 600 336 q 576 186 600 232 q 512 114 553 140 q 424 88 471 88 q 244 166 321 88 q 123 340 168 244 q 28 572 78 435 l 88 594 q 170 416 129 496 q 271 271 211 336 q 397 206 331 206 q 465 240 438 206 q 492 317 492 274 q 424 453 492 385 q 278 567 357 522 l 297 613 l 753 613 l 753 799 l 0 799 l -43 881 l -43 903 l 985 903 l 1028 819 l 1028 799 m 371 -42 l 264 -153 l 156 -43 l 263 65 l 371 -42 m 565 65 l 674 -42 l 567 -153 l 458 -43 l 565 65 m 415 -90 l 524 -197 l 417 -308 l 308 -199 l 415 -90 z "},"ॺ":{"ha":885,"x_min":-43,"x_max":885,"o":"m 885 819 l 885 799 l 733 799 l 733 -58 l 711 -58 l 608 0 l 614 219 l 608 222 q 399 144 499 144 q 205 228 289 144 q 75 451 121 311 q 217 525 157 476 q 276 636 276 574 q 254 713 276 676 q 182 799 232 749 l 0 799 l -43 881 l -43 903 l 842 903 l 885 819 m 276 794 q 338 726 313 757 l 611 411 l 611 799 l 276 799 l 276 794 m 344 251 q 478 282 411 251 q 592 357 544 313 l 399 582 q 325 460 389 514 q 196 378 261 406 q 240 288 197 322 q 343 253 283 253 l 344 251 z "},"ॻ":{"ha":872,"x_min":-43,"x_max":872,"o":"m 872 819 l 872 799 l 719 799 l 719 -58 l 79 -58 l 43 7 l 43 28 l 596 28 l 596 799 l 306 799 q 328 394 328 576 q 303 292 328 339 q 213 246 278 246 q 125 274 161 246 q 72 342 89 303 q 54 417 54 382 q 63 474 54 451 l 199 456 l 199 799 l 0 799 l -43 881 l -43 903 l 828 903 l 872 819 z "},"ॼ":{"ha":1028,"x_min":-43,"x_max":1028,"o":"m 1028 819 l 1028 799 l 875 799 l 875 -58 l 79 -58 l 43 7 l 43 28 l 753 28 l 753 508 l 468 508 q 563 397 526 454 q 600 289 600 340 q 576 186 600 232 q 512 114 553 140 q 424 88 471 88 q 244 166 321 88 q 123 340 168 244 q 28 572 78 435 l 88 594 q 170 416 129 496 q 271 271 211 336 q 397 206 331 206 q 465 240 438 206 q 492 317 492 274 q 424 453 492 385 q 278 567 357 522 l 297 613 l 753 613 l 753 799 l 0 799 l -43 881 l -43 903 l 985 903 l 1028 819 z "},"ॾ":{"ha":835,"x_min":-43,"x_max":835,"o":"m 835 819 l 835 799 l 671 799 l 671 543 l 329 543 q 225 442 225 543 q 244 385 225 413 q 283 358 263 358 q 349 365 317 358 q 440 388 381 372 q 593 417 539 417 q 667 379 629 417 q 731 286 706 342 q 756 181 756 231 q 696 20 756 82 q 529 -42 636 -42 q 288 22 410 -42 q 39 232 167 86 l 88 276 q 290 115 194 163 q 476 68 386 68 q 619 105 557 68 q 682 211 682 142 q 668 266 682 239 q 635 303 654 293 q 560 296 593 303 q 478 274 526 289 q 408 255 435 261 q 349 249 381 249 q 263 285 315 249 q 173 375 211 321 q 135 481 135 429 q 177 608 135 563 q 283 654 219 654 l 547 654 l 547 799 l 0 799 l -43 881 l -43 903 l 792 903 l 835 819 m 792 -203 l 792 -225 l 79 -225 l 43 -161 l 43 -140 l 757 -140 l 792 -203 z "},"ॿ":{"ha":925,"x_min":-43,"x_max":925,"o":"m 925 819 l 925 799 l 772 799 l 772 -58 l 79 -58 l 43 7 l 43 28 l 647 28 l 651 256 l 647 258 l 624 240 q 497 156 547 182 q 383 129 446 129 q 244 160 311 129 q 134 249 176 190 q 92 386 92 307 q 130 539 92 474 q 228 639 168 604 q 347 674 288 674 q 520 615 439 674 q 647 496 601 557 l 650 496 l 650 799 l 0 799 l -43 881 l -43 903 l 881 903 l 925 819 m 418 551 q 322 536 376 551 l 492 279 q 581 340 539 304 q 650 410 622 375 l 650 413 q 545 508 613 464 q 418 551 478 551 m 275 517 q 190 444 221 489 q 160 356 160 400 q 208 263 160 299 q 328 228 256 228 q 447 256 381 228 l 275 517 z "},"⁄":{"ha":600,"x_min":-7,"x_max":607,"o":"m 607 1250 l 83 -232 l -7 -211 l 519 1275 l 607 1250 z "},"½":{"ha":1781,"x_min":153,"x_max":1650,"o":"m 1154 1250 l 629 -232 l 540 -211 l 1065 1275 l 1154 1250 m 350 564 l 350 1007 l 167 971 l 153 1038 q 320 1103 215 1057 q 449 1169 425 1150 l 483 1158 l 482 563 l 657 546 l 657 488 l 167 488 l 167 546 l 350 564 m 993 78 q 1165 177 1067 114 q 1342 315 1264 240 q 1419 451 1419 390 q 1378 551 1419 519 q 1271 582 1336 582 q 1147 552 1211 582 q 1042 471 1082 522 l 992 529 q 1062 601 1015 565 q 1171 660 1108 636 q 1301 683 1233 683 q 1463 653 1403 683 q 1546 579 1522 622 q 1569 496 1569 536 q 1517 344 1569 414 q 1375 214 1464 274 q 1147 81 1286 154 l 1499 106 l 1579 201 l 1650 172 l 1611 -1 l 1022 -1 l 993 78 z "},"¼":{"ha":1781,"x_min":153,"x_max":1656,"o":"m 1154 1246 l 629 -232 l 540 -203 l 1065 1275 l 1154 1246 m 350 564 l 350 1007 l 167 971 l 153 1038 q 320 1103 215 1057 q 449 1169 425 1150 l 483 1158 l 482 563 l 657 546 l 657 488 l 167 488 l 167 546 l 350 564 m 1392 756 l 1467 686 l 1119 263 l 1071 197 l 1347 219 l 1349 390 l 1468 404 l 1468 229 l 1653 243 l 1656 128 l 1468 128 l 1468 -119 l 1346 -119 l 1347 128 l 992 128 l 956 192 l 1346 754 l 1392 756 z "},"¾":{"ha":1781,"x_min":128,"x_max":1656,"o":"m 1154 1250 l 629 -232 l 540 -211 l 1065 1275 l 1154 1250 m 153 532 q 246 506 192 517 q 343 496 300 496 q 490 538 439 497 q 540 642 540 578 q 500 728 540 699 q 394 760 460 757 l 347 750 l 261 732 l 261 814 q 426 880 368 835 q 485 993 485 925 q 448 1057 485 1038 q 360 1076 411 1076 q 255 1058 314 1076 q 161 1014 196 1039 l 128 1075 q 258 1138 176 1113 q 406 1164 340 1164 q 520 1140 471 1164 q 595 1078 569 1117 q 621 996 621 1040 q 467 815 621 872 q 588 790 542 819 q 654 717 635 760 q 674 636 674 674 q 636 521 674 572 q 528 440 599 469 q 360 411 457 411 q 258 423 315 411 q 153 457 200 435 l 153 532 m 1392 756 l 1467 686 l 1119 263 l 1071 197 l 1347 219 l 1349 390 l 1468 404 l 1468 229 l 1653 243 l 1656 128 l 1468 128 l 1468 -119 l 1346 -119 l 1347 128 l 992 128 l 956 192 l 1346 754 l 1392 756 z "},"¹":{"ha":736,"x_min":132,"x_max":636,"o":"m 331 564 l 331 1007 l 146 971 l 132 1038 q 299 1103 194 1057 q 428 1169 404 1150 l 463 1158 l 461 563 l 636 546 l 636 488 l 146 488 l 146 546 l 331 564 z "},"²":{"ha":851,"x_min":97,"x_max":754,"o":"m 97 567 q 269 666 169 603 q 447 804 368 729 q 525 942 525 879 q 483 1040 525 1010 q 376 1071 440 1071 q 251 1040 317 1071 q 147 960 186 1010 l 97 1019 q 167 1090 119 1056 q 276 1149 214 1125 q 406 1172 339 1172 q 567 1142 507 1172 q 650 1068 626 1111 q 674 985 674 1025 q 621 833 674 903 q 479 702 568 763 q 251 569 390 642 l 604 596 l 685 690 l 754 663 l 717 489 l 126 489 l 97 567 z "},"³":{"ha":776,"x_min":128,"x_max":674,"o":"m 153 532 q 246 506 192 517 q 343 496 300 496 q 490 538 439 497 q 540 642 540 578 q 500 728 540 699 q 394 760 460 757 l 347 750 l 261 732 l 261 814 q 426 880 368 835 q 485 993 485 925 q 448 1057 485 1038 q 360 1076 411 1076 q 255 1058 314 1076 q 161 1014 196 1039 l 128 1075 q 258 1138 176 1113 q 406 1164 340 1164 q 520 1140 471 1164 q 595 1078 569 1117 q 621 996 621 1040 q 467 815 621 872 q 588 790 542 819 q 654 717 635 760 q 674 636 674 674 q 636 521 674 572 q 528 440 599 469 q 360 411 457 411 q 258 423 315 411 q 153 457 200 435 l 153 532 z "},"०":{"ha":876,"x_min":140,"x_max":738,"o":"m 140 379 q 190 528 140 453 q 313 652 239 603 q 451 701 386 701 q 592 663 526 701 q 698 554 658 624 q 738 397 738 485 q 687 240 738 317 q 563 115 636 164 q 425 67 489 67 q 279 108 344 67 q 177 222 214 150 q 140 379 140 293 m 261 439 q 295 296 261 357 q 378 203 329 235 q 465 171 426 171 q 538 192 504 171 q 594 249 572 213 q 615 329 615 285 q 586 462 615 400 q 510 560 557 524 q 413 597 463 597 q 306 552 351 597 q 261 439 261 507 z "},"१":{"ha":876,"x_min":192,"x_max":718,"o":"m 415 940 q 531 905 468 940 q 636 812 593 869 q 679 690 679 754 q 622 533 679 622 q 497 368 565 443 l 390 249 l 581 50 l 619 6 q 694 -85 671 -53 q 718 -144 718 -118 q 688 -214 718 -189 q 615 -239 658 -239 q 553 -216 579 -239 q 513 -161 526 -193 l 513 -158 l 596 -89 q 488 44 550 -19 q 325 199 426 107 l 240 276 l 240 278 l 424 474 l 400 490 q 289 568 331 536 q 219 641 247 600 q 192 732 192 682 q 222 838 192 790 q 303 913 251 886 q 415 940 354 940 m 450 856 q 359 809 396 856 q 322 699 322 763 q 367 608 322 658 q 468 531 411 558 q 531 639 507 585 q 556 735 556 693 q 524 820 556 785 q 450 856 493 856 z "},"२":{"ha":876,"x_min":115,"x_max":733,"o":"m 440 940 q 572 882 503 940 q 688 740 642 824 q 733 589 733 657 q 688 430 733 507 q 567 301 643 353 q 403 239 492 249 l 663 -153 l 550 -225 l 329 239 q 199 276 253 246 q 146 347 146 306 q 162 400 146 376 q 200 438 178 424 q 242 451 222 451 q 264 449 256 451 l 335 342 q 538 462 456 378 q 619 646 619 546 q 588 767 619 718 q 496 815 556 815 q 356 785 436 815 q 211 717 275 756 l 115 854 q 297 920 225 900 q 440 940 368 940 z "},"३":{"ha":876,"x_min":75,"x_max":799,"o":"m 797 314 q 749 190 797 253 q 621 81 701 126 q 447 29 540 36 l 579 -167 l 504 -204 l 378 29 q 267 61 314 36 q 219 125 219 86 q 235 178 219 154 q 274 215 251 201 q 315 229 296 229 q 338 226 329 229 l 408 119 q 606 219 526 153 q 685 368 685 285 q 647 447 685 419 q 554 475 610 475 q 517 474 529 475 q 390 431 457 446 q 268 415 322 415 q 217 442 239 415 q 196 514 196 468 q 275 559 196 536 q 472 589 354 582 q 554 710 554 636 q 431 817 554 817 q 338 808 388 817 q 207 779 289 799 l 144 764 l 75 900 q 375 933 244 933 q 501 885 432 933 q 619 769 571 836 q 668 653 668 703 q 611 535 668 589 q 753 408 708 468 q 799 311 799 347 l 797 314 z "},"४":{"ha":876,"x_min":8,"x_max":850,"o":"m 518 510 q 683 331 632 399 q 735 214 735 264 q 693 115 735 157 q 588 52 651 74 q 460 31 525 31 q 343 60 406 31 q 238 140 281 89 q 196 256 196 192 q 236 381 196 318 q 378 547 276 444 q 258 646 321 599 q 110 756 196 693 q 8 829 47 800 l 68 901 l 158 824 q 267 732 186 800 q 425 594 347 664 q 466 634 443 613 q 514 682 489 656 q 792 956 701 863 l 850 818 q 518 510 664 650 m 411 118 q 492 142 453 118 q 554 206 531 167 q 578 288 578 246 q 499 428 578 347 l 467 460 q 340 313 374 365 q 306 213 306 261 q 337 146 306 174 q 411 118 368 118 z "},"५":{"ha":876,"x_min":154,"x_max":910,"o":"m 822 -229 l 608 219 q 528 173 571 190 q 447 156 486 156 q 319 188 389 156 q 202 277 250 221 q 154 403 154 333 q 199 646 154 499 q 304 925 243 793 l 417 833 q 260 364 260 511 q 276 307 260 335 q 317 261 292 279 q 365 243 342 243 q 450 268 399 243 q 554 333 501 293 l 494 457 q 579 483 528 483 q 673 456 633 483 q 713 381 713 428 q 656 261 713 325 l 910 -187 l 822 -229 z "},"६":{"ha":876,"x_min":53,"x_max":879,"o":"m 371 932 q 432 931 413 932 l 506 796 q 431 803 460 803 q 232 772 297 803 q 167 653 167 740 q 198 570 167 611 q 265 513 229 529 q 401 572 325 550 q 538 593 476 593 q 588 567 567 593 q 608 496 608 542 q 571 465 608 481 q 474 438 533 449 q 354 424 415 426 q 264 286 264 368 q 289 213 264 250 q 353 153 314 176 q 432 129 392 129 q 604 165 503 129 l 557 253 q 646 281 597 281 q 722 260 690 281 q 754 203 754 240 q 701 96 754 146 l 879 -169 l 804 -207 l 660 63 q 486 13 581 13 q 350 74 431 13 q 210 215 269 135 q 150 343 150 294 q 214 472 150 413 q 101 588 149 519 q 53 710 53 657 q 126 870 53 808 q 371 932 200 932 z "},"७":{"ha":876,"x_min":44,"x_max":835,"o":"m 110 939 q 203 468 139 649 q 347 208 267 288 q 513 129 428 129 q 694 208 636 129 q 760 414 753 286 q 640 368 700 368 q 544 390 592 368 q 457 446 496 411 q 372 556 399 499 q 344 696 344 614 q 375 794 344 749 q 451 865 406 839 q 542 892 497 892 q 659 863 611 892 q 747 767 707 833 q 810 602 786 703 q 835 410 835 501 q 792 194 835 283 q 681 58 749 104 q 539 13 613 13 q 305 120 408 13 q 135 431 201 228 q 44 918 68 635 l 110 939 m 610 781 q 526 758 563 781 q 470 699 490 735 q 450 624 450 663 q 481 518 450 556 q 586 481 513 481 q 671 501 624 481 q 753 558 718 522 q 696 718 736 656 q 610 781 656 781 z "},"८":{"ha":876,"x_min":96,"x_max":811,"o":"m 690 885 l 392 547 q 248 347 285 425 q 211 204 211 268 q 233 133 211 172 q 296 67 256 94 q 386 40 336 40 q 491 71 438 40 q 588 141 544 101 q 711 260 632 181 l 811 165 q 616 13 704 54 q 422 -29 528 -29 q 272 15 349 -29 q 146 124 196 58 q 96 254 96 190 q 249 560 96 389 l 653 1021 l 690 885 z "},"९":{"ha":876,"x_min":49,"x_max":846,"o":"m 300 967 q 418 925 353 967 q 530 819 483 883 q 576 690 576 754 q 540 581 576 632 q 445 496 504 529 q 322 454 386 463 q 707 88 575 219 q 806 -22 767 31 q 846 -108 846 -75 q 817 -176 846 -153 q 743 -200 788 -200 q 680 -178 707 -200 q 640 -124 653 -156 l 640 -121 l 724 -51 q 495 199 667 36 q 171 490 324 361 q 92 574 118 536 q 58 647 67 611 q 49 732 49 682 q 78 847 49 793 q 164 934 107 901 q 300 967 221 967 m 360 856 q 251 828 299 856 q 179 759 204 801 q 154 672 154 717 q 208 538 154 604 q 328 576 271 544 q 419 652 385 608 q 453 735 453 696 q 428 821 453 786 q 360 856 403 856 z "},"*":{"ha":878,"x_min":101,"x_max":776,"o":"m 414 835 l 371 786 l 171 629 l 103 724 l 335 846 l 397 867 l 336 888 l 101 1006 l 168 1103 l 368 947 l 414 900 l 396 978 l 374 1211 l 497 1211 l 476 978 l 454 900 l 513 956 l 700 1101 l 776 1004 l 539 892 l 471 867 l 539 844 l 776 724 l 699 631 l 503 788 l 456 835 l 474 764 l 497 521 l 374 521 l 396 764 l 414 835 z "},"\\":{"ha":553,"x_min":21,"x_max":533,"o":"m 533 -246 l 408 -246 l 21 1085 l 144 1085 l 533 -246 z "},"·":{"ha":479,"x_min":146,"x_max":333,"o":"m 247 665 q 312 642 290 665 q 333 581 333 618 q 303 510 333 538 q 232 483 272 483 q 172 506 197 483 q 146 567 146 529 q 177 637 146 608 q 247 665 208 665 z "},"•":{"ha":571,"x_min":149,"x_max":426,"o":"m 281 346 q 188 386 226 346 q 149 482 149 426 q 192 590 149 544 q 293 636 235 636 q 387 597 347 636 q 426 501 426 558 q 406 424 426 460 q 352 367 386 388 q 281 346 318 346 z "},":":{"ha":479,"x_min":146,"x_max":333,"o":"m 247 717 q 312 693 290 717 q 333 633 333 669 q 302 563 333 590 q 232 535 271 535 q 172 558 197 535 q 146 618 146 581 q 177 688 146 660 q 247 717 208 717 m 247 168 q 312 144 290 168 q 333 83 333 121 q 302 13 333 40 q 232 -15 271 -15 q 172 8 197 -15 q 146 68 146 31 q 178 139 146 110 q 247 168 210 168 z "},",":{"ha":464,"x_min":108,"x_max":356,"o":"m 208 189 q 319 104 282 171 q 356 -29 356 38 q 292 -219 356 -137 q 140 -337 228 -301 l 108 -297 l 108 -279 q 194 -205 157 -264 q 231 -82 231 -146 q 201 13 231 -31 q 133 60 172 57 l 133 90 l 208 189 z "},"…":{"ha":1436,"x_min":146,"x_max":1290,"o":"m 247 168 q 312 144 290 168 q 333 83 333 121 q 302 13 333 40 q 232 -15 271 -15 q 172 8 197 -15 q 146 68 146 31 q 178 139 146 110 q 247 168 210 168 m 725 168 q 790 144 768 168 q 811 83 811 121 q 781 13 811 40 q 710 -15 750 -15 q 650 8 675 -15 q 625 68 625 31 q 656 139 625 110 q 725 168 688 168 m 1204 168 q 1269 144 1247 168 q 1290 83 1290 121 q 1260 13 1290 40 q 1189 -15 1229 -15 q 1128 8 1154 -15 q 1103 68 1103 31 q 1135 139 1103 110 q 1204 168 1167 168 z "},"!":{"ha":479,"x_min":146,"x_max":333,"o":"m 269 332 l 190 332 l 146 1207 l 319 1207 l 269 332 m 247 168 q 312 144 290 168 q 333 83 333 121 q 302 13 333 40 q 232 -15 271 -15 q 172 8 197 -15 q 146 68 146 31 q 178 139 146 110 q 247 168 210 168 z "},"¡":{"ha":483,"x_min":146,"x_max":338,"o":"m 251 975 q 316 951 294 975 q 338 892 338 928 q 307 821 338 849 q 236 793 276 793 q 176 816 201 793 q 150 876 150 839 q 181 947 150 918 q 251 975 213 975 m 319 -276 l 146 -276 l 196 625 l 275 625 l 319 -276 z "},"#":{"ha":971,"x_min":101,"x_max":868,"o":"m 101 247 l 101 335 l 256 335 l 278 608 l 117 608 l 117 694 l 282 694 l 300 919 l 413 919 l 396 694 l 608 694 l 626 919 l 739 919 l 722 694 l 868 694 l 868 608 l 717 608 l 694 335 l 844 335 l 846 247 l 690 247 l 669 0 l 561 0 l 578 247 l 364 247 l 343 0 l 232 0 l 251 247 l 101 247 m 604 608 l 390 608 l 368 335 l 581 335 l 604 608 z "},".":{"ha":479,"x_min":146,"x_max":333,"o":"m 247 168 q 312 144 290 168 q 333 83 333 121 q 302 13 333 40 q 232 -15 271 -15 q 172 8 197 -15 q 146 68 146 31 q 178 139 146 110 q 247 168 210 168 z "},"?":{"ha":686,"x_min":88,"x_max":631,"o":"m 217 1244 q 453 1185 361 1244 q 588 1038 546 1126 q 631 857 631 950 q 626 794 631 815 q 603 753 621 772 q 547 713 586 735 q 506 690 531 703 q 468 671 482 678 q 360 610 396 636 q 325 550 325 585 q 337 474 325 513 q 375 371 349 436 l 392 332 l 319 332 q 238 442 281 361 q 196 568 196 522 q 247 642 197 610 q 392 714 297 674 q 476 751 444 735 q 516 776 506 767 q 526 803 526 786 q 484 962 529 888 q 363 1081 439 1036 q 200 1125 286 1125 q 138 1122 169 1125 q 88 1110 106 1118 l 88 1214 q 137 1236 99 1228 q 217 1244 175 1244 m 376 168 q 441 144 419 168 q 463 83 463 121 q 431 13 463 40 q 361 -15 400 -15 q 301 8 326 -15 q 275 68 275 31 q 307 139 275 110 q 376 168 339 168 z "},"¿":{"ha":686,"x_min":60,"x_max":603,"o":"m 318 976 q 383 953 361 976 q 404 892 404 929 q 373 821 404 849 q 303 793 342 793 q 242 816 268 793 q 217 876 217 839 q 249 947 217 918 q 318 976 281 976 m 371 629 q 452 519 410 600 q 494 393 494 439 q 443 319 493 351 q 299 247 393 288 q 214 210 246 226 q 174 185 185 194 q 164 158 164 175 q 206 -1 161 74 q 328 -119 251 -75 q 490 -164 404 -164 q 553 -160 521 -164 q 603 -149 585 -157 l 603 -253 q 553 -275 592 -267 q 474 -283 515 -283 q 237 -224 329 -283 q 102 -77 144 -165 q 60 104 60 11 q 65 167 60 146 q 87 208 69 189 q 143 249 104 226 q 184 271 160 258 q 222 290 208 283 q 330 351 294 325 q 365 411 365 376 q 353 487 365 449 q 315 590 342 525 l 299 629 l 371 629 z "},"\"":{"ha":854,"x_min":201,"x_max":653,"o":"m 354 1208 l 321 656 l 235 656 l 201 1208 l 354 1208 m 653 1208 l 619 656 l 533 656 l 500 1208 l 653 1208 z "},"'":{"ha":556,"x_min":201,"x_max":354,"o":"m 354 1208 l 321 656 l 235 656 l 201 1208 l 354 1208 z "},";":{"ha":479,"x_min":135,"x_max":382,"o":"m 247 717 q 312 693 290 717 q 333 633 333 669 q 302 563 333 590 q 232 535 271 535 q 172 558 197 535 q 146 618 146 581 q 177 688 146 660 q 247 717 208 717 m 235 189 q 345 104 308 171 q 382 -29 382 38 q 318 -219 382 -137 q 167 -337 254 -301 l 135 -297 l 135 -279 q 220 -205 183 -264 q 257 -82 257 -146 q 228 13 257 -31 q 160 60 199 57 l 160 90 l 235 189 z "},"/":{"ha":553,"x_min":21,"x_max":533,"o":"m 533 1085 l 144 -246 l 21 -246 l 408 1085 l 533 1085 z "},"_":{"ha":960,"x_min":-14,"x_max":974,"o":"m 974 -231 l -14 -231 l -14 -131 l 974 -131 l 974 -231 z "},"{":{"ha":701,"x_min":54,"x_max":532,"o":"m 224 393 q 173 443 224 418 q 54 485 122 468 l 54 569 q 174 608 125 586 q 224 656 224 631 l 224 1008 q 234 1113 224 1078 q 272 1163 244 1149 q 353 1178 299 1178 q 428 1172 394 1178 q 491 1159 461 1167 q 532 1149 521 1151 l 532 1090 l 335 1090 l 335 658 q 316 604 335 626 q 271 568 297 582 q 185 526 244 554 q 297 464 258 493 q 335 390 335 435 l 335 -40 l 532 -40 l 532 -100 q 438 -122 475 -115 q 353 -129 401 -129 q 272 -115 299 -129 q 234 -65 244 -100 q 224 40 224 -29 l 224 393 z "},"}":{"ha":650,"x_min":117,"x_max":596,"o":"m 315 390 q 353 465 315 436 q 464 526 390 494 q 405 555 453 532 q 336 602 357 578 q 315 658 315 626 l 315 1090 l 118 1090 l 117 1149 q 164 1160 129 1151 q 231 1174 199 1169 q 297 1178 264 1178 q 378 1163 351 1178 q 416 1113 406 1149 q 426 1008 426 1078 l 426 656 q 476 608 426 631 q 596 569 525 586 l 596 485 q 477 443 528 468 q 426 393 426 418 l 426 40 q 416 -65 426 -29 q 378 -115 406 -100 q 297 -129 351 -129 q 213 -122 249 -129 q 117 -100 176 -115 l 118 -40 l 315 -40 l 315 390 z "},"[":{"ha":579,"x_min":136,"x_max":444,"o":"m 136 1008 q 147 1113 136 1078 q 184 1163 157 1149 q 264 1178 211 1178 q 338 1172 306 1178 q 401 1159 371 1167 q 444 1149 431 1151 l 443 1090 l 246 1090 l 246 -40 l 443 -42 l 444 -100 q 349 -122 383 -115 q 264 -129 314 -129 q 184 -115 211 -129 q 147 -65 157 -100 q 136 40 136 -29 l 136 1008 z "},"]":{"ha":579,"x_min":136,"x_max":444,"o":"m 333 1090 l 136 1090 l 136 1149 q 182 1160 147 1151 q 249 1174 217 1169 q 315 1178 282 1178 q 397 1163 369 1178 q 434 1113 424 1149 q 444 1008 444 1078 l 444 40 q 434 -65 444 -29 q 397 -115 424 -100 q 315 -129 369 -129 q 230 -122 267 -129 q 136 -100 193 -115 l 136 -42 l 333 -40 l 333 1090 z "},"(":{"ha":551,"x_min":78,"x_max":474,"o":"m 406 -217 q 278 -100 353 -185 q 140 136 203 -15 q 78 492 78 288 q 140 819 78 671 q 281 1060 203 967 q 406 1179 360 1153 l 464 1143 q 362 1030 424 1115 q 251 804 300 944 q 203 489 203 664 q 253 174 203 315 q 366 -55 303 33 q 474 -175 429 -143 l 406 -217 z "},")":{"ha":551,"x_min":78,"x_max":474,"o":"m 88 -174 q 190 -60 128 -146 q 300 165 251 25 q 349 481 349 306 q 299 795 349 654 q 185 1024 249 936 q 78 1144 122 1113 l 146 1186 q 274 1069 199 1154 q 411 833 349 985 q 474 478 474 682 q 411 151 474 299 q 270 -90 349 3 q 146 -210 192 -183 l 88 -174 z "},"—":{"ha":1631,"x_min":121,"x_max":1510,"o":"m 1510 593 l 1510 493 l 121 493 l 121 593 l 1510 593 z "},"–":{"ha":936,"x_min":121,"x_max":815,"o":"m 815 593 l 815 493 l 121 493 l 121 593 l 815 593 z "},"-":{"ha":842,"x_min":121,"x_max":721,"o":"m 721 593 l 721 493 l 121 493 l 121 593 l 721 593 z "},"­":{"ha":833,"x_min":121,"x_max":721,"o":"m 121 493 m 721 593 l 721 493 l 121 493 l 121 593 l 721 593 z "},"«":{"ha":1286,"x_min":167,"x_max":1121,"o":"m 606 729 l 640 671 l 292 417 l 640 172 l 606 111 l 167 358 l 167 469 l 606 729 m 1086 729 l 1121 671 l 772 417 l 1121 172 l 1086 111 l 646 358 l 646 469 l 1086 729 z "},"»":{"ha":1286,"x_min":167,"x_max":1121,"o":"m 514 422 l 167 667 l 201 729 l 640 482 l 640 369 l 201 111 l 167 168 l 514 422 m 647 667 l 682 729 l 1121 482 l 1121 369 l 682 111 l 647 168 l 994 422 l 647 667 z "},"‹":{"ha":807,"x_min":167,"x_max":640,"o":"m 606 729 l 640 671 l 292 417 l 640 172 l 606 111 l 167 358 l 167 469 l 606 729 z "},"›":{"ha":807,"x_min":167,"x_max":640,"o":"m 514 422 l 167 667 l 201 729 l 640 482 l 640 369 l 201 111 l 167 168 l 514 422 z "},"„":{"ha":899,"x_min":142,"x_max":763,"o":"m 242 189 q 351 104 314 171 q 389 -29 389 38 q 325 -219 389 -137 q 174 -337 261 -301 l 142 -297 l 142 -279 q 226 -205 190 -264 q 263 -82 263 -146 q 233 13 263 -31 q 167 60 204 57 l 167 90 l 242 189 m 615 189 q 726 104 689 171 q 763 -29 763 38 q 699 -219 763 -137 q 547 -337 635 -301 l 515 -297 l 515 -279 q 600 -205 564 -264 q 636 -82 636 -146 q 607 13 636 -31 q 540 60 578 57 l 540 90 l 615 189 z "},"“":{"ha":882,"x_min":136,"x_max":740,"o":"m 283 638 q 173 723 210 657 q 136 856 136 789 q 199 1047 136 965 q 351 1164 263 1128 l 383 1124 l 383 1106 q 298 1031 335 1090 q 261 908 261 972 q 290 814 261 857 q 358 767 319 771 l 358 736 l 283 638 m 640 638 q 531 723 568 657 q 493 856 493 789 q 557 1046 493 964 q 708 1164 621 1128 l 740 1124 l 740 1106 q 656 1031 692 1090 q 619 908 619 972 q 649 814 619 857 q 717 767 678 771 l 717 736 l 640 638 z "},"”":{"ha":899,"x_min":142,"x_max":763,"o":"m 142 710 q 226 784 190 725 q 263 907 263 843 q 234 1001 263 958 q 167 1049 206 1044 l 167 1079 l 242 1178 q 351 1093 314 1160 q 389 960 389 1026 q 325 769 389 851 q 174 651 261 688 l 142 692 l 142 710 m 515 710 q 600 784 564 725 q 636 907 636 843 q 608 1001 636 958 q 540 1049 579 1044 l 540 1079 l 615 1178 q 726 1093 689 1160 q 763 960 763 1026 q 699 769 763 851 q 547 651 635 688 l 515 692 l 515 710 z "},"‘":{"ha":525,"x_min":136,"x_max":383,"o":"m 283 638 q 173 723 210 657 q 136 856 136 789 q 199 1047 136 965 q 351 1164 263 1128 l 383 1124 l 383 1106 q 298 1031 335 1090 q 261 908 261 972 q 290 814 261 857 q 358 767 319 771 l 358 736 l 283 638 z "},"’":{"ha":525,"x_min":142,"x_max":389,"o":"m 142 710 q 226 784 190 725 q 263 907 263 843 q 234 1001 263 958 q 167 1049 206 1044 l 167 1079 l 242 1178 q 351 1093 314 1160 q 389 960 389 1026 q 325 769 389 851 q 174 651 261 688 l 142 692 l 142 710 z "},"‚":{"ha":525,"x_min":142,"x_max":389,"o":"m 242 188 q 325 138 292 175 q 374 55 358 100 q 389 -31 389 10 q 326 -221 389 -139 q 174 -340 263 -303 l 142 -299 l 142 -282 q 226 -207 190 -265 q 263 -83 263 -149 q 234 11 263 -32 q 167 58 206 54 l 167 89 l 242 188 z "},"ॽ":{"ha":771,"x_min":133,"x_max":651,"o":"m 356 926 q 483 874 413 926 q 602 744 553 822 q 651 589 651 665 q 614 469 651 522 q 525 389 576 417 q 381 343 485 368 l 381 -58 l 360 -58 l 258 -1 l 258 439 l 274 463 q 371 475 319 465 q 456 501 422 485 q 532 559 499 524 q 565 639 565 594 q 540 723 565 682 q 477 789 515 764 q 403 814 439 814 q 197 717 306 814 l 133 838 q 246 897 174 867 q 356 926 318 926 z "},"।":{"ha":710,"x_min":371,"x_max":493,"o":"m 493 883 l 493 -58 l 472 -58 l 371 -1 l 371 940 l 393 940 l 493 883 z "},"॥":{"ha":1076,"x_min":371,"x_max":860,"o":"m 493 883 l 493 -58 l 472 -58 l 371 -1 l 371 940 l 393 940 l 493 883 m 860 883 l 860 -58 l 838 -58 l 738 -1 l 738 940 l 760 940 l 860 883 z "},"॰":{"ha":621,"x_min":92,"x_max":529,"o":"m 92 381 q 131 491 92 438 q 224 577 169 544 q 318 610 278 610 q 421 584 372 610 q 499 508 469 558 q 529 392 529 458 q 490 276 529 331 q 397 190 451 222 q 303 158 343 158 q 199 186 247 158 q 121 265 150 214 q 92 381 92 315 m 193 419 q 217 329 193 368 q 272 270 240 290 q 328 250 304 250 q 397 279 364 250 q 429 350 429 308 q 408 432 429 393 q 356 495 388 471 q 296 519 325 519 q 226 490 258 519 q 193 419 193 461 z "},"ॱ":{"ha":426,"x_min":92,"x_max":307,"o":"m 307 847 l 200 738 l 92 846 l 199 956 l 307 847 z "}," ":{"ha":1389,"x_min":0,"x_max":0,"o":""}," ":{"ha":1389,"x_min":0,"x_max":0,"o":""}," ":{"ha":694,"x_min":0,"x_max":0,"o":""}," ":{"ha":694,"x_min":0,"x_max":0,"o":""}," ":{"ha":874,"x_min":0,"x_max":0,"o":""}," ":{"ha":347,"x_min":0,"x_max":0,"o":""}," ":{"ha":139,"x_min":0,"x_max":0,"o":""}," ":{"ha":490,"x_min":0,"x_max":0,"o":""}," ":{"ha":232,"x_min":0,"x_max":0,"o":""}," ":{"ha":311,"x_min":0,"x_max":0,"o":""}," ":{"ha":278,"x_min":0,"x_max":0,"o":""}," ":{"ha":463,"x_min":0,"x_max":0,"o":""},"‍":{"ha":0,"x_min":0,"x_max":0,"o":""},"‌":{"ha":0,"x_min":0,"x_max":0,"o":""},"":{"ha":0,"x_min":0,"x_max":0,"o":""},"¢":{"ha":757,"x_min":85,"x_max":675,"o":"m 349 -8 q 153 115 222 13 q 85 368 85 217 q 127 567 85 479 q 242 708 169 654 q 407 775 315 761 l 417 924 l 500 924 l 492 779 q 585 769 542 778 q 650 746 629 760 l 650 582 l 586 582 l 551 668 q 500 692 532 685 q 440 700 468 700 q 324 668 376 700 q 241 573 272 636 q 210 418 210 510 q 247 228 210 304 q 340 115 283 151 q 457 79 396 79 q 566 91 510 79 q 651 119 622 103 l 675 60 q 573 8 639 28 q 433 -14 507 -11 l 426 -146 l 342 -146 l 349 -8 z "},"¤":{"ha":974,"x_min":153,"x_max":821,"o":"m 333 678 q 482 724 401 724 q 640 669 574 724 l 764 792 l 821 733 l 696 608 q 739 468 739 546 q 690 318 739 385 l 813 196 l 754 138 l 632 260 q 482 211 564 211 q 335 257 403 211 l 213 135 l 154 192 l 275 313 q 224 468 224 382 q 274 621 224 553 l 153 743 l 210 801 l 333 678 m 482 636 q 368 587 415 636 q 321 468 321 538 q 368 349 321 399 q 482 300 415 300 q 595 349 549 300 q 642 468 642 399 q 595 587 642 538 q 482 636 549 636 z "},"$":{"ha":861,"x_min":118,"x_max":778,"o":"m 178 260 l 221 125 q 446 53 289 53 q 591 98 529 53 q 653 232 653 143 q 619 330 653 286 q 538 407 586 374 q 404 489 489 440 q 259 577 317 536 q 163 674 201 618 q 125 801 125 731 q 206 979 125 914 q 396 1058 286 1044 l 400 1174 l 507 1174 l 503 1061 q 631 1043 576 1057 q 714 1011 685 1029 l 714 822 l 656 822 l 603 953 q 536 985 579 974 q 440 996 493 996 q 354 979 399 996 q 278 924 310 963 q 247 824 247 885 q 306 701 247 754 q 475 590 365 647 q 633 497 574 536 q 735 400 693 457 q 778 269 778 343 q 690 64 778 135 q 463 -14 601 -7 l 457 -157 l 350 -157 l 356 -12 q 212 10 279 -7 q 118 42 144 26 l 118 260 l 178 260 z "},"€":{"ha":943,"x_min":-26,"x_max":861,"o":"m 578 1063 q 699 1053 646 1063 q 819 1025 751 1043 l 861 1014 l 850 818 l 792 818 l 756 931 q 661 972 714 960 q 535 983 608 983 q 351 910 421 983 q 257 694 281 836 l 643 694 l 643 608 l 247 608 q 244 533 244 583 l 244 501 q 246 469 244 481 l 624 469 l 624 383 l 251 383 q 338 141 269 229 q 547 53 407 53 q 674 67 626 53 q 771 119 722 82 q 801 238 788 192 l 861 238 l 861 43 q 820 35 844 42 q 785 25 796 28 q 663 -7 725 6 q 517 -19 601 -19 q 236 88 338 -19 q 113 383 135 194 l -26 383 l -26 469 l 106 469 l 106 492 q 114 608 106 553 l -6 608 l -6 694 l 129 694 q 290 965 174 868 q 578 1063 407 1063 z "},"ƒ":{"ha":721,"x_min":121,"x_max":681,"o":"m 121 667 l 125 719 l 278 758 l 282 815 q 339 985 289 910 q 457 1103 389 1061 q 585 1146 525 1146 q 681 1133 661 1146 l 672 1018 q 628 1033 661 1026 q 550 1040 594 1040 q 483 1029 508 1040 q 440 981 457 1018 q 417 871 422 944 l 408 758 l 613 758 l 606 667 l 401 667 l 332 -242 l 201 -242 l 271 667 l 121 667 z "},"₹":{"ha":876,"x_min":174,"x_max":817,"o":"m 517 800 q 575 696 561 751 l 817 696 l 817 674 l 772 592 l 575 592 q 328 376 543 447 l 686 18 l 579 -64 l 271 289 q 228 354 242 322 q 211 408 214 386 l 218 414 q 299 444 250 421 q 392 504 349 467 q 449 590 435 542 l 174 590 l 174 611 l 217 694 l 436 694 q 357 799 413 744 l 174 799 l 174 819 l 217 903 l 815 903 l 815 881 l 771 799 l 517 800 z "},"£":{"ha":978,"x_min":60,"x_max":915,"o":"m 621 1063 q 725 1051 682 1063 q 806 1008 768 1040 l 740 883 q 708 919 733 896 q 643 960 683 942 q 556 979 603 979 q 451 910 490 979 q 413 671 413 842 l 413 593 l 635 593 l 635 493 l 414 493 l 414 472 q 406 321 414 379 q 383 221 399 263 q 338 126 368 179 q 381 117 358 125 q 444 93 404 110 q 565 53 517 61 q 631 47 597 47 q 751 90 714 47 q 789 193 789 132 q 777 249 789 221 q 740 294 765 276 l 803 414 q 886 338 857 392 q 915 213 915 283 q 863 56 915 125 q 676 -24 811 -12 q 622 -26 638 -26 q 485 -8 544 -26 q 356 42 425 10 q 300 65 317 60 q 269 68 283 71 q 126 -21 204 -21 q 80 -8 100 -21 q 60 42 60 6 q 85 92 60 67 q 157 134 111 118 q 261 147 203 150 q 283 322 283 197 l 283 493 l 161 493 l 161 593 l 283 593 l 283 669 q 326 862 283 771 q 445 1008 368 953 q 621 1063 522 1063 z "},"¥":{"ha":954,"x_min":22,"x_max":932,"o":"m 411 78 l 411 256 l 124 256 l 124 342 l 411 342 l 411 497 l 124 497 l 124 583 l 368 583 l 110 975 l 22 986 l 22 1053 l 363 1053 l 363 986 l 261 975 l 454 661 l 488 583 l 506 583 l 547 667 l 618 792 l 724 975 l 622 986 l 622 1053 l 932 1053 l 932 986 l 836 967 l 592 583 l 821 583 l 821 497 l 544 497 l 544 342 l 821 342 l 821 256 l 544 256 l 544 79 l 682 58 l 682 0 l 281 0 l 281 58 l 411 78 z "},"≈":{"ha":869,"x_min":101,"x_max":761,"o":"m 101 667 q 197 758 133 721 q 333 796 261 796 q 400 780 372 796 q 465 732 428 764 q 513 694 493 707 q 558 682 533 682 q 703 753 629 682 l 751 692 q 654 600 718 638 q 519 563 590 563 q 455 578 482 563 q 390 625 428 594 q 340 664 360 651 q 294 676 319 676 q 219 657 253 676 q 150 607 185 638 l 101 667 m 111 403 q 208 493 143 456 q 343 531 272 531 q 408 515 382 531 q 475 468 435 500 q 523 431 503 443 q 568 418 543 418 q 713 488 640 418 l 761 428 q 664 335 728 374 q 529 297 600 297 q 463 314 492 297 q 399 361 433 331 q 349 399 369 386 q 304 411 328 411 q 227 392 261 411 q 160 342 193 372 l 111 403 z "},"~":{"ha":853,"x_min":101,"x_max":751,"o":"m 101 589 q 197 681 133 643 q 333 718 261 718 q 398 702 371 718 q 463 656 425 686 q 514 617 493 629 q 558 604 535 604 q 701 674 629 604 l 751 614 q 654 522 718 560 q 519 485 590 485 q 453 501 481 485 q 389 549 425 517 q 338 587 357 575 q 293 599 318 599 q 218 579 251 599 q 150 528 185 560 l 101 589 z "},"÷":{"ha":868,"x_min":121,"x_max":749,"o":"m 443 896 q 508 872 486 896 q 529 811 529 849 q 499 742 529 769 q 428 714 468 714 q 368 737 393 714 q 343 797 343 760 q 374 867 343 839 q 443 896 406 896 m 749 493 l 121 493 l 121 593 l 749 593 l 749 493 m 443 369 q 508 346 486 369 q 529 285 529 322 q 499 214 529 242 q 428 186 468 186 q 368 209 393 186 q 343 269 343 232 q 374 340 343 311 q 443 369 406 369 z "},"=":{"ha":842,"x_min":121,"x_max":721,"o":"m 721 719 l 721 619 l 121 619 l 121 719 l 721 719 m 721 456 l 721 356 l 121 356 l 121 456 l 721 456 z "},">":{"ha":899,"x_min":154,"x_max":811,"o":"m 696 510 l 154 765 l 154 890 l 811 556 l 811 464 l 154 129 l 154 253 l 696 510 z "},"≥":{"ha":897,"x_min":121,"x_max":778,"o":"m 615 663 l 121 863 l 121 979 l 778 692 l 778 636 l 121 344 l 121 461 l 615 663 m 778 219 l 778 119 l 121 119 l 121 219 l 778 219 z "},"∆":{"ha":1200,"x_min":100,"x_max":1100,"o":"m 589 1028 l 1100 18 l 1089 0 l 110 0 l 100 15 l 567 1028 l 589 1028 m 553 822 l 215 82 l 919 82 l 553 822 z "},"∞":{"ha":1200,"x_min":78,"x_max":1122,"o":"m 879 674 q 1061 603 1000 674 q 1122 432 1122 532 q 1085 295 1122 357 q 988 198 1049 233 q 857 163 928 163 q 714 210 778 163 q 582 343 650 258 q 461 208 515 253 q 335 163 407 163 q 194 197 253 163 q 107 288 136 232 q 78 406 78 343 q 115 541 78 479 q 213 638 151 603 q 343 674 274 674 q 488 625 424 674 q 618 493 551 576 q 746 626 686 579 q 879 674 806 674 m 322 592 q 228 545 260 592 q 197 431 197 499 q 217 338 197 382 q 273 268 238 294 q 354 242 308 242 q 451 283 406 242 q 546 394 497 325 q 532 413 538 404 q 522 426 526 421 q 420 549 465 506 q 322 592 375 592 m 860 588 q 656 440 769 588 q 733 339 701 378 q 807 269 765 300 q 892 239 849 239 q 1003 407 1003 239 q 965 534 1003 481 q 860 588 926 588 z "}}}
